G04 #@! TF.FileFunction,Copper,L2,Bot,Signal*
%FSLAX46Y46*%
G04 Gerber Fmt 4.6, Leading zero omitted, Abs format (unit mm)*
G04 Created by KiCad (PCBNEW 4.0.1-stable) date Friday, 06 May 2016 'pmt' 19:48:24*
%MOMM*%
G01*
G04 APERTURE LIST*
%ADD10C,0.100000*%
%ADD11O,1.524000X2.540000*%
%ADD12O,4.000500X2.499360*%
%ADD13O,2.000000X1.200000*%
%ADD14C,1.524000*%
%ADD15R,0.300000X3.000000*%
%ADD16C,1.000000*%
%ADD17C,0.600000*%
%ADD18C,1.000000*%
%ADD19C,0.250000*%
%ADD20C,0.254000*%
G04 APERTURE END LIST*
D10*
D11*
X209550000Y-159385000D03*
X207010000Y-159385000D03*
X204470000Y-159385000D03*
X196850000Y-159385000D03*
X199390000Y-159385000D03*
X201930000Y-159385000D03*
X191770000Y-159385000D03*
X189230000Y-159385000D03*
X186690000Y-159385000D03*
X181610000Y-159385000D03*
X179070000Y-159385000D03*
X209550000Y-111125000D03*
X207010000Y-111125000D03*
X204470000Y-111125000D03*
X201930000Y-111125000D03*
X199390000Y-111125000D03*
X196850000Y-111125000D03*
X194310000Y-111125000D03*
X191770000Y-111125000D03*
X187706000Y-111125000D03*
X185166000Y-111125000D03*
X182626000Y-111125000D03*
X180086000Y-111125000D03*
X177546000Y-111125000D03*
X175006000Y-111125000D03*
X172466000Y-111125000D03*
X169926000Y-111125000D03*
X184150000Y-159385000D03*
D12*
X202976480Y-130810000D03*
X180975000Y-130810000D03*
D13*
X168910000Y-140970000D03*
X168910000Y-142970000D03*
X168910000Y-131985000D03*
X168910000Y-133985000D03*
X168910000Y-115015000D03*
X168910000Y-117015000D03*
X168910000Y-119015000D03*
X168910000Y-121015000D03*
X168910000Y-123015000D03*
X168910000Y-125015000D03*
X168910000Y-149385000D03*
X168910000Y-151385000D03*
X168910000Y-153385000D03*
X168910000Y-155385000D03*
X168910000Y-157385000D03*
X168910000Y-159385000D03*
D14*
X173990000Y-138430000D03*
X211490000Y-138430000D03*
X211490000Y-154930000D03*
X173990000Y-154930000D03*
D15*
X173855000Y-121915000D03*
X173355000Y-121915000D03*
X172855000Y-121915000D03*
X172855000Y-118115000D03*
X173355000Y-118115000D03*
X173855000Y-118115000D03*
X174490000Y-150490000D03*
X173990000Y-150490000D03*
X173490000Y-150490000D03*
X173490000Y-146690000D03*
X173990000Y-146690000D03*
X174490000Y-146690000D03*
D16*
X182880000Y-119380000D03*
D17*
X206375000Y-119380000D03*
D16*
X171450000Y-117475000D03*
D17*
X198120000Y-121920000D03*
X199390000Y-126365000D03*
X194310000Y-119380000D03*
X192405000Y-126365000D03*
X173990000Y-114935000D03*
X179070000Y-113859980D03*
D18*
X172085000Y-118110000D02*
X172504999Y-118110000D01*
X172504999Y-118110000D02*
X172504999Y-118115000D01*
X171450000Y-117475000D02*
X172085000Y-118110000D01*
X168910000Y-133985000D02*
X168910000Y-135585000D01*
X168910000Y-135585000D02*
X167209990Y-137285010D01*
X168671509Y-142970000D02*
X168910000Y-142970000D01*
X168910000Y-142970000D02*
X168910000Y-144570000D01*
X168910000Y-144570000D02*
X171030000Y-146690000D01*
X171030000Y-146690000D02*
X173139999Y-146690000D01*
D19*
X168910000Y-117015000D02*
X170160000Y-117015000D01*
X170160000Y-117015000D02*
X170885001Y-116289999D01*
X170885001Y-116289999D02*
X173779999Y-116289999D01*
X173779999Y-116289999D02*
X173855000Y-116365000D01*
X173855000Y-116365000D02*
X173855000Y-118115000D01*
X168910000Y-121015000D02*
X171955000Y-121015000D01*
X171955000Y-121015000D02*
X172855000Y-121915000D01*
X168910000Y-151385000D02*
X170160000Y-151385000D01*
X173029999Y-148515001D02*
X174414999Y-148515001D01*
X170160000Y-151385000D02*
X173029999Y-148515001D01*
X174414999Y-148515001D02*
X174490000Y-148440000D01*
X174490000Y-148440000D02*
X174490000Y-146690000D01*
X168910000Y-155385000D02*
X169945000Y-155385000D01*
X169945000Y-155385000D02*
X173490000Y-151840000D01*
X173490000Y-151840000D02*
X173490000Y-150490000D01*
X198120000Y-121920000D02*
X198120000Y-133985000D01*
X198120000Y-133985000D02*
X174720000Y-157385000D01*
X174720000Y-157385000D02*
X168910000Y-157385000D01*
X199390000Y-133351410D02*
X173356410Y-159385000D01*
X173356410Y-159385000D02*
X168910000Y-159385000D01*
X199390000Y-126365000D02*
X199390000Y-133351410D01*
X186690000Y-124460000D02*
X186690000Y-132240000D01*
X186690000Y-132240000D02*
X173990000Y-144940000D01*
X173990000Y-144940000D02*
X173990000Y-146690000D01*
X191770000Y-119380000D02*
X186690000Y-124460000D01*
X194310000Y-119380000D02*
X191770000Y-119380000D01*
X193675000Y-127635000D02*
X193675000Y-133540002D01*
X193675000Y-133540002D02*
X174900001Y-152315001D01*
X174900001Y-152315001D02*
X174065001Y-152315001D01*
X174065001Y-152315001D02*
X173990000Y-152240000D01*
X173990000Y-152240000D02*
X173990000Y-150490000D01*
X192405000Y-126365000D02*
X193675000Y-127635000D01*
X173990000Y-114935000D02*
X174330001Y-115275001D01*
X174330001Y-115275001D02*
X174330001Y-119875001D01*
X173355000Y-119865000D02*
X173355000Y-118115000D01*
X174330001Y-119875001D02*
X174265001Y-119940001D01*
X174265001Y-119940001D02*
X173430001Y-119940001D01*
X173430001Y-119940001D02*
X173355000Y-119865000D01*
X179070000Y-113859980D02*
X179070000Y-118935002D01*
X173355000Y-123665000D02*
X173355000Y-121915000D01*
X179070000Y-118935002D02*
X174265001Y-123740001D01*
X174265001Y-123740001D02*
X173430001Y-123740001D01*
X173430001Y-123740001D02*
X173355000Y-123665000D01*
D20*
G36*
X168938172Y-109591851D02*
X168635340Y-110045070D01*
X168529000Y-110579679D01*
X168529000Y-111670321D01*
X168635340Y-112204930D01*
X168938172Y-112658149D01*
X169391391Y-112960981D01*
X169926000Y-113067321D01*
X170460609Y-112960981D01*
X170913828Y-112658149D01*
X171205330Y-112221887D01*
X171223941Y-112284941D01*
X171567974Y-112710630D01*
X172048723Y-112972260D01*
X172122930Y-112987220D01*
X172339000Y-112864720D01*
X172339000Y-111252000D01*
X172319000Y-111252000D01*
X172319000Y-110998000D01*
X172339000Y-110998000D01*
X172339000Y-110978000D01*
X172593000Y-110978000D01*
X172593000Y-110998000D01*
X172613000Y-110998000D01*
X172613000Y-111252000D01*
X172593000Y-111252000D01*
X172593000Y-112864720D01*
X172809070Y-112987220D01*
X172883277Y-112972260D01*
X173364026Y-112710630D01*
X173708059Y-112284941D01*
X173726670Y-112221887D01*
X174018172Y-112658149D01*
X174471391Y-112960981D01*
X175006000Y-113067321D01*
X175540609Y-112960981D01*
X175993828Y-112658149D01*
X176276000Y-112235850D01*
X176558172Y-112658149D01*
X177011391Y-112960981D01*
X177546000Y-113067321D01*
X178080609Y-112960981D01*
X178533828Y-112658149D01*
X178816000Y-112235850D01*
X179098172Y-112658149D01*
X179551391Y-112960981D01*
X180086000Y-113067321D01*
X180620609Y-112960981D01*
X181073828Y-112658149D01*
X181356000Y-112235850D01*
X181638172Y-112658149D01*
X182091391Y-112960981D01*
X182626000Y-113067321D01*
X183160609Y-112960981D01*
X183613828Y-112658149D01*
X183896000Y-112235850D01*
X184178172Y-112658149D01*
X184631391Y-112960981D01*
X185166000Y-113067321D01*
X185700609Y-112960981D01*
X186153828Y-112658149D01*
X186436000Y-112235850D01*
X186718172Y-112658149D01*
X187171391Y-112960981D01*
X187706000Y-113067321D01*
X188240609Y-112960981D01*
X188693828Y-112658149D01*
X188996660Y-112204930D01*
X189103000Y-111670321D01*
X189103000Y-110579679D01*
X188996660Y-110045070D01*
X188693828Y-109591851D01*
X188327383Y-109347000D01*
X191148617Y-109347000D01*
X190782172Y-109591851D01*
X190479340Y-110045070D01*
X190373000Y-110579679D01*
X190373000Y-111670321D01*
X190479340Y-112204930D01*
X190782172Y-112658149D01*
X191235391Y-112960981D01*
X191770000Y-113067321D01*
X192304609Y-112960981D01*
X192757828Y-112658149D01*
X193040000Y-112235850D01*
X193322172Y-112658149D01*
X193775391Y-112960981D01*
X194310000Y-113067321D01*
X194844609Y-112960981D01*
X195297828Y-112658149D01*
X195580000Y-112235850D01*
X195862172Y-112658149D01*
X196315391Y-112960981D01*
X196850000Y-113067321D01*
X197384609Y-112960981D01*
X197837828Y-112658149D01*
X198120000Y-112235850D01*
X198402172Y-112658149D01*
X198855391Y-112960981D01*
X199390000Y-113067321D01*
X199924609Y-112960981D01*
X200377828Y-112658149D01*
X200660000Y-112235850D01*
X200942172Y-112658149D01*
X201395391Y-112960981D01*
X201930000Y-113067321D01*
X202464609Y-112960981D01*
X202917828Y-112658149D01*
X203200000Y-112235850D01*
X203482172Y-112658149D01*
X203935391Y-112960981D01*
X204470000Y-113067321D01*
X205004609Y-112960981D01*
X205457828Y-112658149D01*
X205740000Y-112235850D01*
X206022172Y-112658149D01*
X206475391Y-112960981D01*
X207010000Y-113067321D01*
X207544609Y-112960981D01*
X207997828Y-112658149D01*
X208280000Y-112235850D01*
X208562172Y-112658149D01*
X209015391Y-112960981D01*
X209550000Y-113067321D01*
X210084609Y-112960981D01*
X210537828Y-112658149D01*
X210840660Y-112204930D01*
X210947000Y-111670321D01*
X210947000Y-110579679D01*
X210840660Y-110045070D01*
X210537828Y-109591851D01*
X210171383Y-109347000D01*
X210577908Y-109347000D01*
X211328000Y-110097092D01*
X211328000Y-121285000D01*
X211338006Y-121334410D01*
X211365197Y-121374803D01*
X211405974Y-121415580D01*
X211434046Y-121556705D01*
X211587954Y-121787046D01*
X213868000Y-124067091D01*
X213868000Y-156157394D01*
X211365197Y-158660197D01*
X211337334Y-158702211D01*
X211328000Y-158750000D01*
X211328000Y-161163000D01*
X210171383Y-161163000D01*
X210537828Y-160918149D01*
X210840660Y-160464930D01*
X210947000Y-159930321D01*
X210947000Y-158839679D01*
X210840660Y-158305070D01*
X210537828Y-157851851D01*
X210084609Y-157549019D01*
X209550000Y-157442679D01*
X209015391Y-157549019D01*
X208562172Y-157851851D01*
X208280000Y-158274150D01*
X207997828Y-157851851D01*
X207544609Y-157549019D01*
X207010000Y-157442679D01*
X206475391Y-157549019D01*
X206022172Y-157851851D01*
X205740000Y-158274150D01*
X205457828Y-157851851D01*
X205004609Y-157549019D01*
X204470000Y-157442679D01*
X203935391Y-157549019D01*
X203482172Y-157851851D01*
X203200000Y-158274150D01*
X202917828Y-157851851D01*
X202464609Y-157549019D01*
X201930000Y-157442679D01*
X201395391Y-157549019D01*
X200942172Y-157851851D01*
X200660000Y-158274150D01*
X200377828Y-157851851D01*
X199924609Y-157549019D01*
X199390000Y-157442679D01*
X198855391Y-157549019D01*
X198402172Y-157851851D01*
X198120000Y-158274150D01*
X197837828Y-157851851D01*
X197384609Y-157549019D01*
X196850000Y-157442679D01*
X196315391Y-157549019D01*
X195862172Y-157851851D01*
X195559340Y-158305070D01*
X195453000Y-158839679D01*
X195453000Y-159930321D01*
X195559340Y-160464930D01*
X195862172Y-160918149D01*
X196228617Y-161163000D01*
X192391383Y-161163000D01*
X192757828Y-160918149D01*
X193060660Y-160464930D01*
X193167000Y-159930321D01*
X193167000Y-158839679D01*
X193060660Y-158305070D01*
X192757828Y-157851851D01*
X192304609Y-157549019D01*
X191770000Y-157442679D01*
X191235391Y-157549019D01*
X190782172Y-157851851D01*
X190490670Y-158288113D01*
X190472059Y-158225059D01*
X190128026Y-157799370D01*
X189647277Y-157537740D01*
X189573070Y-157522780D01*
X189357000Y-157645280D01*
X189357000Y-159258000D01*
X189377000Y-159258000D01*
X189377000Y-159512000D01*
X189357000Y-159512000D01*
X189357000Y-159532000D01*
X189103000Y-159532000D01*
X189103000Y-159512000D01*
X186817000Y-159512000D01*
X186817000Y-159532000D01*
X186563000Y-159532000D01*
X186563000Y-159512000D01*
X186543000Y-159512000D01*
X186543000Y-159258000D01*
X186563000Y-159258000D01*
X186563000Y-157645280D01*
X186817000Y-157645280D01*
X186817000Y-159258000D01*
X189103000Y-159258000D01*
X189103000Y-157645280D01*
X188886930Y-157522780D01*
X188812723Y-157537740D01*
X188331974Y-157799370D01*
X187987941Y-158225059D01*
X187960000Y-158319723D01*
X187932059Y-158225059D01*
X187588026Y-157799370D01*
X187107277Y-157537740D01*
X187033070Y-157522780D01*
X186817000Y-157645280D01*
X186563000Y-157645280D01*
X186346930Y-157522780D01*
X186272723Y-157537740D01*
X185791974Y-157799370D01*
X185447941Y-158225059D01*
X185429330Y-158288113D01*
X185137828Y-157851851D01*
X184684609Y-157549019D01*
X184150000Y-157442679D01*
X183615391Y-157549019D01*
X183162172Y-157851851D01*
X182880000Y-158274150D01*
X182597828Y-157851851D01*
X182144609Y-157549019D01*
X181610000Y-157442679D01*
X181075391Y-157549019D01*
X180622172Y-157851851D01*
X180340000Y-158274150D01*
X180057828Y-157851851D01*
X179604609Y-157549019D01*
X179070000Y-157442679D01*
X178535391Y-157549019D01*
X178082172Y-157851851D01*
X177779340Y-158305070D01*
X177673000Y-158839679D01*
X177673000Y-159930321D01*
X177779340Y-160464930D01*
X178082172Y-160918149D01*
X178448617Y-161163000D01*
X163270000Y-161163000D01*
X163270000Y-149385000D01*
X167242968Y-149385000D01*
X167336977Y-149857614D01*
X167604691Y-150258277D01*
X167794346Y-150385000D01*
X167604691Y-150511723D01*
X167336977Y-150912386D01*
X167242968Y-151385000D01*
X167336977Y-151857614D01*
X167604691Y-152258277D01*
X167794346Y-152385000D01*
X167604691Y-152511723D01*
X167336977Y-152912386D01*
X167242968Y-153385000D01*
X167336977Y-153857614D01*
X167604691Y-154258277D01*
X167794346Y-154385000D01*
X167604691Y-154511723D01*
X167336977Y-154912386D01*
X167242968Y-155385000D01*
X167336977Y-155857614D01*
X167604691Y-156258277D01*
X167794346Y-156385000D01*
X167604691Y-156511723D01*
X167336977Y-156912386D01*
X167242968Y-157385000D01*
X167336977Y-157857614D01*
X167604691Y-158258277D01*
X167794346Y-158385000D01*
X167604691Y-158511723D01*
X167336977Y-158912386D01*
X167242968Y-159385000D01*
X167336977Y-159857614D01*
X167604691Y-160258277D01*
X168005354Y-160525991D01*
X168477968Y-160620000D01*
X169342032Y-160620000D01*
X169814646Y-160525991D01*
X170215309Y-160258277D01*
X170290998Y-160145000D01*
X173356410Y-160145000D01*
X173647249Y-160087148D01*
X173893811Y-159922401D01*
X177905999Y-155910213D01*
X210689392Y-155910213D01*
X210758857Y-156152397D01*
X211282302Y-156339144D01*
X211837368Y-156311362D01*
X212221143Y-156152397D01*
X212290608Y-155910213D01*
X211490000Y-155109605D01*
X210689392Y-155910213D01*
X177905999Y-155910213D01*
X179093910Y-154722302D01*
X210080856Y-154722302D01*
X210108638Y-155277368D01*
X210267603Y-155661143D01*
X210509787Y-155730608D01*
X211310395Y-154930000D01*
X211669605Y-154930000D01*
X212470213Y-155730608D01*
X212712397Y-155661143D01*
X212899144Y-155137698D01*
X212871362Y-154582632D01*
X212712397Y-154198857D01*
X212470213Y-154129392D01*
X211669605Y-154930000D01*
X211310395Y-154930000D01*
X210509787Y-154129392D01*
X210267603Y-154198857D01*
X210080856Y-154722302D01*
X179093910Y-154722302D01*
X179866425Y-153949787D01*
X210689392Y-153949787D01*
X211490000Y-154750395D01*
X212290608Y-153949787D01*
X212221143Y-153707603D01*
X211697698Y-153520856D01*
X211142632Y-153548638D01*
X210758857Y-153707603D01*
X210689392Y-153949787D01*
X179866425Y-153949787D01*
X195109551Y-138706661D01*
X210092758Y-138706661D01*
X210304990Y-139220303D01*
X210697630Y-139613629D01*
X211210900Y-139826757D01*
X211766661Y-139827242D01*
X212280303Y-139615010D01*
X212673629Y-139222370D01*
X212886757Y-138709100D01*
X212887242Y-138153339D01*
X212675010Y-137639697D01*
X212282370Y-137246371D01*
X211769100Y-137033243D01*
X211213339Y-137032758D01*
X210699697Y-137244990D01*
X210306371Y-137637630D01*
X210093243Y-138150900D01*
X210092758Y-138706661D01*
X195109551Y-138706661D01*
X199927401Y-133888811D01*
X200092148Y-133642249D01*
X200150000Y-133351410D01*
X200150000Y-130810000D01*
X200289602Y-130810000D01*
X200433065Y-131531236D01*
X200841612Y-132142670D01*
X201453046Y-132551217D01*
X202174282Y-132694680D01*
X203778678Y-132694680D01*
X204499914Y-132551217D01*
X205111348Y-132142670D01*
X205519895Y-131531236D01*
X205663358Y-130810000D01*
X205519895Y-130088764D01*
X205111348Y-129477330D01*
X204499914Y-129068783D01*
X203778678Y-128925320D01*
X202174282Y-128925320D01*
X201453046Y-129068783D01*
X200841612Y-129477330D01*
X200433065Y-130088764D01*
X200289602Y-130810000D01*
X200150000Y-130810000D01*
X200150000Y-126927463D01*
X200182192Y-126895327D01*
X200324838Y-126551799D01*
X200325162Y-126179833D01*
X200183117Y-125836057D01*
X199920327Y-125572808D01*
X199576799Y-125430162D01*
X199204833Y-125429838D01*
X198880000Y-125564056D01*
X198880000Y-122482463D01*
X198912192Y-122450327D01*
X199054838Y-122106799D01*
X199055162Y-121734833D01*
X198913117Y-121391057D01*
X198650327Y-121127808D01*
X198306799Y-120985162D01*
X197934833Y-120984838D01*
X197591057Y-121126883D01*
X197327808Y-121389673D01*
X197185162Y-121733201D01*
X197184838Y-122105167D01*
X197326883Y-122448943D01*
X197360000Y-122482118D01*
X197360000Y-133670198D01*
X174405198Y-156625000D01*
X170290998Y-156625000D01*
X170215309Y-156511723D01*
X170025654Y-156385000D01*
X170215309Y-156258277D01*
X170405320Y-155973905D01*
X170482401Y-155922401D01*
X170494589Y-155910213D01*
X173189392Y-155910213D01*
X173258857Y-156152397D01*
X173782302Y-156339144D01*
X174337368Y-156311362D01*
X174721143Y-156152397D01*
X174790608Y-155910213D01*
X173990000Y-155109605D01*
X173189392Y-155910213D01*
X170494589Y-155910213D01*
X171682500Y-154722302D01*
X172580856Y-154722302D01*
X172608638Y-155277368D01*
X172767603Y-155661143D01*
X173009787Y-155730608D01*
X173810395Y-154930000D01*
X174169605Y-154930000D01*
X174970213Y-155730608D01*
X175212397Y-155661143D01*
X175399144Y-155137698D01*
X175371362Y-154582632D01*
X175212397Y-154198857D01*
X174970213Y-154129392D01*
X174169605Y-154930000D01*
X173810395Y-154930000D01*
X173009787Y-154129392D01*
X172767603Y-154198857D01*
X172580856Y-154722302D01*
X171682500Y-154722302D01*
X172455015Y-153949787D01*
X173189392Y-153949787D01*
X173990000Y-154750395D01*
X174790608Y-153949787D01*
X174721143Y-153707603D01*
X174197698Y-153520856D01*
X173642632Y-153548638D01*
X173258857Y-153707603D01*
X173189392Y-153949787D01*
X172455015Y-153949787D01*
X173542467Y-152862335D01*
X173774161Y-153017149D01*
X173822415Y-153026747D01*
X174065001Y-153075001D01*
X174900001Y-153075001D01*
X175190840Y-153017149D01*
X175437402Y-152852402D01*
X194212401Y-134077403D01*
X194377148Y-133830842D01*
X194435000Y-133540002D01*
X194435000Y-127635000D01*
X194377148Y-127344161D01*
X194377148Y-127344160D01*
X194212401Y-127097599D01*
X193340122Y-126225320D01*
X193340162Y-126179833D01*
X193198117Y-125836057D01*
X192935327Y-125572808D01*
X192591799Y-125430162D01*
X192219833Y-125429838D01*
X191876057Y-125571883D01*
X191612808Y-125834673D01*
X191470162Y-126178201D01*
X191469838Y-126550167D01*
X191611883Y-126893943D01*
X191874673Y-127157192D01*
X192218201Y-127299838D01*
X192265077Y-127299879D01*
X192915000Y-127949802D01*
X192915000Y-133225200D01*
X175275000Y-150865200D01*
X175275000Y-150775750D01*
X175116250Y-150617000D01*
X174787440Y-150617000D01*
X174787440Y-150363000D01*
X175116250Y-150363000D01*
X175275000Y-150204250D01*
X175275000Y-148863690D01*
X175201175Y-148685460D01*
X175207414Y-148654090D01*
X175250000Y-148440000D01*
X175250000Y-148374884D01*
X175287440Y-148190000D01*
X175287440Y-145190000D01*
X175243162Y-144954683D01*
X175167579Y-144837223D01*
X187227401Y-132777401D01*
X187392148Y-132530840D01*
X187450000Y-132240000D01*
X187450000Y-124774802D01*
X192084802Y-120140000D01*
X193747537Y-120140000D01*
X193779673Y-120172192D01*
X194123201Y-120314838D01*
X194495167Y-120315162D01*
X194838943Y-120173117D01*
X195102192Y-119910327D01*
X195244838Y-119566799D01*
X195245162Y-119194833D01*
X195103117Y-118851057D01*
X194840327Y-118587808D01*
X194496799Y-118445162D01*
X194124833Y-118444838D01*
X193781057Y-118586883D01*
X193747882Y-118620000D01*
X191770000Y-118620000D01*
X191479161Y-118677852D01*
X191232599Y-118842599D01*
X186152599Y-123922599D01*
X185987852Y-124169161D01*
X185930000Y-124460000D01*
X185930000Y-131925198D01*
X173452599Y-144402599D01*
X173312910Y-144611660D01*
X173256250Y-144555000D01*
X173213691Y-144555000D01*
X172980302Y-144651673D01*
X172801673Y-144830301D01*
X172705000Y-145063690D01*
X172705000Y-146404250D01*
X172863750Y-146563000D01*
X173192560Y-146563000D01*
X173192560Y-146817000D01*
X172863750Y-146817000D01*
X172705000Y-146975750D01*
X172705000Y-147835678D01*
X172492598Y-147977599D01*
X170222132Y-150248066D01*
X170483023Y-149857614D01*
X170577032Y-149385000D01*
X170483023Y-148912386D01*
X170215309Y-148511723D01*
X169814646Y-148244009D01*
X169342032Y-148150000D01*
X168477968Y-148150000D01*
X168005354Y-148244009D01*
X167604691Y-148511723D01*
X167336977Y-148912386D01*
X167242968Y-149385000D01*
X163270000Y-149385000D01*
X163270000Y-143287609D01*
X167316538Y-143287609D01*
X167320408Y-143325281D01*
X167546920Y-143753474D01*
X167920053Y-144062390D01*
X168383000Y-144205000D01*
X168783000Y-144205000D01*
X168783000Y-143097000D01*
X169037000Y-143097000D01*
X169037000Y-144205000D01*
X169437000Y-144205000D01*
X169899947Y-144062390D01*
X170273080Y-143753474D01*
X170499592Y-143325281D01*
X170503462Y-143287609D01*
X170378731Y-143097000D01*
X169037000Y-143097000D01*
X168783000Y-143097000D01*
X167441269Y-143097000D01*
X167316538Y-143287609D01*
X163270000Y-143287609D01*
X163270000Y-140970000D01*
X167242968Y-140970000D01*
X167336977Y-141442614D01*
X167604691Y-141843277D01*
X167802155Y-141975218D01*
X167546920Y-142186526D01*
X167320408Y-142614719D01*
X167316538Y-142652391D01*
X167441269Y-142843000D01*
X168783000Y-142843000D01*
X168783000Y-142823000D01*
X169037000Y-142823000D01*
X169037000Y-142843000D01*
X170378731Y-142843000D01*
X170503462Y-142652391D01*
X170499592Y-142614719D01*
X170273080Y-142186526D01*
X170017845Y-141975218D01*
X170215309Y-141843277D01*
X170483023Y-141442614D01*
X170577032Y-140970000D01*
X170483023Y-140497386D01*
X170215309Y-140096723D01*
X169814646Y-139829009D01*
X169342032Y-139735000D01*
X168477968Y-139735000D01*
X168005354Y-139829009D01*
X167604691Y-140096723D01*
X167336977Y-140497386D01*
X167242968Y-140970000D01*
X163270000Y-140970000D01*
X163270000Y-138706661D01*
X172592758Y-138706661D01*
X172804990Y-139220303D01*
X173197630Y-139613629D01*
X173710900Y-139826757D01*
X174266661Y-139827242D01*
X174780303Y-139615010D01*
X175173629Y-139222370D01*
X175386757Y-138709100D01*
X175387242Y-138153339D01*
X175175010Y-137639697D01*
X174782370Y-137246371D01*
X174269100Y-137033243D01*
X173713339Y-137032758D01*
X173199697Y-137244990D01*
X172806371Y-137637630D01*
X172593243Y-138150900D01*
X172592758Y-138706661D01*
X163270000Y-138706661D01*
X163270000Y-134302609D01*
X167316538Y-134302609D01*
X167320408Y-134340281D01*
X167546920Y-134768474D01*
X167920053Y-135077390D01*
X168383000Y-135220000D01*
X168783000Y-135220000D01*
X168783000Y-134112000D01*
X169037000Y-134112000D01*
X169037000Y-135220000D01*
X169437000Y-135220000D01*
X169899947Y-135077390D01*
X170273080Y-134768474D01*
X170499592Y-134340281D01*
X170503462Y-134302609D01*
X170378731Y-134112000D01*
X169037000Y-134112000D01*
X168783000Y-134112000D01*
X167441269Y-134112000D01*
X167316538Y-134302609D01*
X163270000Y-134302609D01*
X163270000Y-131985000D01*
X167242968Y-131985000D01*
X167336977Y-132457614D01*
X167604691Y-132858277D01*
X167802155Y-132990218D01*
X167546920Y-133201526D01*
X167320408Y-133629719D01*
X167316538Y-133667391D01*
X167441269Y-133858000D01*
X168783000Y-133858000D01*
X168783000Y-133838000D01*
X169037000Y-133838000D01*
X169037000Y-133858000D01*
X170378731Y-133858000D01*
X170503462Y-133667391D01*
X170499592Y-133629719D01*
X170273080Y-133201526D01*
X170017845Y-132990218D01*
X170215309Y-132858277D01*
X170483023Y-132457614D01*
X170577032Y-131985000D01*
X170483023Y-131512386D01*
X170215309Y-131111723D01*
X169814646Y-130844009D01*
X169643672Y-130810000D01*
X178288122Y-130810000D01*
X178431585Y-131531236D01*
X178840132Y-132142670D01*
X179451566Y-132551217D01*
X180172802Y-132694680D01*
X181777198Y-132694680D01*
X182498434Y-132551217D01*
X183109868Y-132142670D01*
X183518415Y-131531236D01*
X183661878Y-130810000D01*
X183518415Y-130088764D01*
X183109868Y-129477330D01*
X182498434Y-129068783D01*
X181777198Y-128925320D01*
X180172802Y-128925320D01*
X179451566Y-129068783D01*
X178840132Y-129477330D01*
X178431585Y-130088764D01*
X178288122Y-130810000D01*
X169643672Y-130810000D01*
X169342032Y-130750000D01*
X168477968Y-130750000D01*
X168005354Y-130844009D01*
X167604691Y-131111723D01*
X167336977Y-131512386D01*
X167242968Y-131985000D01*
X163270000Y-131985000D01*
X163270000Y-115015000D01*
X167242968Y-115015000D01*
X167336977Y-115487614D01*
X167604691Y-115888277D01*
X167794346Y-116015000D01*
X167604691Y-116141723D01*
X167336977Y-116542386D01*
X167242968Y-117015000D01*
X167336977Y-117487614D01*
X167604691Y-117888277D01*
X167794346Y-118015000D01*
X167604691Y-118141723D01*
X167336977Y-118542386D01*
X167242968Y-119015000D01*
X167336977Y-119487614D01*
X167604691Y-119888277D01*
X167794346Y-120015000D01*
X167604691Y-120141723D01*
X167336977Y-120542386D01*
X167242968Y-121015000D01*
X167336977Y-121487614D01*
X167604691Y-121888277D01*
X167794346Y-122015000D01*
X167604691Y-122141723D01*
X167336977Y-122542386D01*
X167242968Y-123015000D01*
X167336977Y-123487614D01*
X167604691Y-123888277D01*
X167794346Y-124015000D01*
X167604691Y-124141723D01*
X167336977Y-124542386D01*
X167242968Y-125015000D01*
X167336977Y-125487614D01*
X167604691Y-125888277D01*
X168005354Y-126155991D01*
X168477968Y-126250000D01*
X169342032Y-126250000D01*
X169814646Y-126155991D01*
X170215309Y-125888277D01*
X170483023Y-125487614D01*
X170577032Y-125015000D01*
X170483023Y-124542386D01*
X170215309Y-124141723D01*
X170025654Y-124015000D01*
X170215309Y-123888277D01*
X170483023Y-123487614D01*
X170577032Y-123015000D01*
X170483023Y-122542386D01*
X170215309Y-122141723D01*
X170025654Y-122015000D01*
X170215309Y-121888277D01*
X170290998Y-121775000D01*
X171640198Y-121775000D01*
X172057560Y-122192362D01*
X172057560Y-123415000D01*
X172101838Y-123650317D01*
X172240910Y-123866441D01*
X172453110Y-124011431D01*
X172705000Y-124062440D01*
X172724080Y-124062440D01*
X172817599Y-124202401D01*
X172892600Y-124277402D01*
X173139161Y-124442149D01*
X173187415Y-124451747D01*
X173430001Y-124500001D01*
X174265001Y-124500001D01*
X174555840Y-124442149D01*
X174802402Y-124277402D01*
X179607401Y-119472403D01*
X179772148Y-119225841D01*
X179830000Y-118935002D01*
X179830000Y-114422443D01*
X179862192Y-114390307D01*
X180004838Y-114046779D01*
X180005162Y-113674813D01*
X179863117Y-113331037D01*
X179600327Y-113067788D01*
X179256799Y-112925142D01*
X178884833Y-112924818D01*
X178541057Y-113066863D01*
X178277808Y-113329653D01*
X178135162Y-113673181D01*
X178134838Y-114045147D01*
X178276883Y-114388923D01*
X178310000Y-114422098D01*
X178310000Y-118620200D01*
X174640000Y-122290200D01*
X174640000Y-122200750D01*
X174481250Y-122042000D01*
X174152440Y-122042000D01*
X174152440Y-121788000D01*
X174481250Y-121788000D01*
X174640000Y-121629250D01*
X174640000Y-120585915D01*
X174802402Y-120477402D01*
X174867402Y-120412402D01*
X175032149Y-120165840D01*
X175090001Y-119875001D01*
X175090001Y-115275001D01*
X175032149Y-114984162D01*
X174925097Y-114823948D01*
X174925162Y-114749833D01*
X174783117Y-114406057D01*
X174520327Y-114142808D01*
X174176799Y-114000162D01*
X173804833Y-113999838D01*
X173461057Y-114141883D01*
X173197808Y-114404673D01*
X173055162Y-114748201D01*
X173054838Y-115120167D01*
X173196883Y-115463943D01*
X173262824Y-115529999D01*
X170885001Y-115529999D01*
X170594161Y-115587851D01*
X170347600Y-115752598D01*
X170222131Y-115878067D01*
X170483023Y-115487614D01*
X170577032Y-115015000D01*
X170483023Y-114542386D01*
X170215309Y-114141723D01*
X169814646Y-113874009D01*
X169342032Y-113780000D01*
X168477968Y-113780000D01*
X168005354Y-113874009D01*
X167604691Y-114141723D01*
X167336977Y-114542386D01*
X167242968Y-115015000D01*
X163270000Y-115015000D01*
X163270000Y-109347000D01*
X169304617Y-109347000D01*
X168938172Y-109591851D01*
X168938172Y-109591851D01*
G37*
X168938172Y-109591851D02*
X168635340Y-110045070D01*
X168529000Y-110579679D01*
X168529000Y-111670321D01*
X168635340Y-112204930D01*
X168938172Y-112658149D01*
X169391391Y-112960981D01*
X169926000Y-113067321D01*
X170460609Y-112960981D01*
X170913828Y-112658149D01*
X171205330Y-112221887D01*
X171223941Y-112284941D01*
X171567974Y-112710630D01*
X172048723Y-112972260D01*
X172122930Y-112987220D01*
X172339000Y-112864720D01*
X172339000Y-111252000D01*
X172319000Y-111252000D01*
X172319000Y-110998000D01*
X172339000Y-110998000D01*
X172339000Y-110978000D01*
X172593000Y-110978000D01*
X172593000Y-110998000D01*
X172613000Y-110998000D01*
X172613000Y-111252000D01*
X172593000Y-111252000D01*
X172593000Y-112864720D01*
X172809070Y-112987220D01*
X172883277Y-112972260D01*
X173364026Y-112710630D01*
X173708059Y-112284941D01*
X173726670Y-112221887D01*
X174018172Y-112658149D01*
X174471391Y-112960981D01*
X175006000Y-113067321D01*
X175540609Y-112960981D01*
X175993828Y-112658149D01*
X176276000Y-112235850D01*
X176558172Y-112658149D01*
X177011391Y-112960981D01*
X177546000Y-113067321D01*
X178080609Y-112960981D01*
X178533828Y-112658149D01*
X178816000Y-112235850D01*
X179098172Y-112658149D01*
X179551391Y-112960981D01*
X180086000Y-113067321D01*
X180620609Y-112960981D01*
X181073828Y-112658149D01*
X181356000Y-112235850D01*
X181638172Y-112658149D01*
X182091391Y-112960981D01*
X182626000Y-113067321D01*
X183160609Y-112960981D01*
X183613828Y-112658149D01*
X183896000Y-112235850D01*
X184178172Y-112658149D01*
X184631391Y-112960981D01*
X185166000Y-113067321D01*
X185700609Y-112960981D01*
X186153828Y-112658149D01*
X186436000Y-112235850D01*
X186718172Y-112658149D01*
X187171391Y-112960981D01*
X187706000Y-113067321D01*
X188240609Y-112960981D01*
X188693828Y-112658149D01*
X188996660Y-112204930D01*
X189103000Y-111670321D01*
X189103000Y-110579679D01*
X188996660Y-110045070D01*
X188693828Y-109591851D01*
X188327383Y-109347000D01*
X191148617Y-109347000D01*
X190782172Y-109591851D01*
X190479340Y-110045070D01*
X190373000Y-110579679D01*
X190373000Y-111670321D01*
X190479340Y-112204930D01*
X190782172Y-112658149D01*
X191235391Y-112960981D01*
X191770000Y-113067321D01*
X192304609Y-112960981D01*
X192757828Y-112658149D01*
X193040000Y-112235850D01*
X193322172Y-112658149D01*
X193775391Y-112960981D01*
X194310000Y-113067321D01*
X194844609Y-112960981D01*
X195297828Y-112658149D01*
X195580000Y-112235850D01*
X195862172Y-112658149D01*
X196315391Y-112960981D01*
X196850000Y-113067321D01*
X197384609Y-112960981D01*
X197837828Y-112658149D01*
X198120000Y-112235850D01*
X198402172Y-112658149D01*
X198855391Y-112960981D01*
X199390000Y-113067321D01*
X199924609Y-112960981D01*
X200377828Y-112658149D01*
X200660000Y-112235850D01*
X200942172Y-112658149D01*
X201395391Y-112960981D01*
X201930000Y-113067321D01*
X202464609Y-112960981D01*
X202917828Y-112658149D01*
X203200000Y-112235850D01*
X203482172Y-112658149D01*
X203935391Y-112960981D01*
X204470000Y-113067321D01*
X205004609Y-112960981D01*
X205457828Y-112658149D01*
X205740000Y-112235850D01*
X206022172Y-112658149D01*
X206475391Y-112960981D01*
X207010000Y-113067321D01*
X207544609Y-112960981D01*
X207997828Y-112658149D01*
X208280000Y-112235850D01*
X208562172Y-112658149D01*
X209015391Y-112960981D01*
X209550000Y-113067321D01*
X210084609Y-112960981D01*
X210537828Y-112658149D01*
X210840660Y-112204930D01*
X210947000Y-111670321D01*
X210947000Y-110579679D01*
X210840660Y-110045070D01*
X210537828Y-109591851D01*
X210171383Y-109347000D01*
X210577908Y-109347000D01*
X211328000Y-110097092D01*
X211328000Y-121285000D01*
X211338006Y-121334410D01*
X211365197Y-121374803D01*
X211405974Y-121415580D01*
X211434046Y-121556705D01*
X211587954Y-121787046D01*
X213868000Y-124067091D01*
X213868000Y-156157394D01*
X211365197Y-158660197D01*
X211337334Y-158702211D01*
X211328000Y-158750000D01*
X211328000Y-161163000D01*
X210171383Y-161163000D01*
X210537828Y-160918149D01*
X210840660Y-160464930D01*
X210947000Y-159930321D01*
X210947000Y-158839679D01*
X210840660Y-158305070D01*
X210537828Y-157851851D01*
X210084609Y-157549019D01*
X209550000Y-157442679D01*
X209015391Y-157549019D01*
X208562172Y-157851851D01*
X208280000Y-158274150D01*
X207997828Y-157851851D01*
X207544609Y-157549019D01*
X207010000Y-157442679D01*
X206475391Y-157549019D01*
X206022172Y-157851851D01*
X205740000Y-158274150D01*
X205457828Y-157851851D01*
X205004609Y-157549019D01*
X204470000Y-157442679D01*
X203935391Y-157549019D01*
X203482172Y-157851851D01*
X203200000Y-158274150D01*
X202917828Y-157851851D01*
X202464609Y-157549019D01*
X201930000Y-157442679D01*
X201395391Y-157549019D01*
X200942172Y-157851851D01*
X200660000Y-158274150D01*
X200377828Y-157851851D01*
X199924609Y-157549019D01*
X199390000Y-157442679D01*
X198855391Y-157549019D01*
X198402172Y-157851851D01*
X198120000Y-158274150D01*
X197837828Y-157851851D01*
X197384609Y-157549019D01*
X196850000Y-157442679D01*
X196315391Y-157549019D01*
X195862172Y-157851851D01*
X195559340Y-158305070D01*
X195453000Y-158839679D01*
X195453000Y-159930321D01*
X195559340Y-160464930D01*
X195862172Y-160918149D01*
X196228617Y-161163000D01*
X192391383Y-161163000D01*
X192757828Y-160918149D01*
X193060660Y-160464930D01*
X193167000Y-159930321D01*
X193167000Y-158839679D01*
X193060660Y-158305070D01*
X192757828Y-157851851D01*
X192304609Y-157549019D01*
X191770000Y-157442679D01*
X191235391Y-157549019D01*
X190782172Y-157851851D01*
X190490670Y-158288113D01*
X190472059Y-158225059D01*
X190128026Y-157799370D01*
X189647277Y-157537740D01*
X189573070Y-157522780D01*
X189357000Y-157645280D01*
X189357000Y-159258000D01*
X189377000Y-159258000D01*
X189377000Y-159512000D01*
X189357000Y-159512000D01*
X189357000Y-159532000D01*
X189103000Y-159532000D01*
X189103000Y-159512000D01*
X186817000Y-159512000D01*
X186817000Y-159532000D01*
X186563000Y-159532000D01*
X186563000Y-159512000D01*
X186543000Y-159512000D01*
X186543000Y-159258000D01*
X186563000Y-159258000D01*
X186563000Y-157645280D01*
X186817000Y-157645280D01*
X186817000Y-159258000D01*
X189103000Y-159258000D01*
X189103000Y-157645280D01*
X188886930Y-157522780D01*
X188812723Y-157537740D01*
X188331974Y-157799370D01*
X187987941Y-158225059D01*
X187960000Y-158319723D01*
X187932059Y-158225059D01*
X187588026Y-157799370D01*
X187107277Y-157537740D01*
X187033070Y-157522780D01*
X186817000Y-157645280D01*
X186563000Y-157645280D01*
X186346930Y-157522780D01*
X186272723Y-157537740D01*
X185791974Y-157799370D01*
X185447941Y-158225059D01*
X185429330Y-158288113D01*
X185137828Y-157851851D01*
X184684609Y-157549019D01*
X184150000Y-157442679D01*
X183615391Y-157549019D01*
X183162172Y-157851851D01*
X182880000Y-158274150D01*
X182597828Y-157851851D01*
X182144609Y-157549019D01*
X181610000Y-157442679D01*
X181075391Y-157549019D01*
X180622172Y-157851851D01*
X180340000Y-158274150D01*
X180057828Y-157851851D01*
X179604609Y-157549019D01*
X179070000Y-157442679D01*
X178535391Y-157549019D01*
X178082172Y-157851851D01*
X177779340Y-158305070D01*
X177673000Y-158839679D01*
X177673000Y-159930321D01*
X177779340Y-160464930D01*
X178082172Y-160918149D01*
X178448617Y-161163000D01*
X163270000Y-161163000D01*
X163270000Y-149385000D01*
X167242968Y-149385000D01*
X167336977Y-149857614D01*
X167604691Y-150258277D01*
X167794346Y-150385000D01*
X167604691Y-150511723D01*
X167336977Y-150912386D01*
X167242968Y-151385000D01*
X167336977Y-151857614D01*
X167604691Y-152258277D01*
X167794346Y-152385000D01*
X167604691Y-152511723D01*
X167336977Y-152912386D01*
X167242968Y-153385000D01*
X167336977Y-153857614D01*
X167604691Y-154258277D01*
X167794346Y-154385000D01*
X167604691Y-154511723D01*
X167336977Y-154912386D01*
X167242968Y-155385000D01*
X167336977Y-155857614D01*
X167604691Y-156258277D01*
X167794346Y-156385000D01*
X167604691Y-156511723D01*
X167336977Y-156912386D01*
X167242968Y-157385000D01*
X167336977Y-157857614D01*
X167604691Y-158258277D01*
X167794346Y-158385000D01*
X167604691Y-158511723D01*
X167336977Y-158912386D01*
X167242968Y-159385000D01*
X167336977Y-159857614D01*
X167604691Y-160258277D01*
X168005354Y-160525991D01*
X168477968Y-160620000D01*
X169342032Y-160620000D01*
X169814646Y-160525991D01*
X170215309Y-160258277D01*
X170290998Y-160145000D01*
X173356410Y-160145000D01*
X173647249Y-160087148D01*
X173893811Y-159922401D01*
X177905999Y-155910213D01*
X210689392Y-155910213D01*
X210758857Y-156152397D01*
X211282302Y-156339144D01*
X211837368Y-156311362D01*
X212221143Y-156152397D01*
X212290608Y-155910213D01*
X211490000Y-155109605D01*
X210689392Y-155910213D01*
X177905999Y-155910213D01*
X179093910Y-154722302D01*
X210080856Y-154722302D01*
X210108638Y-155277368D01*
X210267603Y-155661143D01*
X210509787Y-155730608D01*
X211310395Y-154930000D01*
X211669605Y-154930000D01*
X212470213Y-155730608D01*
X212712397Y-155661143D01*
X212899144Y-155137698D01*
X212871362Y-154582632D01*
X212712397Y-154198857D01*
X212470213Y-154129392D01*
X211669605Y-154930000D01*
X211310395Y-154930000D01*
X210509787Y-154129392D01*
X210267603Y-154198857D01*
X210080856Y-154722302D01*
X179093910Y-154722302D01*
X179866425Y-153949787D01*
X210689392Y-153949787D01*
X211490000Y-154750395D01*
X212290608Y-153949787D01*
X212221143Y-153707603D01*
X211697698Y-153520856D01*
X211142632Y-153548638D01*
X210758857Y-153707603D01*
X210689392Y-153949787D01*
X179866425Y-153949787D01*
X195109551Y-138706661D01*
X210092758Y-138706661D01*
X210304990Y-139220303D01*
X210697630Y-139613629D01*
X211210900Y-139826757D01*
X211766661Y-139827242D01*
X212280303Y-139615010D01*
X212673629Y-139222370D01*
X212886757Y-138709100D01*
X212887242Y-138153339D01*
X212675010Y-137639697D01*
X212282370Y-137246371D01*
X211769100Y-137033243D01*
X211213339Y-137032758D01*
X210699697Y-137244990D01*
X210306371Y-137637630D01*
X210093243Y-138150900D01*
X210092758Y-138706661D01*
X195109551Y-138706661D01*
X199927401Y-133888811D01*
X200092148Y-133642249D01*
X200150000Y-133351410D01*
X200150000Y-130810000D01*
X200289602Y-130810000D01*
X200433065Y-131531236D01*
X200841612Y-132142670D01*
X201453046Y-132551217D01*
X202174282Y-132694680D01*
X203778678Y-132694680D01*
X204499914Y-132551217D01*
X205111348Y-132142670D01*
X205519895Y-131531236D01*
X205663358Y-130810000D01*
X205519895Y-130088764D01*
X205111348Y-129477330D01*
X204499914Y-129068783D01*
X203778678Y-128925320D01*
X202174282Y-128925320D01*
X201453046Y-129068783D01*
X200841612Y-129477330D01*
X200433065Y-130088764D01*
X200289602Y-130810000D01*
X200150000Y-130810000D01*
X200150000Y-126927463D01*
X200182192Y-126895327D01*
X200324838Y-126551799D01*
X200325162Y-126179833D01*
X200183117Y-125836057D01*
X199920327Y-125572808D01*
X199576799Y-125430162D01*
X199204833Y-125429838D01*
X198880000Y-125564056D01*
X198880000Y-122482463D01*
X198912192Y-122450327D01*
X199054838Y-122106799D01*
X199055162Y-121734833D01*
X198913117Y-121391057D01*
X198650327Y-121127808D01*
X198306799Y-120985162D01*
X197934833Y-120984838D01*
X197591057Y-121126883D01*
X197327808Y-121389673D01*
X197185162Y-121733201D01*
X197184838Y-122105167D01*
X197326883Y-122448943D01*
X197360000Y-122482118D01*
X197360000Y-133670198D01*
X174405198Y-156625000D01*
X170290998Y-156625000D01*
X170215309Y-156511723D01*
X170025654Y-156385000D01*
X170215309Y-156258277D01*
X170405320Y-155973905D01*
X170482401Y-155922401D01*
X170494589Y-155910213D01*
X173189392Y-155910213D01*
X173258857Y-156152397D01*
X173782302Y-156339144D01*
X174337368Y-156311362D01*
X174721143Y-156152397D01*
X174790608Y-155910213D01*
X173990000Y-155109605D01*
X173189392Y-155910213D01*
X170494589Y-155910213D01*
X171682500Y-154722302D01*
X172580856Y-154722302D01*
X172608638Y-155277368D01*
X172767603Y-155661143D01*
X173009787Y-155730608D01*
X173810395Y-154930000D01*
X174169605Y-154930000D01*
X174970213Y-155730608D01*
X175212397Y-155661143D01*
X175399144Y-155137698D01*
X175371362Y-154582632D01*
X175212397Y-154198857D01*
X174970213Y-154129392D01*
X174169605Y-154930000D01*
X173810395Y-154930000D01*
X173009787Y-154129392D01*
X172767603Y-154198857D01*
X172580856Y-154722302D01*
X171682500Y-154722302D01*
X172455015Y-153949787D01*
X173189392Y-153949787D01*
X173990000Y-154750395D01*
X174790608Y-153949787D01*
X174721143Y-153707603D01*
X174197698Y-153520856D01*
X173642632Y-153548638D01*
X173258857Y-153707603D01*
X173189392Y-153949787D01*
X172455015Y-153949787D01*
X173542467Y-152862335D01*
X173774161Y-153017149D01*
X173822415Y-153026747D01*
X174065001Y-153075001D01*
X174900001Y-153075001D01*
X175190840Y-153017149D01*
X175437402Y-152852402D01*
X194212401Y-134077403D01*
X194377148Y-133830842D01*
X194435000Y-133540002D01*
X194435000Y-127635000D01*
X194377148Y-127344161D01*
X194377148Y-127344160D01*
X194212401Y-127097599D01*
X193340122Y-126225320D01*
X193340162Y-126179833D01*
X193198117Y-125836057D01*
X192935327Y-125572808D01*
X192591799Y-125430162D01*
X192219833Y-125429838D01*
X191876057Y-125571883D01*
X191612808Y-125834673D01*
X191470162Y-126178201D01*
X191469838Y-126550167D01*
X191611883Y-126893943D01*
X191874673Y-127157192D01*
X192218201Y-127299838D01*
X192265077Y-127299879D01*
X192915000Y-127949802D01*
X192915000Y-133225200D01*
X175275000Y-150865200D01*
X175275000Y-150775750D01*
X175116250Y-150617000D01*
X174787440Y-150617000D01*
X174787440Y-150363000D01*
X175116250Y-150363000D01*
X175275000Y-150204250D01*
X175275000Y-148863690D01*
X175201175Y-148685460D01*
X175207414Y-148654090D01*
X175250000Y-148440000D01*
X175250000Y-148374884D01*
X175287440Y-148190000D01*
X175287440Y-145190000D01*
X175243162Y-144954683D01*
X175167579Y-144837223D01*
X187227401Y-132777401D01*
X187392148Y-132530840D01*
X187450000Y-132240000D01*
X187450000Y-124774802D01*
X192084802Y-120140000D01*
X193747537Y-120140000D01*
X193779673Y-120172192D01*
X194123201Y-120314838D01*
X194495167Y-120315162D01*
X194838943Y-120173117D01*
X195102192Y-119910327D01*
X195244838Y-119566799D01*
X195245162Y-119194833D01*
X195103117Y-118851057D01*
X194840327Y-118587808D01*
X194496799Y-118445162D01*
X194124833Y-118444838D01*
X193781057Y-118586883D01*
X193747882Y-118620000D01*
X191770000Y-118620000D01*
X191479161Y-118677852D01*
X191232599Y-118842599D01*
X186152599Y-123922599D01*
X185987852Y-124169161D01*
X185930000Y-124460000D01*
X185930000Y-131925198D01*
X173452599Y-144402599D01*
X173312910Y-144611660D01*
X173256250Y-144555000D01*
X173213691Y-144555000D01*
X172980302Y-144651673D01*
X172801673Y-144830301D01*
X172705000Y-145063690D01*
X172705000Y-146404250D01*
X172863750Y-146563000D01*
X173192560Y-146563000D01*
X173192560Y-146817000D01*
X172863750Y-146817000D01*
X172705000Y-146975750D01*
X172705000Y-147835678D01*
X172492598Y-147977599D01*
X170222132Y-150248066D01*
X170483023Y-149857614D01*
X170577032Y-149385000D01*
X170483023Y-148912386D01*
X170215309Y-148511723D01*
X169814646Y-148244009D01*
X169342032Y-148150000D01*
X168477968Y-148150000D01*
X168005354Y-148244009D01*
X167604691Y-148511723D01*
X167336977Y-148912386D01*
X167242968Y-149385000D01*
X163270000Y-149385000D01*
X163270000Y-143287609D01*
X167316538Y-143287609D01*
X167320408Y-143325281D01*
X167546920Y-143753474D01*
X167920053Y-144062390D01*
X168383000Y-144205000D01*
X168783000Y-144205000D01*
X168783000Y-143097000D01*
X169037000Y-143097000D01*
X169037000Y-144205000D01*
X169437000Y-144205000D01*
X169899947Y-144062390D01*
X170273080Y-143753474D01*
X170499592Y-143325281D01*
X170503462Y-143287609D01*
X170378731Y-143097000D01*
X169037000Y-143097000D01*
X168783000Y-143097000D01*
X167441269Y-143097000D01*
X167316538Y-143287609D01*
X163270000Y-143287609D01*
X163270000Y-140970000D01*
X167242968Y-140970000D01*
X167336977Y-141442614D01*
X167604691Y-141843277D01*
X167802155Y-141975218D01*
X167546920Y-142186526D01*
X167320408Y-142614719D01*
X167316538Y-142652391D01*
X167441269Y-142843000D01*
X168783000Y-142843000D01*
X168783000Y-142823000D01*
X169037000Y-142823000D01*
X169037000Y-142843000D01*
X170378731Y-142843000D01*
X170503462Y-142652391D01*
X170499592Y-142614719D01*
X170273080Y-142186526D01*
X170017845Y-141975218D01*
X170215309Y-141843277D01*
X170483023Y-141442614D01*
X170577032Y-140970000D01*
X170483023Y-140497386D01*
X170215309Y-140096723D01*
X169814646Y-139829009D01*
X169342032Y-139735000D01*
X168477968Y-139735000D01*
X168005354Y-139829009D01*
X167604691Y-140096723D01*
X167336977Y-140497386D01*
X167242968Y-140970000D01*
X163270000Y-140970000D01*
X163270000Y-138706661D01*
X172592758Y-138706661D01*
X172804990Y-139220303D01*
X173197630Y-139613629D01*
X173710900Y-139826757D01*
X174266661Y-139827242D01*
X174780303Y-139615010D01*
X175173629Y-139222370D01*
X175386757Y-138709100D01*
X175387242Y-138153339D01*
X175175010Y-137639697D01*
X174782370Y-137246371D01*
X174269100Y-137033243D01*
X173713339Y-137032758D01*
X173199697Y-137244990D01*
X172806371Y-137637630D01*
X172593243Y-138150900D01*
X172592758Y-138706661D01*
X163270000Y-138706661D01*
X163270000Y-134302609D01*
X167316538Y-134302609D01*
X167320408Y-134340281D01*
X167546920Y-134768474D01*
X167920053Y-135077390D01*
X168383000Y-135220000D01*
X168783000Y-135220000D01*
X168783000Y-134112000D01*
X169037000Y-134112000D01*
X169037000Y-135220000D01*
X169437000Y-135220000D01*
X169899947Y-135077390D01*
X170273080Y-134768474D01*
X170499592Y-134340281D01*
X170503462Y-134302609D01*
X170378731Y-134112000D01*
X169037000Y-134112000D01*
X168783000Y-134112000D01*
X167441269Y-134112000D01*
X167316538Y-134302609D01*
X163270000Y-134302609D01*
X163270000Y-131985000D01*
X167242968Y-131985000D01*
X167336977Y-132457614D01*
X167604691Y-132858277D01*
X167802155Y-132990218D01*
X167546920Y-133201526D01*
X167320408Y-133629719D01*
X167316538Y-133667391D01*
X167441269Y-133858000D01*
X168783000Y-133858000D01*
X168783000Y-133838000D01*
X169037000Y-133838000D01*
X169037000Y-133858000D01*
X170378731Y-133858000D01*
X170503462Y-133667391D01*
X170499592Y-133629719D01*
X170273080Y-133201526D01*
X170017845Y-132990218D01*
X170215309Y-132858277D01*
X170483023Y-132457614D01*
X170577032Y-131985000D01*
X170483023Y-131512386D01*
X170215309Y-131111723D01*
X169814646Y-130844009D01*
X169643672Y-130810000D01*
X178288122Y-130810000D01*
X178431585Y-131531236D01*
X178840132Y-132142670D01*
X179451566Y-132551217D01*
X180172802Y-132694680D01*
X181777198Y-132694680D01*
X182498434Y-132551217D01*
X183109868Y-132142670D01*
X183518415Y-131531236D01*
X183661878Y-130810000D01*
X183518415Y-130088764D01*
X183109868Y-129477330D01*
X182498434Y-129068783D01*
X181777198Y-128925320D01*
X180172802Y-128925320D01*
X179451566Y-129068783D01*
X178840132Y-129477330D01*
X178431585Y-130088764D01*
X178288122Y-130810000D01*
X169643672Y-130810000D01*
X169342032Y-130750000D01*
X168477968Y-130750000D01*
X168005354Y-130844009D01*
X167604691Y-131111723D01*
X167336977Y-131512386D01*
X167242968Y-131985000D01*
X163270000Y-131985000D01*
X163270000Y-115015000D01*
X167242968Y-115015000D01*
X167336977Y-115487614D01*
X167604691Y-115888277D01*
X167794346Y-116015000D01*
X167604691Y-116141723D01*
X167336977Y-116542386D01*
X167242968Y-117015000D01*
X167336977Y-117487614D01*
X167604691Y-117888277D01*
X167794346Y-118015000D01*
X167604691Y-118141723D01*
X167336977Y-118542386D01*
X167242968Y-119015000D01*
X167336977Y-119487614D01*
X167604691Y-119888277D01*
X167794346Y-120015000D01*
X167604691Y-120141723D01*
X167336977Y-120542386D01*
X167242968Y-121015000D01*
X167336977Y-121487614D01*
X167604691Y-121888277D01*
X167794346Y-122015000D01*
X167604691Y-122141723D01*
X167336977Y-122542386D01*
X167242968Y-123015000D01*
X167336977Y-123487614D01*
X167604691Y-123888277D01*
X167794346Y-124015000D01*
X167604691Y-124141723D01*
X167336977Y-124542386D01*
X167242968Y-125015000D01*
X167336977Y-125487614D01*
X167604691Y-125888277D01*
X168005354Y-126155991D01*
X168477968Y-126250000D01*
X169342032Y-126250000D01*
X169814646Y-126155991D01*
X170215309Y-125888277D01*
X170483023Y-125487614D01*
X170577032Y-125015000D01*
X170483023Y-124542386D01*
X170215309Y-124141723D01*
X170025654Y-124015000D01*
X170215309Y-123888277D01*
X170483023Y-123487614D01*
X170577032Y-123015000D01*
X170483023Y-122542386D01*
X170215309Y-122141723D01*
X170025654Y-122015000D01*
X170215309Y-121888277D01*
X170290998Y-121775000D01*
X171640198Y-121775000D01*
X172057560Y-122192362D01*
X172057560Y-123415000D01*
X172101838Y-123650317D01*
X172240910Y-123866441D01*
X172453110Y-124011431D01*
X172705000Y-124062440D01*
X172724080Y-124062440D01*
X172817599Y-124202401D01*
X172892600Y-124277402D01*
X173139161Y-124442149D01*
X173187415Y-124451747D01*
X173430001Y-124500001D01*
X174265001Y-124500001D01*
X174555840Y-124442149D01*
X174802402Y-124277402D01*
X179607401Y-119472403D01*
X179772148Y-119225841D01*
X179830000Y-118935002D01*
X179830000Y-114422443D01*
X179862192Y-114390307D01*
X180004838Y-114046779D01*
X180005162Y-113674813D01*
X179863117Y-113331037D01*
X179600327Y-113067788D01*
X179256799Y-112925142D01*
X178884833Y-112924818D01*
X178541057Y-113066863D01*
X178277808Y-113329653D01*
X178135162Y-113673181D01*
X178134838Y-114045147D01*
X178276883Y-114388923D01*
X178310000Y-114422098D01*
X178310000Y-118620200D01*
X174640000Y-122290200D01*
X174640000Y-122200750D01*
X174481250Y-122042000D01*
X174152440Y-122042000D01*
X174152440Y-121788000D01*
X174481250Y-121788000D01*
X174640000Y-121629250D01*
X174640000Y-120585915D01*
X174802402Y-120477402D01*
X174867402Y-120412402D01*
X175032149Y-120165840D01*
X175090001Y-119875001D01*
X175090001Y-115275001D01*
X175032149Y-114984162D01*
X174925097Y-114823948D01*
X174925162Y-114749833D01*
X174783117Y-114406057D01*
X174520327Y-114142808D01*
X174176799Y-114000162D01*
X173804833Y-113999838D01*
X173461057Y-114141883D01*
X173197808Y-114404673D01*
X173055162Y-114748201D01*
X173054838Y-115120167D01*
X173196883Y-115463943D01*
X173262824Y-115529999D01*
X170885001Y-115529999D01*
X170594161Y-115587851D01*
X170347600Y-115752598D01*
X170222131Y-115878067D01*
X170483023Y-115487614D01*
X170577032Y-115015000D01*
X170483023Y-114542386D01*
X170215309Y-114141723D01*
X169814646Y-113874009D01*
X169342032Y-113780000D01*
X168477968Y-113780000D01*
X168005354Y-113874009D01*
X167604691Y-114141723D01*
X167336977Y-114542386D01*
X167242968Y-115015000D01*
X163270000Y-115015000D01*
X163270000Y-109347000D01*
X169304617Y-109347000D01*
X168938172Y-109591851D01*
G36*
X172070000Y-117829250D02*
X172228750Y-117988000D01*
X172557560Y-117988000D01*
X172557560Y-118242000D01*
X172228750Y-118242000D01*
X172070000Y-118400750D01*
X172070000Y-119741310D01*
X172166673Y-119974699D01*
X172208634Y-120016660D01*
X172108569Y-120163110D01*
X172084735Y-120280806D01*
X171955000Y-120255000D01*
X170290998Y-120255000D01*
X170215309Y-120141723D01*
X170025654Y-120015000D01*
X170215309Y-119888277D01*
X170483023Y-119487614D01*
X170577032Y-119015000D01*
X170483023Y-118542386D01*
X170215309Y-118141723D01*
X170025654Y-118015000D01*
X170215309Y-117888277D01*
X170311078Y-117744948D01*
X170450839Y-117717148D01*
X170697401Y-117552401D01*
X171199803Y-117049999D01*
X172070000Y-117049999D01*
X172070000Y-117829250D01*
X172070000Y-117829250D01*
G37*
X172070000Y-117829250D02*
X172228750Y-117988000D01*
X172557560Y-117988000D01*
X172557560Y-118242000D01*
X172228750Y-118242000D01*
X172070000Y-118400750D01*
X172070000Y-119741310D01*
X172166673Y-119974699D01*
X172208634Y-120016660D01*
X172108569Y-120163110D01*
X172084735Y-120280806D01*
X171955000Y-120255000D01*
X170290998Y-120255000D01*
X170215309Y-120141723D01*
X170025654Y-120015000D01*
X170215309Y-119888277D01*
X170483023Y-119487614D01*
X170577032Y-119015000D01*
X170483023Y-118542386D01*
X170215309Y-118141723D01*
X170025654Y-118015000D01*
X170215309Y-117888277D01*
X170311078Y-117744948D01*
X170450839Y-117717148D01*
X170697401Y-117552401D01*
X171199803Y-117049999D01*
X172070000Y-117049999D01*
X172070000Y-117829250D01*
M02*
