M48
METRIC,TZ
T1C0.701
T2C0.762
T3C0.800
T4C0.813
T5C1.501
%
G90
G05
T1
X167005Y-64770
X167005Y-74930
X167005Y-79375
X167005Y-89535
T2
X166380Y-59470
X166380Y-96970
X182880Y-59470
X182880Y-96970
T3
X160655Y-61500
X160655Y-63500
X160655Y-72470
X160655Y-74470
X160655Y-76470
X160655Y-78470
X160655Y-80470
X160655Y-82470
X160655Y-92075
X160655Y-94075
X173355Y-66040
X173355Y-88265
X179705Y-66040
X179705Y-88265
X207645Y-76370
T4
X172377Y-54204
X174917Y-54204
X177457Y-54204
X179997Y-54204
X181521Y-102464
X182537Y-54204
X184061Y-102464
X185077Y-54204
X186601Y-102464
X187617Y-54204
X189141Y-102464
X190157Y-54204
X191681Y-102464
X194221Y-54204
X194221Y-102464
X196761Y-54204
X199301Y-54204
X199301Y-102464
X201841Y-54204
X201841Y-102464
X204381Y-54204
X204381Y-102464
X206921Y-54204
X206921Y-102464
X209461Y-54204
X209461Y-102464
X212001Y-54204
X212001Y-102464
T5
X191135Y-59484
X191135Y-81486
T0
M30
