G04 #@! TF.FileFunction,Copper,L2,Bot,Signal*
%FSLAX46Y46*%
G04 Gerber Fmt 4.6, Leading zero omitted, Abs format (unit mm)*
G04 Created by KiCad (PCBNEW 4.0.1-stable) date Friday, 17 June 2016 'pmt' 14:47:11*
%MOMM*%
G01*
G04 APERTURE LIST*
%ADD10C,0.100000*%
%ADD11R,1.200000X0.900000*%
%ADD12C,1.699260*%
%ADD13R,1.699260X1.699260*%
%ADD14O,2.499360X4.000500*%
%ADD15O,2.000000X1.200000*%
%ADD16R,1.800860X0.800100*%
%ADD17R,1.651000X3.048000*%
%ADD18R,6.096000X6.096000*%
%ADD19O,1.524000X2.540000*%
%ADD20C,1.524000*%
%ADD21C,1.000000*%
%ADD22C,1.000000*%
%ADD23C,0.250000*%
%ADD24C,0.254000*%
G04 APERTURE END LIST*
D10*
D11*
X169250000Y-59690000D03*
X171450000Y-59690000D03*
D12*
X167005000Y-64770000D03*
D13*
X167005000Y-74930000D03*
D12*
X167005000Y-89535000D03*
D13*
X167005000Y-79375000D03*
D14*
X191135000Y-81485740D03*
X191135000Y-59484260D03*
D15*
X160655000Y-61500000D03*
X160655000Y-63500000D03*
X160655000Y-92075000D03*
X160655000Y-94075000D03*
X160655000Y-72470000D03*
X160655000Y-74470000D03*
X160655000Y-76470000D03*
X160655000Y-78470000D03*
X160655000Y-80470000D03*
X160655000Y-82470000D03*
D16*
X174856140Y-61280000D03*
X174856140Y-63180000D03*
X171853860Y-62230000D03*
D17*
X171069000Y-66040000D03*
D18*
X173355000Y-72390000D03*
D17*
X175641000Y-66040000D03*
D16*
X171853860Y-93025000D03*
X171853860Y-91125000D03*
X174856140Y-92075000D03*
D17*
X175641000Y-88265000D03*
D18*
X173355000Y-81915000D03*
D17*
X171069000Y-88265000D03*
D11*
X177335000Y-59690000D03*
X179535000Y-59690000D03*
X169080000Y-95885000D03*
X171280000Y-95885000D03*
X176700000Y-95885000D03*
X178900000Y-95885000D03*
D19*
X212001100Y-102463600D03*
X209461100Y-102463600D03*
X206921100Y-102463600D03*
X199301100Y-102463600D03*
X201841100Y-102463600D03*
X204381100Y-102463600D03*
X194221100Y-102463600D03*
X191681100Y-102463600D03*
X189141100Y-102463600D03*
X184061100Y-102463600D03*
X181521100Y-102463600D03*
X212001100Y-54203600D03*
X209461100Y-54203600D03*
X206921100Y-54203600D03*
X204381100Y-54203600D03*
X201841100Y-54203600D03*
X199301100Y-54203600D03*
X196761100Y-54203600D03*
X194221100Y-54203600D03*
X190157100Y-54203600D03*
X187617100Y-54203600D03*
X185077100Y-54203600D03*
X182537100Y-54203600D03*
X179997100Y-54203600D03*
X177457100Y-54203600D03*
X174917100Y-54203600D03*
X172377100Y-54203600D03*
X186601100Y-102463600D03*
D20*
X182880000Y-59470000D03*
X182880000Y-96970000D03*
X166380000Y-96970000D03*
X166380000Y-59470000D03*
D21*
X179705000Y-66040000D03*
X173355000Y-66040000D03*
X179705000Y-88265000D03*
X173355000Y-88265000D03*
X207645000Y-76370000D03*
D22*
X171069000Y-88265000D02*
X173355000Y-88265000D01*
X160655000Y-74470000D02*
X162655000Y-74470000D01*
X162655000Y-74470000D02*
X167005000Y-70120000D01*
X167005000Y-70120000D02*
X167005000Y-70088000D01*
X173355000Y-72390000D02*
X169307000Y-72390000D01*
X169307000Y-72390000D02*
X167005000Y-70088000D01*
X167005000Y-70088000D02*
X167005000Y-64770000D01*
X160655000Y-76470000D02*
X160416509Y-76470000D01*
X160416509Y-76470000D02*
X158954990Y-77931519D01*
X158954990Y-77931519D02*
X158954990Y-94613481D01*
X175100000Y-95885000D02*
X176700000Y-95885000D01*
X158954990Y-94613481D02*
X162773510Y-98432001D01*
X172552999Y-98432001D02*
X175100000Y-95885000D01*
X162773510Y-98432001D02*
X172552999Y-98432001D01*
X160655000Y-72470000D02*
X160655000Y-68135000D01*
X160655000Y-68135000D02*
X169100000Y-59690000D01*
X169100000Y-59690000D02*
X169250000Y-59690000D01*
X160655000Y-72470000D02*
X160655000Y-70870000D01*
X160655000Y-70870000D02*
X158655000Y-68870000D01*
X158655000Y-68870000D02*
X158655000Y-63100000D01*
X158655000Y-63100000D02*
X160255000Y-61500000D01*
X160255000Y-61500000D02*
X160655000Y-61500000D01*
X160655000Y-72470000D02*
X160416509Y-72470000D01*
X160416509Y-72470000D02*
X158655000Y-74231509D01*
X158655000Y-74231509D02*
X158655000Y-74870000D01*
X158655000Y-74870000D02*
X160255000Y-76470000D01*
X160255000Y-76470000D02*
X160655000Y-76470000D01*
X160655000Y-76470000D02*
X163195000Y-76470000D01*
X163195000Y-76470000D02*
X165465000Y-76470000D01*
X167005000Y-79375000D02*
X167005000Y-77525370D01*
X165949630Y-76470000D02*
X163195000Y-76470000D01*
X167005000Y-77525370D02*
X165949630Y-76470000D01*
X165465000Y-76470000D02*
X167005000Y-74930000D01*
X160655000Y-78470000D02*
X162655000Y-78470000D01*
X162655000Y-78470000D02*
X167005000Y-82820000D01*
X167005000Y-82820000D02*
X167005000Y-84217000D01*
X173355000Y-81915000D02*
X169307000Y-81915000D01*
X169307000Y-81915000D02*
X167005000Y-84217000D01*
X167005000Y-84217000D02*
X167005000Y-89535000D01*
D23*
X174856140Y-61280000D02*
X174856140Y-60629950D01*
X175796090Y-59690000D02*
X177335000Y-59690000D01*
X174856140Y-60629950D02*
X175796090Y-59690000D01*
X171853860Y-62230000D02*
X171853860Y-65255140D01*
X171853860Y-65255140D02*
X171069000Y-66040000D01*
X171450000Y-59690000D02*
X171450000Y-61826140D01*
X171450000Y-61826140D02*
X171853860Y-62230000D01*
X169080000Y-95885000D02*
X169643910Y-95885000D01*
X169643910Y-95885000D02*
X171853860Y-93675050D01*
X171853860Y-93675050D02*
X171853860Y-93025000D01*
X175641000Y-91290140D02*
X174631191Y-92299949D01*
X174631191Y-92299949D02*
X170693429Y-92299949D01*
X170693429Y-92299949D02*
X168154999Y-94838379D01*
X168154999Y-94838379D02*
X168154999Y-96595001D01*
X168154999Y-96595001D02*
X168219999Y-96660001D01*
X168219999Y-96660001D02*
X173158259Y-96660001D01*
X177924990Y-95059990D02*
X178750000Y-95885000D01*
X173158259Y-96660001D02*
X174758270Y-95059990D01*
X174758270Y-95059990D02*
X177924990Y-95059990D01*
X178750000Y-95885000D02*
X178900000Y-95885000D01*
X175641000Y-88265000D02*
X175641000Y-91290140D01*
X175641000Y-91290140D02*
X174856140Y-92075000D01*
X179535000Y-59690000D02*
X179685000Y-59690000D01*
X179685000Y-59690000D02*
X182537100Y-56837900D01*
X182537100Y-56837900D02*
X182537100Y-54203600D01*
X177800000Y-63000700D02*
X177800000Y-91016622D01*
X177800000Y-91016622D02*
X172931622Y-95885000D01*
X172931622Y-95885000D02*
X171280000Y-95885000D01*
X185077100Y-55723600D02*
X177800000Y-63000700D01*
X185077100Y-54203600D02*
X185077100Y-55723600D01*
D24*
G36*
X187607749Y-52263139D02*
X187082491Y-52367619D01*
X186629272Y-52670451D01*
X186347100Y-53092750D01*
X186064928Y-52670451D01*
X185611709Y-52367619D01*
X185077100Y-52261279D01*
X184542491Y-52367619D01*
X184089272Y-52670451D01*
X183807100Y-53092750D01*
X183524928Y-52670451D01*
X183071709Y-52367619D01*
X182537100Y-52261279D01*
X182002491Y-52367619D01*
X181549272Y-52670451D01*
X181267100Y-53092750D01*
X180984928Y-52670451D01*
X180531709Y-52367619D01*
X179997100Y-52261279D01*
X179462491Y-52367619D01*
X179009272Y-52670451D01*
X178727100Y-53092750D01*
X178444928Y-52670451D01*
X177991709Y-52367619D01*
X177457100Y-52261279D01*
X176922491Y-52367619D01*
X176469272Y-52670451D01*
X176177770Y-53106713D01*
X176159159Y-53043659D01*
X175815126Y-52617970D01*
X175334377Y-52356340D01*
X175260170Y-52341380D01*
X175044100Y-52463880D01*
X175044100Y-54076600D01*
X175064100Y-54076600D01*
X175064100Y-54330600D01*
X175044100Y-54330600D01*
X175044100Y-55943320D01*
X175260170Y-56065820D01*
X175334377Y-56050860D01*
X175815126Y-55789230D01*
X176159159Y-55363541D01*
X176177770Y-55300487D01*
X176469272Y-55736749D01*
X176922491Y-56039581D01*
X177457100Y-56145921D01*
X177991709Y-56039581D01*
X178444928Y-55736749D01*
X178727100Y-55314450D01*
X179009272Y-55736749D01*
X179462491Y-56039581D01*
X179997100Y-56145921D01*
X180531709Y-56039581D01*
X180984928Y-55736749D01*
X181267100Y-55314450D01*
X181549272Y-55736749D01*
X181777100Y-55888979D01*
X181777100Y-56523097D01*
X179707638Y-58592560D01*
X178935000Y-58592560D01*
X178699683Y-58636838D01*
X178483559Y-58775910D01*
X178435866Y-58845711D01*
X178399090Y-58788559D01*
X178186890Y-58643569D01*
X177935000Y-58592560D01*
X176735000Y-58592560D01*
X176499683Y-58636838D01*
X176283559Y-58775910D01*
X176178274Y-58930000D01*
X175796090Y-58930000D01*
X175505251Y-58987852D01*
X175258689Y-59152599D01*
X174318739Y-60092549D01*
X174225220Y-60232510D01*
X173955710Y-60232510D01*
X173720393Y-60276788D01*
X173504269Y-60415860D01*
X173359279Y-60628060D01*
X173308270Y-60879950D01*
X173308270Y-61518202D01*
X173218380Y-61378509D01*
X173006180Y-61233519D01*
X172754290Y-61182510D01*
X172210000Y-61182510D01*
X172210000Y-60757334D01*
X172285317Y-60743162D01*
X172501441Y-60604090D01*
X172646431Y-60391890D01*
X172697440Y-60140000D01*
X172697440Y-59240000D01*
X172653162Y-59004683D01*
X172514090Y-58788559D01*
X172301890Y-58643569D01*
X172050000Y-58592560D01*
X170850000Y-58592560D01*
X170614683Y-58636838D01*
X170398559Y-58775910D01*
X170350866Y-58845711D01*
X170314090Y-58788559D01*
X170101890Y-58643569D01*
X169850000Y-58592560D01*
X169438826Y-58592560D01*
X169250000Y-58555000D01*
X169100000Y-58555000D01*
X168911172Y-58592560D01*
X168650000Y-58592560D01*
X168414683Y-58636838D01*
X168198559Y-58775910D01*
X168053569Y-58988110D01*
X168017210Y-59167657D01*
X167775703Y-59409164D01*
X167761362Y-59122632D01*
X167602397Y-58738857D01*
X167360213Y-58669392D01*
X166559605Y-59470000D01*
X166573748Y-59484143D01*
X166394143Y-59663748D01*
X166380000Y-59649605D01*
X165579392Y-60450213D01*
X165648857Y-60692397D01*
X166172302Y-60879144D01*
X166312753Y-60872114D01*
X159852434Y-67332434D01*
X159790000Y-67425873D01*
X159790000Y-64630880D01*
X160128000Y-64735000D01*
X160528000Y-64735000D01*
X160528000Y-63627000D01*
X160782000Y-63627000D01*
X160782000Y-64735000D01*
X161182000Y-64735000D01*
X161644947Y-64592390D01*
X162018080Y-64283474D01*
X162244592Y-63855281D01*
X162248462Y-63817609D01*
X162123731Y-63627000D01*
X160782000Y-63627000D01*
X160528000Y-63627000D01*
X160508000Y-63627000D01*
X160508000Y-63373000D01*
X160528000Y-63373000D01*
X160528000Y-63353000D01*
X160782000Y-63353000D01*
X160782000Y-63373000D01*
X162123731Y-63373000D01*
X162248462Y-63182391D01*
X162244592Y-63144719D01*
X162018080Y-62716526D01*
X161762845Y-62505218D01*
X161960309Y-62373277D01*
X162228023Y-61972614D01*
X162322032Y-61500000D01*
X162228023Y-61027386D01*
X161960309Y-60626723D01*
X161559646Y-60359009D01*
X161087032Y-60265000D01*
X160222968Y-60265000D01*
X159750354Y-60359009D01*
X159349691Y-60626723D01*
X159081977Y-61027386D01*
X159071919Y-61077949D01*
X157852434Y-62297434D01*
X157606397Y-62665654D01*
X157520000Y-63100000D01*
X157520000Y-68870000D01*
X157606397Y-69304346D01*
X157631557Y-69342000D01*
X157852434Y-69672566D01*
X159520000Y-71340132D01*
X159520000Y-71482926D01*
X159349691Y-71596723D01*
X159081977Y-71997386D01*
X159031816Y-72249561D01*
X157852434Y-73428943D01*
X157606397Y-73797163D01*
X157520000Y-74231509D01*
X157520000Y-74870000D01*
X157606397Y-75304346D01*
X157695702Y-75438000D01*
X157852434Y-75672566D01*
X158730623Y-76550755D01*
X158152424Y-77128953D01*
X157906387Y-77497173D01*
X157819990Y-77931519D01*
X157819990Y-94613481D01*
X157906387Y-95047827D01*
X158108847Y-95350829D01*
X158152424Y-95416047D01*
X161970944Y-99234567D01*
X162339164Y-99480604D01*
X162773510Y-99567001D01*
X172552999Y-99567001D01*
X172987345Y-99480604D01*
X173355565Y-99234567D01*
X175343471Y-97246661D01*
X181482758Y-97246661D01*
X181694990Y-97760303D01*
X182087630Y-98153629D01*
X182600900Y-98366757D01*
X183156661Y-98367242D01*
X183670303Y-98155010D01*
X184063629Y-97762370D01*
X184276757Y-97249100D01*
X184277242Y-96693339D01*
X184065010Y-96179697D01*
X183672370Y-95786371D01*
X183159100Y-95573243D01*
X182603339Y-95572758D01*
X182089697Y-95784990D01*
X181696371Y-96177630D01*
X181483243Y-96690900D01*
X181482758Y-97246661D01*
X175343471Y-97246661D01*
X175570132Y-97020000D01*
X176700000Y-97020000D01*
X176888826Y-96982440D01*
X177300000Y-96982440D01*
X177535317Y-96938162D01*
X177751441Y-96799090D01*
X177799134Y-96729289D01*
X177835910Y-96786441D01*
X178048110Y-96931431D01*
X178300000Y-96982440D01*
X179500000Y-96982440D01*
X179735317Y-96938162D01*
X179951441Y-96799090D01*
X180096431Y-96586890D01*
X180147440Y-96335000D01*
X180147440Y-95435000D01*
X180103162Y-95199683D01*
X179964090Y-94983559D01*
X179751890Y-94838569D01*
X179500000Y-94787560D01*
X178727362Y-94787560D01*
X178462391Y-94522589D01*
X178215829Y-94357842D01*
X177924990Y-94299990D01*
X175591434Y-94299990D01*
X178337401Y-91554023D01*
X178502148Y-91307462D01*
X178560000Y-91016622D01*
X178560000Y-80683542D01*
X189250320Y-80683542D01*
X189250320Y-82287938D01*
X189393783Y-83009174D01*
X189802330Y-83620608D01*
X190413764Y-84029155D01*
X191135000Y-84172618D01*
X191856236Y-84029155D01*
X192467670Y-83620608D01*
X192876217Y-83009174D01*
X193019680Y-82287938D01*
X193019680Y-80683542D01*
X192876217Y-79962306D01*
X192467670Y-79350872D01*
X191856236Y-78942325D01*
X191135000Y-78798862D01*
X190413764Y-78942325D01*
X189802330Y-79350872D01*
X189393783Y-79962306D01*
X189250320Y-80683542D01*
X178560000Y-80683542D01*
X178560000Y-63315502D01*
X181671661Y-60203841D01*
X181694990Y-60260303D01*
X182087630Y-60653629D01*
X182600900Y-60866757D01*
X183156661Y-60867242D01*
X183670303Y-60655010D01*
X184063629Y-60262370D01*
X184276757Y-59749100D01*
X184277242Y-59193339D01*
X184065988Y-58682062D01*
X189250320Y-58682062D01*
X189250320Y-60286458D01*
X189393783Y-61007694D01*
X189802330Y-61619128D01*
X190413764Y-62027675D01*
X191135000Y-62171138D01*
X191856236Y-62027675D01*
X192467670Y-61619128D01*
X192876217Y-61007694D01*
X193019680Y-60286458D01*
X193019680Y-58682062D01*
X192876217Y-57960826D01*
X192467670Y-57349392D01*
X191856236Y-56940845D01*
X191135000Y-56797382D01*
X190413764Y-56940845D01*
X189802330Y-57349392D01*
X189393783Y-57960826D01*
X189250320Y-58682062D01*
X184065988Y-58682062D01*
X184065010Y-58679697D01*
X183672370Y-58286371D01*
X183613554Y-58261948D01*
X185614501Y-56261001D01*
X185779248Y-56014439D01*
X185799161Y-55914329D01*
X186064928Y-55736749D01*
X186347100Y-55314450D01*
X186629272Y-55736749D01*
X187082491Y-56039581D01*
X187617100Y-56145921D01*
X188151709Y-56039581D01*
X188604928Y-55736749D01*
X188887100Y-55314450D01*
X189169272Y-55736749D01*
X189622491Y-56039581D01*
X190157100Y-56145921D01*
X190691709Y-56039581D01*
X191144928Y-55736749D01*
X191447760Y-55283530D01*
X191554100Y-54748921D01*
X191554100Y-53658279D01*
X191447760Y-53123670D01*
X191144928Y-52670451D01*
X190691709Y-52367619D01*
X190469317Y-52323383D01*
X193652404Y-52390395D01*
X193233272Y-52670451D01*
X192930440Y-53123670D01*
X192824100Y-53658279D01*
X192824100Y-54748921D01*
X192930440Y-55283530D01*
X193233272Y-55736749D01*
X193686491Y-56039581D01*
X194221100Y-56145921D01*
X194755709Y-56039581D01*
X195208928Y-55736749D01*
X195491100Y-55314450D01*
X195773272Y-55736749D01*
X196226491Y-56039581D01*
X196761100Y-56145921D01*
X197295709Y-56039581D01*
X197748928Y-55736749D01*
X198031100Y-55314450D01*
X198313272Y-55736749D01*
X198766491Y-56039581D01*
X199301100Y-56145921D01*
X199835709Y-56039581D01*
X200288928Y-55736749D01*
X200571100Y-55314450D01*
X200853272Y-55736749D01*
X201306491Y-56039581D01*
X201841100Y-56145921D01*
X202375709Y-56039581D01*
X202828928Y-55736749D01*
X203111100Y-55314450D01*
X203393272Y-55736749D01*
X203846491Y-56039581D01*
X204381100Y-56145921D01*
X204915709Y-56039581D01*
X205368928Y-55736749D01*
X205651100Y-55314450D01*
X205933272Y-55736749D01*
X206386491Y-56039581D01*
X206921100Y-56145921D01*
X207455709Y-56039581D01*
X207908928Y-55736749D01*
X208191100Y-55314450D01*
X208473272Y-55736749D01*
X208926491Y-56039581D01*
X209461100Y-56145921D01*
X209995709Y-56039581D01*
X210448928Y-55736749D01*
X210731100Y-55314450D01*
X211013272Y-55736749D01*
X211466491Y-56039581D01*
X212001100Y-56145921D01*
X212535709Y-56039581D01*
X212988928Y-55736749D01*
X213291760Y-55283530D01*
X213398100Y-54748921D01*
X213398100Y-53658279D01*
X213291760Y-53123670D01*
X213075017Y-52799292D01*
X213770191Y-52813927D01*
X213945000Y-52988736D01*
X213945000Y-64135000D01*
X213997143Y-64397138D01*
X214145632Y-64619368D01*
X216485000Y-66958736D01*
X216485000Y-100046264D01*
X214145632Y-102385632D01*
X213997143Y-102607862D01*
X213945000Y-102870000D01*
X213945000Y-104090000D01*
X212849368Y-104090000D01*
X212988928Y-103996749D01*
X213291760Y-103543530D01*
X213398100Y-103008921D01*
X213398100Y-101918279D01*
X213291760Y-101383670D01*
X212988928Y-100930451D01*
X212535709Y-100627619D01*
X212001100Y-100521279D01*
X211466491Y-100627619D01*
X211013272Y-100930451D01*
X210731100Y-101352750D01*
X210448928Y-100930451D01*
X209995709Y-100627619D01*
X209461100Y-100521279D01*
X208926491Y-100627619D01*
X208473272Y-100930451D01*
X208191100Y-101352750D01*
X207908928Y-100930451D01*
X207455709Y-100627619D01*
X206921100Y-100521279D01*
X206386491Y-100627619D01*
X205933272Y-100930451D01*
X205651100Y-101352750D01*
X205368928Y-100930451D01*
X204915709Y-100627619D01*
X204381100Y-100521279D01*
X203846491Y-100627619D01*
X203393272Y-100930451D01*
X203111100Y-101352750D01*
X202828928Y-100930451D01*
X202375709Y-100627619D01*
X201841100Y-100521279D01*
X201306491Y-100627619D01*
X200853272Y-100930451D01*
X200571100Y-101352750D01*
X200288928Y-100930451D01*
X199835709Y-100627619D01*
X199301100Y-100521279D01*
X198766491Y-100627619D01*
X198313272Y-100930451D01*
X198010440Y-101383670D01*
X197904100Y-101918279D01*
X197904100Y-103008921D01*
X198010440Y-103543530D01*
X198313272Y-103996749D01*
X198452832Y-104090000D01*
X195069368Y-104090000D01*
X195208928Y-103996749D01*
X195511760Y-103543530D01*
X195618100Y-103008921D01*
X195618100Y-101918279D01*
X195511760Y-101383670D01*
X195208928Y-100930451D01*
X194755709Y-100627619D01*
X194221100Y-100521279D01*
X193686491Y-100627619D01*
X193233272Y-100930451D01*
X192941770Y-101366713D01*
X192923159Y-101303659D01*
X192579126Y-100877970D01*
X192098377Y-100616340D01*
X192024170Y-100601380D01*
X191808100Y-100723880D01*
X191808100Y-102336600D01*
X191828100Y-102336600D01*
X191828100Y-102590600D01*
X191808100Y-102590600D01*
X191808100Y-102610600D01*
X191554100Y-102610600D01*
X191554100Y-102590600D01*
X189268100Y-102590600D01*
X189268100Y-102610600D01*
X189014100Y-102610600D01*
X189014100Y-102590600D01*
X188994100Y-102590600D01*
X188994100Y-102336600D01*
X189014100Y-102336600D01*
X189014100Y-100723880D01*
X189268100Y-100723880D01*
X189268100Y-102336600D01*
X191554100Y-102336600D01*
X191554100Y-100723880D01*
X191338030Y-100601380D01*
X191263823Y-100616340D01*
X190783074Y-100877970D01*
X190439041Y-101303659D01*
X190411100Y-101398323D01*
X190383159Y-101303659D01*
X190039126Y-100877970D01*
X189558377Y-100616340D01*
X189484170Y-100601380D01*
X189268100Y-100723880D01*
X189014100Y-100723880D01*
X188798030Y-100601380D01*
X188723823Y-100616340D01*
X188243074Y-100877970D01*
X187899041Y-101303659D01*
X187880430Y-101366713D01*
X187588928Y-100930451D01*
X187135709Y-100627619D01*
X186601100Y-100521279D01*
X186066491Y-100627619D01*
X185613272Y-100930451D01*
X185331100Y-101352750D01*
X185048928Y-100930451D01*
X184595709Y-100627619D01*
X184061100Y-100521279D01*
X183526491Y-100627619D01*
X183073272Y-100930451D01*
X182791100Y-101352750D01*
X182508928Y-100930451D01*
X182055709Y-100627619D01*
X181521100Y-100521279D01*
X180986491Y-100627619D01*
X180533272Y-100930451D01*
X180230440Y-101383670D01*
X180124100Y-101918279D01*
X180124100Y-103008921D01*
X180230440Y-103543530D01*
X180533272Y-103996749D01*
X180672832Y-104090000D01*
X154990000Y-104090000D01*
X154990000Y-59262302D01*
X164970856Y-59262302D01*
X164998638Y-59817368D01*
X165157603Y-60201143D01*
X165399787Y-60270608D01*
X166200395Y-59470000D01*
X165399787Y-58669392D01*
X165157603Y-58738857D01*
X164970856Y-59262302D01*
X154990000Y-59262302D01*
X154990000Y-58489787D01*
X165579392Y-58489787D01*
X166380000Y-59290395D01*
X167180608Y-58489787D01*
X167111143Y-58247603D01*
X166587698Y-58060856D01*
X166032632Y-58088638D01*
X165648857Y-58247603D01*
X165579392Y-58489787D01*
X154990000Y-58489787D01*
X154990000Y-53658279D01*
X170980100Y-53658279D01*
X170980100Y-54748921D01*
X171086440Y-55283530D01*
X171389272Y-55736749D01*
X171842491Y-56039581D01*
X172377100Y-56145921D01*
X172911709Y-56039581D01*
X173364928Y-55736749D01*
X173656430Y-55300487D01*
X173675041Y-55363541D01*
X174019074Y-55789230D01*
X174499823Y-56050860D01*
X174574030Y-56065820D01*
X174790100Y-55943320D01*
X174790100Y-54330600D01*
X174770100Y-54330600D01*
X174770100Y-54076600D01*
X174790100Y-54076600D01*
X174790100Y-52463880D01*
X174574030Y-52341380D01*
X174499823Y-52356340D01*
X174019074Y-52617970D01*
X173675041Y-53043659D01*
X173656430Y-53106713D01*
X173364928Y-52670451D01*
X172911709Y-52367619D01*
X172377100Y-52261279D01*
X171842491Y-52367619D01*
X171389272Y-52670451D01*
X171086440Y-53123670D01*
X170980100Y-53658279D01*
X154990000Y-53658279D01*
X154990000Y-52120000D01*
X180808647Y-52120000D01*
X187607749Y-52263139D01*
X187607749Y-52263139D01*
G37*
X187607749Y-52263139D02*
X187082491Y-52367619D01*
X186629272Y-52670451D01*
X186347100Y-53092750D01*
X186064928Y-52670451D01*
X185611709Y-52367619D01*
X185077100Y-52261279D01*
X184542491Y-52367619D01*
X184089272Y-52670451D01*
X183807100Y-53092750D01*
X183524928Y-52670451D01*
X183071709Y-52367619D01*
X182537100Y-52261279D01*
X182002491Y-52367619D01*
X181549272Y-52670451D01*
X181267100Y-53092750D01*
X180984928Y-52670451D01*
X180531709Y-52367619D01*
X179997100Y-52261279D01*
X179462491Y-52367619D01*
X179009272Y-52670451D01*
X178727100Y-53092750D01*
X178444928Y-52670451D01*
X177991709Y-52367619D01*
X177457100Y-52261279D01*
X176922491Y-52367619D01*
X176469272Y-52670451D01*
X176177770Y-53106713D01*
X176159159Y-53043659D01*
X175815126Y-52617970D01*
X175334377Y-52356340D01*
X175260170Y-52341380D01*
X175044100Y-52463880D01*
X175044100Y-54076600D01*
X175064100Y-54076600D01*
X175064100Y-54330600D01*
X175044100Y-54330600D01*
X175044100Y-55943320D01*
X175260170Y-56065820D01*
X175334377Y-56050860D01*
X175815126Y-55789230D01*
X176159159Y-55363541D01*
X176177770Y-55300487D01*
X176469272Y-55736749D01*
X176922491Y-56039581D01*
X177457100Y-56145921D01*
X177991709Y-56039581D01*
X178444928Y-55736749D01*
X178727100Y-55314450D01*
X179009272Y-55736749D01*
X179462491Y-56039581D01*
X179997100Y-56145921D01*
X180531709Y-56039581D01*
X180984928Y-55736749D01*
X181267100Y-55314450D01*
X181549272Y-55736749D01*
X181777100Y-55888979D01*
X181777100Y-56523097D01*
X179707638Y-58592560D01*
X178935000Y-58592560D01*
X178699683Y-58636838D01*
X178483559Y-58775910D01*
X178435866Y-58845711D01*
X178399090Y-58788559D01*
X178186890Y-58643569D01*
X177935000Y-58592560D01*
X176735000Y-58592560D01*
X176499683Y-58636838D01*
X176283559Y-58775910D01*
X176178274Y-58930000D01*
X175796090Y-58930000D01*
X175505251Y-58987852D01*
X175258689Y-59152599D01*
X174318739Y-60092549D01*
X174225220Y-60232510D01*
X173955710Y-60232510D01*
X173720393Y-60276788D01*
X173504269Y-60415860D01*
X173359279Y-60628060D01*
X173308270Y-60879950D01*
X173308270Y-61518202D01*
X173218380Y-61378509D01*
X173006180Y-61233519D01*
X172754290Y-61182510D01*
X172210000Y-61182510D01*
X172210000Y-60757334D01*
X172285317Y-60743162D01*
X172501441Y-60604090D01*
X172646431Y-60391890D01*
X172697440Y-60140000D01*
X172697440Y-59240000D01*
X172653162Y-59004683D01*
X172514090Y-58788559D01*
X172301890Y-58643569D01*
X172050000Y-58592560D01*
X170850000Y-58592560D01*
X170614683Y-58636838D01*
X170398559Y-58775910D01*
X170350866Y-58845711D01*
X170314090Y-58788559D01*
X170101890Y-58643569D01*
X169850000Y-58592560D01*
X169438826Y-58592560D01*
X169250000Y-58555000D01*
X169100000Y-58555000D01*
X168911172Y-58592560D01*
X168650000Y-58592560D01*
X168414683Y-58636838D01*
X168198559Y-58775910D01*
X168053569Y-58988110D01*
X168017210Y-59167657D01*
X167775703Y-59409164D01*
X167761362Y-59122632D01*
X167602397Y-58738857D01*
X167360213Y-58669392D01*
X166559605Y-59470000D01*
X166573748Y-59484143D01*
X166394143Y-59663748D01*
X166380000Y-59649605D01*
X165579392Y-60450213D01*
X165648857Y-60692397D01*
X166172302Y-60879144D01*
X166312753Y-60872114D01*
X159852434Y-67332434D01*
X159790000Y-67425873D01*
X159790000Y-64630880D01*
X160128000Y-64735000D01*
X160528000Y-64735000D01*
X160528000Y-63627000D01*
X160782000Y-63627000D01*
X160782000Y-64735000D01*
X161182000Y-64735000D01*
X161644947Y-64592390D01*
X162018080Y-64283474D01*
X162244592Y-63855281D01*
X162248462Y-63817609D01*
X162123731Y-63627000D01*
X160782000Y-63627000D01*
X160528000Y-63627000D01*
X160508000Y-63627000D01*
X160508000Y-63373000D01*
X160528000Y-63373000D01*
X160528000Y-63353000D01*
X160782000Y-63353000D01*
X160782000Y-63373000D01*
X162123731Y-63373000D01*
X162248462Y-63182391D01*
X162244592Y-63144719D01*
X162018080Y-62716526D01*
X161762845Y-62505218D01*
X161960309Y-62373277D01*
X162228023Y-61972614D01*
X162322032Y-61500000D01*
X162228023Y-61027386D01*
X161960309Y-60626723D01*
X161559646Y-60359009D01*
X161087032Y-60265000D01*
X160222968Y-60265000D01*
X159750354Y-60359009D01*
X159349691Y-60626723D01*
X159081977Y-61027386D01*
X159071919Y-61077949D01*
X157852434Y-62297434D01*
X157606397Y-62665654D01*
X157520000Y-63100000D01*
X157520000Y-68870000D01*
X157606397Y-69304346D01*
X157631557Y-69342000D01*
X157852434Y-69672566D01*
X159520000Y-71340132D01*
X159520000Y-71482926D01*
X159349691Y-71596723D01*
X159081977Y-71997386D01*
X159031816Y-72249561D01*
X157852434Y-73428943D01*
X157606397Y-73797163D01*
X157520000Y-74231509D01*
X157520000Y-74870000D01*
X157606397Y-75304346D01*
X157695702Y-75438000D01*
X157852434Y-75672566D01*
X158730623Y-76550755D01*
X158152424Y-77128953D01*
X157906387Y-77497173D01*
X157819990Y-77931519D01*
X157819990Y-94613481D01*
X157906387Y-95047827D01*
X158108847Y-95350829D01*
X158152424Y-95416047D01*
X161970944Y-99234567D01*
X162339164Y-99480604D01*
X162773510Y-99567001D01*
X172552999Y-99567001D01*
X172987345Y-99480604D01*
X173355565Y-99234567D01*
X175343471Y-97246661D01*
X181482758Y-97246661D01*
X181694990Y-97760303D01*
X182087630Y-98153629D01*
X182600900Y-98366757D01*
X183156661Y-98367242D01*
X183670303Y-98155010D01*
X184063629Y-97762370D01*
X184276757Y-97249100D01*
X184277242Y-96693339D01*
X184065010Y-96179697D01*
X183672370Y-95786371D01*
X183159100Y-95573243D01*
X182603339Y-95572758D01*
X182089697Y-95784990D01*
X181696371Y-96177630D01*
X181483243Y-96690900D01*
X181482758Y-97246661D01*
X175343471Y-97246661D01*
X175570132Y-97020000D01*
X176700000Y-97020000D01*
X176888826Y-96982440D01*
X177300000Y-96982440D01*
X177535317Y-96938162D01*
X177751441Y-96799090D01*
X177799134Y-96729289D01*
X177835910Y-96786441D01*
X178048110Y-96931431D01*
X178300000Y-96982440D01*
X179500000Y-96982440D01*
X179735317Y-96938162D01*
X179951441Y-96799090D01*
X180096431Y-96586890D01*
X180147440Y-96335000D01*
X180147440Y-95435000D01*
X180103162Y-95199683D01*
X179964090Y-94983559D01*
X179751890Y-94838569D01*
X179500000Y-94787560D01*
X178727362Y-94787560D01*
X178462391Y-94522589D01*
X178215829Y-94357842D01*
X177924990Y-94299990D01*
X175591434Y-94299990D01*
X178337401Y-91554023D01*
X178502148Y-91307462D01*
X178560000Y-91016622D01*
X178560000Y-80683542D01*
X189250320Y-80683542D01*
X189250320Y-82287938D01*
X189393783Y-83009174D01*
X189802330Y-83620608D01*
X190413764Y-84029155D01*
X191135000Y-84172618D01*
X191856236Y-84029155D01*
X192467670Y-83620608D01*
X192876217Y-83009174D01*
X193019680Y-82287938D01*
X193019680Y-80683542D01*
X192876217Y-79962306D01*
X192467670Y-79350872D01*
X191856236Y-78942325D01*
X191135000Y-78798862D01*
X190413764Y-78942325D01*
X189802330Y-79350872D01*
X189393783Y-79962306D01*
X189250320Y-80683542D01*
X178560000Y-80683542D01*
X178560000Y-63315502D01*
X181671661Y-60203841D01*
X181694990Y-60260303D01*
X182087630Y-60653629D01*
X182600900Y-60866757D01*
X183156661Y-60867242D01*
X183670303Y-60655010D01*
X184063629Y-60262370D01*
X184276757Y-59749100D01*
X184277242Y-59193339D01*
X184065988Y-58682062D01*
X189250320Y-58682062D01*
X189250320Y-60286458D01*
X189393783Y-61007694D01*
X189802330Y-61619128D01*
X190413764Y-62027675D01*
X191135000Y-62171138D01*
X191856236Y-62027675D01*
X192467670Y-61619128D01*
X192876217Y-61007694D01*
X193019680Y-60286458D01*
X193019680Y-58682062D01*
X192876217Y-57960826D01*
X192467670Y-57349392D01*
X191856236Y-56940845D01*
X191135000Y-56797382D01*
X190413764Y-56940845D01*
X189802330Y-57349392D01*
X189393783Y-57960826D01*
X189250320Y-58682062D01*
X184065988Y-58682062D01*
X184065010Y-58679697D01*
X183672370Y-58286371D01*
X183613554Y-58261948D01*
X185614501Y-56261001D01*
X185779248Y-56014439D01*
X185799161Y-55914329D01*
X186064928Y-55736749D01*
X186347100Y-55314450D01*
X186629272Y-55736749D01*
X187082491Y-56039581D01*
X187617100Y-56145921D01*
X188151709Y-56039581D01*
X188604928Y-55736749D01*
X188887100Y-55314450D01*
X189169272Y-55736749D01*
X189622491Y-56039581D01*
X190157100Y-56145921D01*
X190691709Y-56039581D01*
X191144928Y-55736749D01*
X191447760Y-55283530D01*
X191554100Y-54748921D01*
X191554100Y-53658279D01*
X191447760Y-53123670D01*
X191144928Y-52670451D01*
X190691709Y-52367619D01*
X190469317Y-52323383D01*
X193652404Y-52390395D01*
X193233272Y-52670451D01*
X192930440Y-53123670D01*
X192824100Y-53658279D01*
X192824100Y-54748921D01*
X192930440Y-55283530D01*
X193233272Y-55736749D01*
X193686491Y-56039581D01*
X194221100Y-56145921D01*
X194755709Y-56039581D01*
X195208928Y-55736749D01*
X195491100Y-55314450D01*
X195773272Y-55736749D01*
X196226491Y-56039581D01*
X196761100Y-56145921D01*
X197295709Y-56039581D01*
X197748928Y-55736749D01*
X198031100Y-55314450D01*
X198313272Y-55736749D01*
X198766491Y-56039581D01*
X199301100Y-56145921D01*
X199835709Y-56039581D01*
X200288928Y-55736749D01*
X200571100Y-55314450D01*
X200853272Y-55736749D01*
X201306491Y-56039581D01*
X201841100Y-56145921D01*
X202375709Y-56039581D01*
X202828928Y-55736749D01*
X203111100Y-55314450D01*
X203393272Y-55736749D01*
X203846491Y-56039581D01*
X204381100Y-56145921D01*
X204915709Y-56039581D01*
X205368928Y-55736749D01*
X205651100Y-55314450D01*
X205933272Y-55736749D01*
X206386491Y-56039581D01*
X206921100Y-56145921D01*
X207455709Y-56039581D01*
X207908928Y-55736749D01*
X208191100Y-55314450D01*
X208473272Y-55736749D01*
X208926491Y-56039581D01*
X209461100Y-56145921D01*
X209995709Y-56039581D01*
X210448928Y-55736749D01*
X210731100Y-55314450D01*
X211013272Y-55736749D01*
X211466491Y-56039581D01*
X212001100Y-56145921D01*
X212535709Y-56039581D01*
X212988928Y-55736749D01*
X213291760Y-55283530D01*
X213398100Y-54748921D01*
X213398100Y-53658279D01*
X213291760Y-53123670D01*
X213075017Y-52799292D01*
X213770191Y-52813927D01*
X213945000Y-52988736D01*
X213945000Y-64135000D01*
X213997143Y-64397138D01*
X214145632Y-64619368D01*
X216485000Y-66958736D01*
X216485000Y-100046264D01*
X214145632Y-102385632D01*
X213997143Y-102607862D01*
X213945000Y-102870000D01*
X213945000Y-104090000D01*
X212849368Y-104090000D01*
X212988928Y-103996749D01*
X213291760Y-103543530D01*
X213398100Y-103008921D01*
X213398100Y-101918279D01*
X213291760Y-101383670D01*
X212988928Y-100930451D01*
X212535709Y-100627619D01*
X212001100Y-100521279D01*
X211466491Y-100627619D01*
X211013272Y-100930451D01*
X210731100Y-101352750D01*
X210448928Y-100930451D01*
X209995709Y-100627619D01*
X209461100Y-100521279D01*
X208926491Y-100627619D01*
X208473272Y-100930451D01*
X208191100Y-101352750D01*
X207908928Y-100930451D01*
X207455709Y-100627619D01*
X206921100Y-100521279D01*
X206386491Y-100627619D01*
X205933272Y-100930451D01*
X205651100Y-101352750D01*
X205368928Y-100930451D01*
X204915709Y-100627619D01*
X204381100Y-100521279D01*
X203846491Y-100627619D01*
X203393272Y-100930451D01*
X203111100Y-101352750D01*
X202828928Y-100930451D01*
X202375709Y-100627619D01*
X201841100Y-100521279D01*
X201306491Y-100627619D01*
X200853272Y-100930451D01*
X200571100Y-101352750D01*
X200288928Y-100930451D01*
X199835709Y-100627619D01*
X199301100Y-100521279D01*
X198766491Y-100627619D01*
X198313272Y-100930451D01*
X198010440Y-101383670D01*
X197904100Y-101918279D01*
X197904100Y-103008921D01*
X198010440Y-103543530D01*
X198313272Y-103996749D01*
X198452832Y-104090000D01*
X195069368Y-104090000D01*
X195208928Y-103996749D01*
X195511760Y-103543530D01*
X195618100Y-103008921D01*
X195618100Y-101918279D01*
X195511760Y-101383670D01*
X195208928Y-100930451D01*
X194755709Y-100627619D01*
X194221100Y-100521279D01*
X193686491Y-100627619D01*
X193233272Y-100930451D01*
X192941770Y-101366713D01*
X192923159Y-101303659D01*
X192579126Y-100877970D01*
X192098377Y-100616340D01*
X192024170Y-100601380D01*
X191808100Y-100723880D01*
X191808100Y-102336600D01*
X191828100Y-102336600D01*
X191828100Y-102590600D01*
X191808100Y-102590600D01*
X191808100Y-102610600D01*
X191554100Y-102610600D01*
X191554100Y-102590600D01*
X189268100Y-102590600D01*
X189268100Y-102610600D01*
X189014100Y-102610600D01*
X189014100Y-102590600D01*
X188994100Y-102590600D01*
X188994100Y-102336600D01*
X189014100Y-102336600D01*
X189014100Y-100723880D01*
X189268100Y-100723880D01*
X189268100Y-102336600D01*
X191554100Y-102336600D01*
X191554100Y-100723880D01*
X191338030Y-100601380D01*
X191263823Y-100616340D01*
X190783074Y-100877970D01*
X190439041Y-101303659D01*
X190411100Y-101398323D01*
X190383159Y-101303659D01*
X190039126Y-100877970D01*
X189558377Y-100616340D01*
X189484170Y-100601380D01*
X189268100Y-100723880D01*
X189014100Y-100723880D01*
X188798030Y-100601380D01*
X188723823Y-100616340D01*
X188243074Y-100877970D01*
X187899041Y-101303659D01*
X187880430Y-101366713D01*
X187588928Y-100930451D01*
X187135709Y-100627619D01*
X186601100Y-100521279D01*
X186066491Y-100627619D01*
X185613272Y-100930451D01*
X185331100Y-101352750D01*
X185048928Y-100930451D01*
X184595709Y-100627619D01*
X184061100Y-100521279D01*
X183526491Y-100627619D01*
X183073272Y-100930451D01*
X182791100Y-101352750D01*
X182508928Y-100930451D01*
X182055709Y-100627619D01*
X181521100Y-100521279D01*
X180986491Y-100627619D01*
X180533272Y-100930451D01*
X180230440Y-101383670D01*
X180124100Y-101918279D01*
X180124100Y-103008921D01*
X180230440Y-103543530D01*
X180533272Y-103996749D01*
X180672832Y-104090000D01*
X154990000Y-104090000D01*
X154990000Y-59262302D01*
X164970856Y-59262302D01*
X164998638Y-59817368D01*
X165157603Y-60201143D01*
X165399787Y-60270608D01*
X166200395Y-59470000D01*
X165399787Y-58669392D01*
X165157603Y-58738857D01*
X164970856Y-59262302D01*
X154990000Y-59262302D01*
X154990000Y-58489787D01*
X165579392Y-58489787D01*
X166380000Y-59290395D01*
X167180608Y-58489787D01*
X167111143Y-58247603D01*
X166587698Y-58060856D01*
X166032632Y-58088638D01*
X165648857Y-58247603D01*
X165579392Y-58489787D01*
X154990000Y-58489787D01*
X154990000Y-53658279D01*
X170980100Y-53658279D01*
X170980100Y-54748921D01*
X171086440Y-55283530D01*
X171389272Y-55736749D01*
X171842491Y-56039581D01*
X172377100Y-56145921D01*
X172911709Y-56039581D01*
X173364928Y-55736749D01*
X173656430Y-55300487D01*
X173675041Y-55363541D01*
X174019074Y-55789230D01*
X174499823Y-56050860D01*
X174574030Y-56065820D01*
X174790100Y-55943320D01*
X174790100Y-54330600D01*
X174770100Y-54330600D01*
X174770100Y-54076600D01*
X174790100Y-54076600D01*
X174790100Y-52463880D01*
X174574030Y-52341380D01*
X174499823Y-52356340D01*
X174019074Y-52617970D01*
X173675041Y-53043659D01*
X173656430Y-53106713D01*
X173364928Y-52670451D01*
X172911709Y-52367619D01*
X172377100Y-52261279D01*
X171842491Y-52367619D01*
X171389272Y-52670451D01*
X171086440Y-53123670D01*
X170980100Y-53658279D01*
X154990000Y-53658279D01*
X154990000Y-52120000D01*
X180808647Y-52120000D01*
X187607749Y-52263139D01*
G36*
X165870000Y-83290132D02*
X165870000Y-88570266D01*
X165747126Y-88692926D01*
X165520628Y-89238393D01*
X165520112Y-89829016D01*
X165745658Y-90374877D01*
X166162926Y-90792874D01*
X166708393Y-91019372D01*
X167299016Y-91019888D01*
X167844877Y-90794342D01*
X168262874Y-90377074D01*
X168489372Y-89831607D01*
X168489888Y-89240984D01*
X168264342Y-88695123D01*
X168140000Y-88570564D01*
X168140000Y-88550750D01*
X169608500Y-88550750D01*
X169608500Y-89915310D01*
X169705173Y-90148699D01*
X169883802Y-90327327D01*
X170117191Y-90424000D01*
X170390769Y-90424000D01*
X170318430Y-90598641D01*
X170318430Y-90839250D01*
X170477180Y-90998000D01*
X171726860Y-90998000D01*
X171726860Y-90978000D01*
X171980860Y-90978000D01*
X171980860Y-90998000D01*
X173230540Y-90998000D01*
X173389290Y-90839250D01*
X173389290Y-90598641D01*
X173292617Y-90365252D01*
X173113989Y-90186623D01*
X172880600Y-90089950D01*
X172457162Y-90089950D01*
X172529500Y-89915310D01*
X172529500Y-88550750D01*
X172370750Y-88392000D01*
X171196000Y-88392000D01*
X171196000Y-88412000D01*
X170942000Y-88412000D01*
X170942000Y-88392000D01*
X169767250Y-88392000D01*
X169608500Y-88550750D01*
X168140000Y-88550750D01*
X168140000Y-86614690D01*
X169608500Y-86614690D01*
X169608500Y-87979250D01*
X169767250Y-88138000D01*
X170942000Y-88138000D01*
X170942000Y-86264750D01*
X171196000Y-86264750D01*
X171196000Y-88138000D01*
X172370750Y-88138000D01*
X172529500Y-87979250D01*
X172529500Y-86614690D01*
X172432827Y-86381301D01*
X172254198Y-86202673D01*
X172020809Y-86106000D01*
X171354750Y-86106000D01*
X171196000Y-86264750D01*
X170942000Y-86264750D01*
X170783250Y-86106000D01*
X170117191Y-86106000D01*
X169883802Y-86202673D01*
X169705173Y-86381301D01*
X169608500Y-86614690D01*
X168140000Y-86614690D01*
X168140000Y-84687132D01*
X169659560Y-83167572D01*
X169659560Y-84963000D01*
X169703838Y-85198317D01*
X169842910Y-85414441D01*
X170055110Y-85559431D01*
X170307000Y-85610440D01*
X176403000Y-85610440D01*
X176638317Y-85566162D01*
X176854441Y-85427090D01*
X176999431Y-85214890D01*
X177040000Y-85014554D01*
X177040000Y-86459587D01*
X176930590Y-86289559D01*
X176718390Y-86144569D01*
X176466500Y-86093560D01*
X174815500Y-86093560D01*
X174580183Y-86137838D01*
X174364059Y-86276910D01*
X174219069Y-86489110D01*
X174168060Y-86741000D01*
X174168060Y-89789000D01*
X174212338Y-90024317D01*
X174351410Y-90240441D01*
X174563610Y-90385431D01*
X174815500Y-90436440D01*
X174881000Y-90436440D01*
X174881000Y-90975338D01*
X174828828Y-91027510D01*
X173955710Y-91027510D01*
X173720393Y-91071788D01*
X173504269Y-91210860D01*
X173376458Y-91397918D01*
X173230540Y-91252000D01*
X171980860Y-91252000D01*
X171980860Y-91272000D01*
X171726860Y-91272000D01*
X171726860Y-91252000D01*
X170477180Y-91252000D01*
X170318430Y-91410750D01*
X170318430Y-91651359D01*
X170319298Y-91653455D01*
X170156028Y-91762548D01*
X167617598Y-94300978D01*
X167452851Y-94547540D01*
X167394999Y-94838379D01*
X167394999Y-96179370D01*
X167360213Y-96169392D01*
X166559605Y-96970000D01*
X166573748Y-96984143D01*
X166394143Y-97163748D01*
X166380000Y-97149605D01*
X166365858Y-97163748D01*
X166186253Y-96984143D01*
X166200395Y-96970000D01*
X165399787Y-96169392D01*
X165157603Y-96238857D01*
X164970856Y-96762302D01*
X164997619Y-97297001D01*
X163243642Y-97297001D01*
X161936428Y-95989787D01*
X165579392Y-95989787D01*
X166380000Y-96790395D01*
X167180608Y-95989787D01*
X167111143Y-95747603D01*
X166587698Y-95560856D01*
X166032632Y-95588638D01*
X165648857Y-95747603D01*
X165579392Y-95989787D01*
X161936428Y-95989787D01*
X161239063Y-95292422D01*
X161644947Y-95167390D01*
X162018080Y-94858474D01*
X162244592Y-94430281D01*
X162248462Y-94392609D01*
X162123731Y-94202000D01*
X160782000Y-94202000D01*
X160782000Y-94222000D01*
X160528000Y-94222000D01*
X160528000Y-94202000D01*
X160508000Y-94202000D01*
X160508000Y-93948000D01*
X160528000Y-93948000D01*
X160528000Y-93928000D01*
X160782000Y-93928000D01*
X160782000Y-93948000D01*
X162123731Y-93948000D01*
X162248462Y-93757391D01*
X162244592Y-93719719D01*
X162018080Y-93291526D01*
X161762845Y-93080218D01*
X161960309Y-92948277D01*
X162228023Y-92547614D01*
X162322032Y-92075000D01*
X162228023Y-91602386D01*
X161960309Y-91201723D01*
X161559646Y-90934009D01*
X161087032Y-90840000D01*
X160222968Y-90840000D01*
X160089990Y-90866451D01*
X160089990Y-83678549D01*
X160222968Y-83705000D01*
X161087032Y-83705000D01*
X161559646Y-83610991D01*
X161960309Y-83343277D01*
X162228023Y-82942614D01*
X162322032Y-82470000D01*
X162228023Y-81997386D01*
X161960309Y-81596723D01*
X161770654Y-81470000D01*
X161960309Y-81343277D01*
X162228023Y-80942614D01*
X162322032Y-80470000D01*
X162228023Y-79997386D01*
X161965840Y-79605000D01*
X162184868Y-79605000D01*
X165870000Y-83290132D01*
X165870000Y-83290132D01*
G37*
X165870000Y-83290132D02*
X165870000Y-88570266D01*
X165747126Y-88692926D01*
X165520628Y-89238393D01*
X165520112Y-89829016D01*
X165745658Y-90374877D01*
X166162926Y-90792874D01*
X166708393Y-91019372D01*
X167299016Y-91019888D01*
X167844877Y-90794342D01*
X168262874Y-90377074D01*
X168489372Y-89831607D01*
X168489888Y-89240984D01*
X168264342Y-88695123D01*
X168140000Y-88570564D01*
X168140000Y-88550750D01*
X169608500Y-88550750D01*
X169608500Y-89915310D01*
X169705173Y-90148699D01*
X169883802Y-90327327D01*
X170117191Y-90424000D01*
X170390769Y-90424000D01*
X170318430Y-90598641D01*
X170318430Y-90839250D01*
X170477180Y-90998000D01*
X171726860Y-90998000D01*
X171726860Y-90978000D01*
X171980860Y-90978000D01*
X171980860Y-90998000D01*
X173230540Y-90998000D01*
X173389290Y-90839250D01*
X173389290Y-90598641D01*
X173292617Y-90365252D01*
X173113989Y-90186623D01*
X172880600Y-90089950D01*
X172457162Y-90089950D01*
X172529500Y-89915310D01*
X172529500Y-88550750D01*
X172370750Y-88392000D01*
X171196000Y-88392000D01*
X171196000Y-88412000D01*
X170942000Y-88412000D01*
X170942000Y-88392000D01*
X169767250Y-88392000D01*
X169608500Y-88550750D01*
X168140000Y-88550750D01*
X168140000Y-86614690D01*
X169608500Y-86614690D01*
X169608500Y-87979250D01*
X169767250Y-88138000D01*
X170942000Y-88138000D01*
X170942000Y-86264750D01*
X171196000Y-86264750D01*
X171196000Y-88138000D01*
X172370750Y-88138000D01*
X172529500Y-87979250D01*
X172529500Y-86614690D01*
X172432827Y-86381301D01*
X172254198Y-86202673D01*
X172020809Y-86106000D01*
X171354750Y-86106000D01*
X171196000Y-86264750D01*
X170942000Y-86264750D01*
X170783250Y-86106000D01*
X170117191Y-86106000D01*
X169883802Y-86202673D01*
X169705173Y-86381301D01*
X169608500Y-86614690D01*
X168140000Y-86614690D01*
X168140000Y-84687132D01*
X169659560Y-83167572D01*
X169659560Y-84963000D01*
X169703838Y-85198317D01*
X169842910Y-85414441D01*
X170055110Y-85559431D01*
X170307000Y-85610440D01*
X176403000Y-85610440D01*
X176638317Y-85566162D01*
X176854441Y-85427090D01*
X176999431Y-85214890D01*
X177040000Y-85014554D01*
X177040000Y-86459587D01*
X176930590Y-86289559D01*
X176718390Y-86144569D01*
X176466500Y-86093560D01*
X174815500Y-86093560D01*
X174580183Y-86137838D01*
X174364059Y-86276910D01*
X174219069Y-86489110D01*
X174168060Y-86741000D01*
X174168060Y-89789000D01*
X174212338Y-90024317D01*
X174351410Y-90240441D01*
X174563610Y-90385431D01*
X174815500Y-90436440D01*
X174881000Y-90436440D01*
X174881000Y-90975338D01*
X174828828Y-91027510D01*
X173955710Y-91027510D01*
X173720393Y-91071788D01*
X173504269Y-91210860D01*
X173376458Y-91397918D01*
X173230540Y-91252000D01*
X171980860Y-91252000D01*
X171980860Y-91272000D01*
X171726860Y-91272000D01*
X171726860Y-91252000D01*
X170477180Y-91252000D01*
X170318430Y-91410750D01*
X170318430Y-91651359D01*
X170319298Y-91653455D01*
X170156028Y-91762548D01*
X167617598Y-94300978D01*
X167452851Y-94547540D01*
X167394999Y-94838379D01*
X167394999Y-96179370D01*
X167360213Y-96169392D01*
X166559605Y-96970000D01*
X166573748Y-96984143D01*
X166394143Y-97163748D01*
X166380000Y-97149605D01*
X166365858Y-97163748D01*
X166186253Y-96984143D01*
X166200395Y-96970000D01*
X165399787Y-96169392D01*
X165157603Y-96238857D01*
X164970856Y-96762302D01*
X164997619Y-97297001D01*
X163243642Y-97297001D01*
X161936428Y-95989787D01*
X165579392Y-95989787D01*
X166380000Y-96790395D01*
X167180608Y-95989787D01*
X167111143Y-95747603D01*
X166587698Y-95560856D01*
X166032632Y-95588638D01*
X165648857Y-95747603D01*
X165579392Y-95989787D01*
X161936428Y-95989787D01*
X161239063Y-95292422D01*
X161644947Y-95167390D01*
X162018080Y-94858474D01*
X162244592Y-94430281D01*
X162248462Y-94392609D01*
X162123731Y-94202000D01*
X160782000Y-94202000D01*
X160782000Y-94222000D01*
X160528000Y-94222000D01*
X160528000Y-94202000D01*
X160508000Y-94202000D01*
X160508000Y-93948000D01*
X160528000Y-93948000D01*
X160528000Y-93928000D01*
X160782000Y-93928000D01*
X160782000Y-93948000D01*
X162123731Y-93948000D01*
X162248462Y-93757391D01*
X162244592Y-93719719D01*
X162018080Y-93291526D01*
X161762845Y-93080218D01*
X161960309Y-92948277D01*
X162228023Y-92547614D01*
X162322032Y-92075000D01*
X162228023Y-91602386D01*
X161960309Y-91201723D01*
X161559646Y-90934009D01*
X161087032Y-90840000D01*
X160222968Y-90840000D01*
X160089990Y-90866451D01*
X160089990Y-83678549D01*
X160222968Y-83705000D01*
X161087032Y-83705000D01*
X161559646Y-83610991D01*
X161960309Y-83343277D01*
X162228023Y-82942614D01*
X162322032Y-82470000D01*
X162228023Y-81997386D01*
X161960309Y-81596723D01*
X161770654Y-81470000D01*
X161960309Y-81343277D01*
X162228023Y-80942614D01*
X162322032Y-80470000D01*
X162228023Y-79997386D01*
X161965840Y-79605000D01*
X162184868Y-79605000D01*
X165870000Y-83290132D01*
G36*
X178470910Y-60591441D02*
X178683110Y-60736431D01*
X178935000Y-60787440D01*
X178938458Y-60787440D01*
X177262599Y-62463299D01*
X177097852Y-62709861D01*
X177040000Y-63000700D01*
X177040000Y-64241216D01*
X177004827Y-64156301D01*
X176826198Y-63977673D01*
X176592809Y-63881000D01*
X176319231Y-63881000D01*
X176391570Y-63706359D01*
X176391570Y-63465750D01*
X176232820Y-63307000D01*
X174983140Y-63307000D01*
X174983140Y-63327000D01*
X174729140Y-63327000D01*
X174729140Y-63307000D01*
X173479460Y-63307000D01*
X173320710Y-63465750D01*
X173320710Y-63706359D01*
X173417383Y-63939748D01*
X173596011Y-64118377D01*
X173829400Y-64215050D01*
X174252838Y-64215050D01*
X174180500Y-64389690D01*
X174180500Y-65754250D01*
X174339250Y-65913000D01*
X175514000Y-65913000D01*
X175514000Y-65893000D01*
X175768000Y-65893000D01*
X175768000Y-65913000D01*
X175788000Y-65913000D01*
X175788000Y-66167000D01*
X175768000Y-66167000D01*
X175768000Y-68040250D01*
X175926750Y-68199000D01*
X176592809Y-68199000D01*
X176826198Y-68102327D01*
X177004827Y-67923699D01*
X177040000Y-67838784D01*
X177040000Y-69286516D01*
X177006162Y-69106683D01*
X176867090Y-68890559D01*
X176654890Y-68745569D01*
X176403000Y-68694560D01*
X170307000Y-68694560D01*
X170071683Y-68738838D01*
X169855559Y-68877910D01*
X169710569Y-69090110D01*
X169659560Y-69342000D01*
X169659560Y-71137428D01*
X168140000Y-69617868D01*
X168140000Y-65734734D01*
X168262874Y-65612074D01*
X168489372Y-65066607D01*
X168489888Y-64475984D01*
X168264342Y-63930123D01*
X167847074Y-63512126D01*
X167301607Y-63285628D01*
X167109672Y-63285460D01*
X169607693Y-60787440D01*
X169850000Y-60787440D01*
X170085317Y-60743162D01*
X170301441Y-60604090D01*
X170349134Y-60534289D01*
X170385910Y-60591441D01*
X170598110Y-60736431D01*
X170690000Y-60755039D01*
X170690000Y-61244878D01*
X170501989Y-61365860D01*
X170356999Y-61578060D01*
X170305990Y-61829950D01*
X170305990Y-62630050D01*
X170350268Y-62865367D01*
X170489340Y-63081491D01*
X170701540Y-63226481D01*
X170953430Y-63277490D01*
X171093860Y-63277490D01*
X171093860Y-63868560D01*
X170243500Y-63868560D01*
X170008183Y-63912838D01*
X169792059Y-64051910D01*
X169647069Y-64264110D01*
X169596060Y-64516000D01*
X169596060Y-67564000D01*
X169640338Y-67799317D01*
X169779410Y-68015441D01*
X169991610Y-68160431D01*
X170243500Y-68211440D01*
X171894500Y-68211440D01*
X172129817Y-68167162D01*
X172345941Y-68028090D01*
X172490931Y-67815890D01*
X172541940Y-67564000D01*
X172541940Y-66325750D01*
X174180500Y-66325750D01*
X174180500Y-67690310D01*
X174277173Y-67923699D01*
X174455802Y-68102327D01*
X174689191Y-68199000D01*
X175355250Y-68199000D01*
X175514000Y-68040250D01*
X175514000Y-66167000D01*
X174339250Y-66167000D01*
X174180500Y-66325750D01*
X172541940Y-66325750D01*
X172541940Y-65567033D01*
X172556008Y-65545979D01*
X172613860Y-65255140D01*
X172613860Y-63277490D01*
X172754290Y-63277490D01*
X172989607Y-63233212D01*
X173205731Y-63094140D01*
X173333542Y-62907082D01*
X173479460Y-63053000D01*
X174729140Y-63053000D01*
X174729140Y-63033000D01*
X174983140Y-63033000D01*
X174983140Y-63053000D01*
X176232820Y-63053000D01*
X176391570Y-62894250D01*
X176391570Y-62653641D01*
X176294897Y-62420252D01*
X176116269Y-62241623D01*
X176079918Y-62226566D01*
X176208011Y-62144140D01*
X176353001Y-61931940D01*
X176404010Y-61680050D01*
X176404010Y-60879950D01*
X176361351Y-60653237D01*
X176483110Y-60736431D01*
X176735000Y-60787440D01*
X177935000Y-60787440D01*
X178170317Y-60743162D01*
X178386441Y-60604090D01*
X178434134Y-60534289D01*
X178470910Y-60591441D01*
X178470910Y-60591441D01*
G37*
X178470910Y-60591441D02*
X178683110Y-60736431D01*
X178935000Y-60787440D01*
X178938458Y-60787440D01*
X177262599Y-62463299D01*
X177097852Y-62709861D01*
X177040000Y-63000700D01*
X177040000Y-64241216D01*
X177004827Y-64156301D01*
X176826198Y-63977673D01*
X176592809Y-63881000D01*
X176319231Y-63881000D01*
X176391570Y-63706359D01*
X176391570Y-63465750D01*
X176232820Y-63307000D01*
X174983140Y-63307000D01*
X174983140Y-63327000D01*
X174729140Y-63327000D01*
X174729140Y-63307000D01*
X173479460Y-63307000D01*
X173320710Y-63465750D01*
X173320710Y-63706359D01*
X173417383Y-63939748D01*
X173596011Y-64118377D01*
X173829400Y-64215050D01*
X174252838Y-64215050D01*
X174180500Y-64389690D01*
X174180500Y-65754250D01*
X174339250Y-65913000D01*
X175514000Y-65913000D01*
X175514000Y-65893000D01*
X175768000Y-65893000D01*
X175768000Y-65913000D01*
X175788000Y-65913000D01*
X175788000Y-66167000D01*
X175768000Y-66167000D01*
X175768000Y-68040250D01*
X175926750Y-68199000D01*
X176592809Y-68199000D01*
X176826198Y-68102327D01*
X177004827Y-67923699D01*
X177040000Y-67838784D01*
X177040000Y-69286516D01*
X177006162Y-69106683D01*
X176867090Y-68890559D01*
X176654890Y-68745569D01*
X176403000Y-68694560D01*
X170307000Y-68694560D01*
X170071683Y-68738838D01*
X169855559Y-68877910D01*
X169710569Y-69090110D01*
X169659560Y-69342000D01*
X169659560Y-71137428D01*
X168140000Y-69617868D01*
X168140000Y-65734734D01*
X168262874Y-65612074D01*
X168489372Y-65066607D01*
X168489888Y-64475984D01*
X168264342Y-63930123D01*
X167847074Y-63512126D01*
X167301607Y-63285628D01*
X167109672Y-63285460D01*
X169607693Y-60787440D01*
X169850000Y-60787440D01*
X170085317Y-60743162D01*
X170301441Y-60604090D01*
X170349134Y-60534289D01*
X170385910Y-60591441D01*
X170598110Y-60736431D01*
X170690000Y-60755039D01*
X170690000Y-61244878D01*
X170501989Y-61365860D01*
X170356999Y-61578060D01*
X170305990Y-61829950D01*
X170305990Y-62630050D01*
X170350268Y-62865367D01*
X170489340Y-63081491D01*
X170701540Y-63226481D01*
X170953430Y-63277490D01*
X171093860Y-63277490D01*
X171093860Y-63868560D01*
X170243500Y-63868560D01*
X170008183Y-63912838D01*
X169792059Y-64051910D01*
X169647069Y-64264110D01*
X169596060Y-64516000D01*
X169596060Y-67564000D01*
X169640338Y-67799317D01*
X169779410Y-68015441D01*
X169991610Y-68160431D01*
X170243500Y-68211440D01*
X171894500Y-68211440D01*
X172129817Y-68167162D01*
X172345941Y-68028090D01*
X172490931Y-67815890D01*
X172541940Y-67564000D01*
X172541940Y-66325750D01*
X174180500Y-66325750D01*
X174180500Y-67690310D01*
X174277173Y-67923699D01*
X174455802Y-68102327D01*
X174689191Y-68199000D01*
X175355250Y-68199000D01*
X175514000Y-68040250D01*
X175514000Y-66167000D01*
X174339250Y-66167000D01*
X174180500Y-66325750D01*
X172541940Y-66325750D01*
X172541940Y-65567033D01*
X172556008Y-65545979D01*
X172613860Y-65255140D01*
X172613860Y-63277490D01*
X172754290Y-63277490D01*
X172989607Y-63233212D01*
X173205731Y-63094140D01*
X173333542Y-62907082D01*
X173479460Y-63053000D01*
X174729140Y-63053000D01*
X174729140Y-63033000D01*
X174983140Y-63033000D01*
X174983140Y-63053000D01*
X176232820Y-63053000D01*
X176391570Y-62894250D01*
X176391570Y-62653641D01*
X176294897Y-62420252D01*
X176116269Y-62241623D01*
X176079918Y-62226566D01*
X176208011Y-62144140D01*
X176353001Y-61931940D01*
X176404010Y-61680050D01*
X176404010Y-60879950D01*
X176361351Y-60653237D01*
X176483110Y-60736431D01*
X176735000Y-60787440D01*
X177935000Y-60787440D01*
X178170317Y-60743162D01*
X178386441Y-60604090D01*
X178434134Y-60534289D01*
X178470910Y-60591441D01*
G36*
X213945000Y-52988736D02*
X213945000Y-64135000D01*
X213997143Y-64397138D01*
X214145632Y-64619368D01*
X216485000Y-66958736D01*
X216485000Y-100046264D01*
X214145632Y-102385632D01*
X213997143Y-102607862D01*
X213945000Y-102870000D01*
X213945000Y-104090000D01*
X212849368Y-104090000D01*
X212988928Y-103996749D01*
X213291760Y-103543530D01*
X213398100Y-103008921D01*
X213398100Y-101918279D01*
X213291760Y-101383670D01*
X212988928Y-100930451D01*
X212535709Y-100627619D01*
X212001100Y-100521279D01*
X211466491Y-100627619D01*
X211013272Y-100930451D01*
X210731100Y-101352750D01*
X210448928Y-100930451D01*
X209995709Y-100627619D01*
X209461100Y-100521279D01*
X208926491Y-100627619D01*
X208473272Y-100930451D01*
X208191100Y-101352750D01*
X207908928Y-100930451D01*
X207455709Y-100627619D01*
X206921100Y-100521279D01*
X206386491Y-100627619D01*
X205933272Y-100930451D01*
X205651100Y-101352750D01*
X205368928Y-100930451D01*
X204915709Y-100627619D01*
X204381100Y-100521279D01*
X203846491Y-100627619D01*
X203393272Y-100930451D01*
X203111100Y-101352750D01*
X202828928Y-100930451D01*
X202375709Y-100627619D01*
X201841100Y-100521279D01*
X201306491Y-100627619D01*
X200853272Y-100930451D01*
X200571100Y-101352750D01*
X200288928Y-100930451D01*
X199835709Y-100627619D01*
X199301100Y-100521279D01*
X198766491Y-100627619D01*
X198313272Y-100930451D01*
X198010440Y-101383670D01*
X197904100Y-101918279D01*
X197904100Y-103008921D01*
X198010440Y-103543530D01*
X198313272Y-103996749D01*
X198452832Y-104090000D01*
X195069368Y-104090000D01*
X195208928Y-103996749D01*
X195511760Y-103543530D01*
X195618100Y-103008921D01*
X195618100Y-101918279D01*
X195511760Y-101383670D01*
X195208928Y-100930451D01*
X194755709Y-100627619D01*
X194221100Y-100521279D01*
X193686491Y-100627619D01*
X193233272Y-100930451D01*
X192941770Y-101366713D01*
X192923159Y-101303659D01*
X192579126Y-100877970D01*
X192098377Y-100616340D01*
X192024170Y-100601380D01*
X191808100Y-100723880D01*
X191808100Y-102336600D01*
X191828100Y-102336600D01*
X191828100Y-102590600D01*
X191808100Y-102590600D01*
X191808100Y-102610600D01*
X191554100Y-102610600D01*
X191554100Y-102590600D01*
X189268100Y-102590600D01*
X189268100Y-102610600D01*
X189014100Y-102610600D01*
X189014100Y-102590600D01*
X188994100Y-102590600D01*
X188994100Y-102336600D01*
X189014100Y-102336600D01*
X189014100Y-100723880D01*
X189268100Y-100723880D01*
X189268100Y-102336600D01*
X191554100Y-102336600D01*
X191554100Y-100723880D01*
X191338030Y-100601380D01*
X191263823Y-100616340D01*
X190783074Y-100877970D01*
X190439041Y-101303659D01*
X190411100Y-101398323D01*
X190383159Y-101303659D01*
X190039126Y-100877970D01*
X189558377Y-100616340D01*
X189484170Y-100601380D01*
X189268100Y-100723880D01*
X189014100Y-100723880D01*
X188798030Y-100601380D01*
X188723823Y-100616340D01*
X188243074Y-100877970D01*
X187899041Y-101303659D01*
X187880430Y-101366713D01*
X187588928Y-100930451D01*
X187135709Y-100627619D01*
X186601100Y-100521279D01*
X186066491Y-100627619D01*
X185613272Y-100930451D01*
X185331100Y-101352750D01*
X185048928Y-100930451D01*
X184595709Y-100627619D01*
X184061100Y-100521279D01*
X183526491Y-100627619D01*
X183073272Y-100930451D01*
X182791100Y-101352750D01*
X182508928Y-100930451D01*
X182055709Y-100627619D01*
X181521100Y-100521279D01*
X180986491Y-100627619D01*
X180533272Y-100930451D01*
X180230440Y-101383670D01*
X180124100Y-101918279D01*
X180124100Y-103008921D01*
X180230440Y-103543530D01*
X180533272Y-103996749D01*
X180672832Y-104090000D01*
X154990000Y-104090000D01*
X154990000Y-63100000D01*
X157520000Y-63100000D01*
X157520000Y-68870000D01*
X157606397Y-69304346D01*
X157631557Y-69342000D01*
X157852434Y-69672566D01*
X159520000Y-71340132D01*
X159520000Y-71482926D01*
X159349691Y-71596723D01*
X159081977Y-71997386D01*
X159031816Y-72249561D01*
X157852434Y-73428943D01*
X157606397Y-73797163D01*
X157520000Y-74231509D01*
X157520000Y-74870000D01*
X157606397Y-75304346D01*
X157695702Y-75438000D01*
X157852434Y-75672566D01*
X158730623Y-76550755D01*
X158152424Y-77128953D01*
X157906387Y-77497173D01*
X157819990Y-77931519D01*
X157819990Y-94613481D01*
X157906387Y-95047827D01*
X158108847Y-95350829D01*
X158152424Y-95416047D01*
X161970944Y-99234567D01*
X162339164Y-99480604D01*
X162773510Y-99567001D01*
X172552999Y-99567001D01*
X172987345Y-99480604D01*
X173355565Y-99234567D01*
X175343471Y-97246661D01*
X181482758Y-97246661D01*
X181694990Y-97760303D01*
X182087630Y-98153629D01*
X182600900Y-98366757D01*
X183156661Y-98367242D01*
X183670303Y-98155010D01*
X184063629Y-97762370D01*
X184276757Y-97249100D01*
X184277242Y-96693339D01*
X184065010Y-96179697D01*
X183672370Y-95786371D01*
X183159100Y-95573243D01*
X182603339Y-95572758D01*
X182089697Y-95784990D01*
X181696371Y-96177630D01*
X181483243Y-96690900D01*
X181482758Y-97246661D01*
X175343471Y-97246661D01*
X175570132Y-97020000D01*
X176700000Y-97020000D01*
X176888826Y-96982440D01*
X177300000Y-96982440D01*
X177535317Y-96938162D01*
X177751441Y-96799090D01*
X177799134Y-96729289D01*
X177835910Y-96786441D01*
X178048110Y-96931431D01*
X178300000Y-96982440D01*
X179500000Y-96982440D01*
X179735317Y-96938162D01*
X179951441Y-96799090D01*
X180096431Y-96586890D01*
X180147440Y-96335000D01*
X180147440Y-95435000D01*
X180103162Y-95199683D01*
X179964090Y-94983559D01*
X179751890Y-94838569D01*
X179500000Y-94787560D01*
X178727362Y-94787560D01*
X178462391Y-94522589D01*
X178215829Y-94357842D01*
X177924990Y-94299990D01*
X175591434Y-94299990D01*
X178337401Y-91554023D01*
X178502148Y-91307462D01*
X178560000Y-91016622D01*
X178560000Y-80683542D01*
X189250320Y-80683542D01*
X189250320Y-82287938D01*
X189393783Y-83009174D01*
X189802330Y-83620608D01*
X190413764Y-84029155D01*
X191135000Y-84172618D01*
X191856236Y-84029155D01*
X192467670Y-83620608D01*
X192876217Y-83009174D01*
X193019680Y-82287938D01*
X193019680Y-80683542D01*
X192876217Y-79962306D01*
X192467670Y-79350872D01*
X191856236Y-78942325D01*
X191135000Y-78798862D01*
X190413764Y-78942325D01*
X189802330Y-79350872D01*
X189393783Y-79962306D01*
X189250320Y-80683542D01*
X178560000Y-80683542D01*
X178560000Y-63315502D01*
X181671661Y-60203841D01*
X181694990Y-60260303D01*
X182087630Y-60653629D01*
X182600900Y-60866757D01*
X183156661Y-60867242D01*
X183670303Y-60655010D01*
X184063629Y-60262370D01*
X184276757Y-59749100D01*
X184277242Y-59193339D01*
X184065988Y-58682062D01*
X189250320Y-58682062D01*
X189250320Y-60286458D01*
X189393783Y-61007694D01*
X189802330Y-61619128D01*
X190413764Y-62027675D01*
X191135000Y-62171138D01*
X191856236Y-62027675D01*
X192467670Y-61619128D01*
X192876217Y-61007694D01*
X193019680Y-60286458D01*
X193019680Y-58682062D01*
X192876217Y-57960826D01*
X192467670Y-57349392D01*
X191856236Y-56940845D01*
X191135000Y-56797382D01*
X190413764Y-56940845D01*
X189802330Y-57349392D01*
X189393783Y-57960826D01*
X189250320Y-58682062D01*
X184065988Y-58682062D01*
X184065010Y-58679697D01*
X183672370Y-58286371D01*
X183613554Y-58261948D01*
X185614501Y-56261001D01*
X185779248Y-56014439D01*
X185799161Y-55914329D01*
X186064928Y-55736749D01*
X186347100Y-55314450D01*
X186629272Y-55736749D01*
X187082491Y-56039581D01*
X187617100Y-56145921D01*
X188151709Y-56039581D01*
X188604928Y-55736749D01*
X188887100Y-55314450D01*
X189169272Y-55736749D01*
X189622491Y-56039581D01*
X190157100Y-56145921D01*
X190691709Y-56039581D01*
X191144928Y-55736749D01*
X191447760Y-55283530D01*
X191554100Y-54748921D01*
X191554100Y-53658279D01*
X192824100Y-53658279D01*
X192824100Y-54748921D01*
X192930440Y-55283530D01*
X193233272Y-55736749D01*
X193686491Y-56039581D01*
X194221100Y-56145921D01*
X194755709Y-56039581D01*
X195208928Y-55736749D01*
X195491100Y-55314450D01*
X195773272Y-55736749D01*
X196226491Y-56039581D01*
X196761100Y-56145921D01*
X197295709Y-56039581D01*
X197748928Y-55736749D01*
X198031100Y-55314450D01*
X198313272Y-55736749D01*
X198766491Y-56039581D01*
X199301100Y-56145921D01*
X199835709Y-56039581D01*
X200288928Y-55736749D01*
X200571100Y-55314450D01*
X200853272Y-55736749D01*
X201306491Y-56039581D01*
X201841100Y-56145921D01*
X202375709Y-56039581D01*
X202828928Y-55736749D01*
X203111100Y-55314450D01*
X203393272Y-55736749D01*
X203846491Y-56039581D01*
X204381100Y-56145921D01*
X204915709Y-56039581D01*
X205368928Y-55736749D01*
X205651100Y-55314450D01*
X205933272Y-55736749D01*
X206386491Y-56039581D01*
X206921100Y-56145921D01*
X207455709Y-56039581D01*
X207908928Y-55736749D01*
X208191100Y-55314450D01*
X208473272Y-55736749D01*
X208926491Y-56039581D01*
X209461100Y-56145921D01*
X209995709Y-56039581D01*
X210448928Y-55736749D01*
X210731100Y-55314450D01*
X211013272Y-55736749D01*
X211466491Y-56039581D01*
X212001100Y-56145921D01*
X212535709Y-56039581D01*
X212988928Y-55736749D01*
X213291760Y-55283530D01*
X213398100Y-54748921D01*
X213398100Y-53658279D01*
X213291760Y-53123670D01*
X212988928Y-52670451D01*
X212535709Y-52367619D01*
X212001100Y-52261279D01*
X211466491Y-52367619D01*
X211013272Y-52670451D01*
X210731100Y-53092750D01*
X210448928Y-52670451D01*
X209995709Y-52367619D01*
X209461100Y-52261279D01*
X208926491Y-52367619D01*
X208473272Y-52670451D01*
X208191100Y-53092750D01*
X207908928Y-52670451D01*
X207455709Y-52367619D01*
X206921100Y-52261279D01*
X206386491Y-52367619D01*
X205933272Y-52670451D01*
X205651100Y-53092750D01*
X205368928Y-52670451D01*
X204915709Y-52367619D01*
X204381100Y-52261279D01*
X203846491Y-52367619D01*
X203393272Y-52670451D01*
X203111100Y-53092750D01*
X202828928Y-52670451D01*
X202375709Y-52367619D01*
X201841100Y-52261279D01*
X201306491Y-52367619D01*
X200853272Y-52670451D01*
X200571100Y-53092750D01*
X200288928Y-52670451D01*
X199835709Y-52367619D01*
X199301100Y-52261279D01*
X198766491Y-52367619D01*
X198313272Y-52670451D01*
X198031100Y-53092750D01*
X197748928Y-52670451D01*
X197295709Y-52367619D01*
X196761100Y-52261279D01*
X196226491Y-52367619D01*
X195773272Y-52670451D01*
X195491100Y-53092750D01*
X195208928Y-52670451D01*
X194755709Y-52367619D01*
X194221100Y-52261279D01*
X193686491Y-52367619D01*
X193233272Y-52670451D01*
X192930440Y-53123670D01*
X192824100Y-53658279D01*
X191554100Y-53658279D01*
X191447760Y-53123670D01*
X191144928Y-52670451D01*
X190691709Y-52367619D01*
X190157100Y-52261279D01*
X189622491Y-52367619D01*
X189169272Y-52670451D01*
X188887100Y-53092750D01*
X188604928Y-52670451D01*
X188151709Y-52367619D01*
X187617100Y-52261279D01*
X187082491Y-52367619D01*
X186629272Y-52670451D01*
X186347100Y-53092750D01*
X186064928Y-52670451D01*
X185611709Y-52367619D01*
X185077100Y-52261279D01*
X184542491Y-52367619D01*
X184089272Y-52670451D01*
X183807100Y-53092750D01*
X183524928Y-52670451D01*
X183071709Y-52367619D01*
X182537100Y-52261279D01*
X182002491Y-52367619D01*
X181549272Y-52670451D01*
X181267100Y-53092750D01*
X180984928Y-52670451D01*
X180531709Y-52367619D01*
X179997100Y-52261279D01*
X179462491Y-52367619D01*
X179009272Y-52670451D01*
X178727100Y-53092750D01*
X178444928Y-52670451D01*
X177991709Y-52367619D01*
X177457100Y-52261279D01*
X176922491Y-52367619D01*
X176469272Y-52670451D01*
X176177770Y-53106713D01*
X176159159Y-53043659D01*
X175815126Y-52617970D01*
X175334377Y-52356340D01*
X175260170Y-52341380D01*
X175044100Y-52463880D01*
X175044100Y-54076600D01*
X175064100Y-54076600D01*
X175064100Y-54330600D01*
X175044100Y-54330600D01*
X175044100Y-55943320D01*
X175260170Y-56065820D01*
X175334377Y-56050860D01*
X175815126Y-55789230D01*
X176159159Y-55363541D01*
X176177770Y-55300487D01*
X176469272Y-55736749D01*
X176922491Y-56039581D01*
X177457100Y-56145921D01*
X177991709Y-56039581D01*
X178444928Y-55736749D01*
X178727100Y-55314450D01*
X179009272Y-55736749D01*
X179462491Y-56039581D01*
X179997100Y-56145921D01*
X180531709Y-56039581D01*
X180984928Y-55736749D01*
X181267100Y-55314450D01*
X181549272Y-55736749D01*
X181777100Y-55888979D01*
X181777100Y-56523097D01*
X179707638Y-58592560D01*
X178935000Y-58592560D01*
X178699683Y-58636838D01*
X178483559Y-58775910D01*
X178435866Y-58845711D01*
X178399090Y-58788559D01*
X178186890Y-58643569D01*
X177935000Y-58592560D01*
X176735000Y-58592560D01*
X176499683Y-58636838D01*
X176283559Y-58775910D01*
X176178274Y-58930000D01*
X175796090Y-58930000D01*
X175505251Y-58987852D01*
X175258689Y-59152599D01*
X174318739Y-60092549D01*
X174225220Y-60232510D01*
X173955710Y-60232510D01*
X173720393Y-60276788D01*
X173504269Y-60415860D01*
X173359279Y-60628060D01*
X173308270Y-60879950D01*
X173308270Y-61518202D01*
X173218380Y-61378509D01*
X173006180Y-61233519D01*
X172754290Y-61182510D01*
X172210000Y-61182510D01*
X172210000Y-60757334D01*
X172285317Y-60743162D01*
X172501441Y-60604090D01*
X172646431Y-60391890D01*
X172697440Y-60140000D01*
X172697440Y-59240000D01*
X172653162Y-59004683D01*
X172514090Y-58788559D01*
X172301890Y-58643569D01*
X172050000Y-58592560D01*
X170850000Y-58592560D01*
X170614683Y-58636838D01*
X170398559Y-58775910D01*
X170350866Y-58845711D01*
X170314090Y-58788559D01*
X170101890Y-58643569D01*
X169850000Y-58592560D01*
X169438826Y-58592560D01*
X169250000Y-58555000D01*
X169100000Y-58555000D01*
X168911172Y-58592560D01*
X168650000Y-58592560D01*
X168414683Y-58636838D01*
X168198559Y-58775910D01*
X168053569Y-58988110D01*
X168017210Y-59167657D01*
X167775703Y-59409164D01*
X167761362Y-59122632D01*
X167602397Y-58738857D01*
X167360213Y-58669392D01*
X166559605Y-59470000D01*
X166573748Y-59484143D01*
X166394143Y-59663748D01*
X166380000Y-59649605D01*
X165579392Y-60450213D01*
X165648857Y-60692397D01*
X166172302Y-60879144D01*
X166312753Y-60872114D01*
X159852434Y-67332434D01*
X159790000Y-67425873D01*
X159790000Y-64630880D01*
X160128000Y-64735000D01*
X160528000Y-64735000D01*
X160528000Y-63627000D01*
X160782000Y-63627000D01*
X160782000Y-64735000D01*
X161182000Y-64735000D01*
X161644947Y-64592390D01*
X162018080Y-64283474D01*
X162244592Y-63855281D01*
X162248462Y-63817609D01*
X162123731Y-63627000D01*
X160782000Y-63627000D01*
X160528000Y-63627000D01*
X160508000Y-63627000D01*
X160508000Y-63373000D01*
X160528000Y-63373000D01*
X160528000Y-63353000D01*
X160782000Y-63353000D01*
X160782000Y-63373000D01*
X162123731Y-63373000D01*
X162248462Y-63182391D01*
X162244592Y-63144719D01*
X162018080Y-62716526D01*
X161762845Y-62505218D01*
X161960309Y-62373277D01*
X162228023Y-61972614D01*
X162322032Y-61500000D01*
X162228023Y-61027386D01*
X161960309Y-60626723D01*
X161559646Y-60359009D01*
X161087032Y-60265000D01*
X160222968Y-60265000D01*
X159750354Y-60359009D01*
X159349691Y-60626723D01*
X159081977Y-61027386D01*
X159071919Y-61077949D01*
X157852434Y-62297434D01*
X157606397Y-62665654D01*
X157520000Y-63100000D01*
X154990000Y-63100000D01*
X154990000Y-59262302D01*
X164970856Y-59262302D01*
X164998638Y-59817368D01*
X165157603Y-60201143D01*
X165399787Y-60270608D01*
X166200395Y-59470000D01*
X165399787Y-58669392D01*
X165157603Y-58738857D01*
X164970856Y-59262302D01*
X154990000Y-59262302D01*
X154990000Y-58489787D01*
X165579392Y-58489787D01*
X166380000Y-59290395D01*
X167180608Y-58489787D01*
X167111143Y-58247603D01*
X166587698Y-58060856D01*
X166032632Y-58088638D01*
X165648857Y-58247603D01*
X165579392Y-58489787D01*
X154990000Y-58489787D01*
X154990000Y-53658279D01*
X170980100Y-53658279D01*
X170980100Y-54748921D01*
X171086440Y-55283530D01*
X171389272Y-55736749D01*
X171842491Y-56039581D01*
X172377100Y-56145921D01*
X172911709Y-56039581D01*
X173364928Y-55736749D01*
X173656430Y-55300487D01*
X173675041Y-55363541D01*
X174019074Y-55789230D01*
X174499823Y-56050860D01*
X174574030Y-56065820D01*
X174790100Y-55943320D01*
X174790100Y-54330600D01*
X174770100Y-54330600D01*
X174770100Y-54076600D01*
X174790100Y-54076600D01*
X174790100Y-52463880D01*
X174574030Y-52341380D01*
X174499823Y-52356340D01*
X174019074Y-52617970D01*
X173675041Y-53043659D01*
X173656430Y-53106713D01*
X173364928Y-52670451D01*
X172911709Y-52367619D01*
X172377100Y-52261279D01*
X171842491Y-52367619D01*
X171389272Y-52670451D01*
X171086440Y-53123670D01*
X170980100Y-53658279D01*
X154990000Y-53658279D01*
X154990000Y-52120000D01*
X213076264Y-52120000D01*
X213945000Y-52988736D01*
X213945000Y-52988736D01*
G37*
X213945000Y-52988736D02*
X213945000Y-64135000D01*
X213997143Y-64397138D01*
X214145632Y-64619368D01*
X216485000Y-66958736D01*
X216485000Y-100046264D01*
X214145632Y-102385632D01*
X213997143Y-102607862D01*
X213945000Y-102870000D01*
X213945000Y-104090000D01*
X212849368Y-104090000D01*
X212988928Y-103996749D01*
X213291760Y-103543530D01*
X213398100Y-103008921D01*
X213398100Y-101918279D01*
X213291760Y-101383670D01*
X212988928Y-100930451D01*
X212535709Y-100627619D01*
X212001100Y-100521279D01*
X211466491Y-100627619D01*
X211013272Y-100930451D01*
X210731100Y-101352750D01*
X210448928Y-100930451D01*
X209995709Y-100627619D01*
X209461100Y-100521279D01*
X208926491Y-100627619D01*
X208473272Y-100930451D01*
X208191100Y-101352750D01*
X207908928Y-100930451D01*
X207455709Y-100627619D01*
X206921100Y-100521279D01*
X206386491Y-100627619D01*
X205933272Y-100930451D01*
X205651100Y-101352750D01*
X205368928Y-100930451D01*
X204915709Y-100627619D01*
X204381100Y-100521279D01*
X203846491Y-100627619D01*
X203393272Y-100930451D01*
X203111100Y-101352750D01*
X202828928Y-100930451D01*
X202375709Y-100627619D01*
X201841100Y-100521279D01*
X201306491Y-100627619D01*
X200853272Y-100930451D01*
X200571100Y-101352750D01*
X200288928Y-100930451D01*
X199835709Y-100627619D01*
X199301100Y-100521279D01*
X198766491Y-100627619D01*
X198313272Y-100930451D01*
X198010440Y-101383670D01*
X197904100Y-101918279D01*
X197904100Y-103008921D01*
X198010440Y-103543530D01*
X198313272Y-103996749D01*
X198452832Y-104090000D01*
X195069368Y-104090000D01*
X195208928Y-103996749D01*
X195511760Y-103543530D01*
X195618100Y-103008921D01*
X195618100Y-101918279D01*
X195511760Y-101383670D01*
X195208928Y-100930451D01*
X194755709Y-100627619D01*
X194221100Y-100521279D01*
X193686491Y-100627619D01*
X193233272Y-100930451D01*
X192941770Y-101366713D01*
X192923159Y-101303659D01*
X192579126Y-100877970D01*
X192098377Y-100616340D01*
X192024170Y-100601380D01*
X191808100Y-100723880D01*
X191808100Y-102336600D01*
X191828100Y-102336600D01*
X191828100Y-102590600D01*
X191808100Y-102590600D01*
X191808100Y-102610600D01*
X191554100Y-102610600D01*
X191554100Y-102590600D01*
X189268100Y-102590600D01*
X189268100Y-102610600D01*
X189014100Y-102610600D01*
X189014100Y-102590600D01*
X188994100Y-102590600D01*
X188994100Y-102336600D01*
X189014100Y-102336600D01*
X189014100Y-100723880D01*
X189268100Y-100723880D01*
X189268100Y-102336600D01*
X191554100Y-102336600D01*
X191554100Y-100723880D01*
X191338030Y-100601380D01*
X191263823Y-100616340D01*
X190783074Y-100877970D01*
X190439041Y-101303659D01*
X190411100Y-101398323D01*
X190383159Y-101303659D01*
X190039126Y-100877970D01*
X189558377Y-100616340D01*
X189484170Y-100601380D01*
X189268100Y-100723880D01*
X189014100Y-100723880D01*
X188798030Y-100601380D01*
X188723823Y-100616340D01*
X188243074Y-100877970D01*
X187899041Y-101303659D01*
X187880430Y-101366713D01*
X187588928Y-100930451D01*
X187135709Y-100627619D01*
X186601100Y-100521279D01*
X186066491Y-100627619D01*
X185613272Y-100930451D01*
X185331100Y-101352750D01*
X185048928Y-100930451D01*
X184595709Y-100627619D01*
X184061100Y-100521279D01*
X183526491Y-100627619D01*
X183073272Y-100930451D01*
X182791100Y-101352750D01*
X182508928Y-100930451D01*
X182055709Y-100627619D01*
X181521100Y-100521279D01*
X180986491Y-100627619D01*
X180533272Y-100930451D01*
X180230440Y-101383670D01*
X180124100Y-101918279D01*
X180124100Y-103008921D01*
X180230440Y-103543530D01*
X180533272Y-103996749D01*
X180672832Y-104090000D01*
X154990000Y-104090000D01*
X154990000Y-63100000D01*
X157520000Y-63100000D01*
X157520000Y-68870000D01*
X157606397Y-69304346D01*
X157631557Y-69342000D01*
X157852434Y-69672566D01*
X159520000Y-71340132D01*
X159520000Y-71482926D01*
X159349691Y-71596723D01*
X159081977Y-71997386D01*
X159031816Y-72249561D01*
X157852434Y-73428943D01*
X157606397Y-73797163D01*
X157520000Y-74231509D01*
X157520000Y-74870000D01*
X157606397Y-75304346D01*
X157695702Y-75438000D01*
X157852434Y-75672566D01*
X158730623Y-76550755D01*
X158152424Y-77128953D01*
X157906387Y-77497173D01*
X157819990Y-77931519D01*
X157819990Y-94613481D01*
X157906387Y-95047827D01*
X158108847Y-95350829D01*
X158152424Y-95416047D01*
X161970944Y-99234567D01*
X162339164Y-99480604D01*
X162773510Y-99567001D01*
X172552999Y-99567001D01*
X172987345Y-99480604D01*
X173355565Y-99234567D01*
X175343471Y-97246661D01*
X181482758Y-97246661D01*
X181694990Y-97760303D01*
X182087630Y-98153629D01*
X182600900Y-98366757D01*
X183156661Y-98367242D01*
X183670303Y-98155010D01*
X184063629Y-97762370D01*
X184276757Y-97249100D01*
X184277242Y-96693339D01*
X184065010Y-96179697D01*
X183672370Y-95786371D01*
X183159100Y-95573243D01*
X182603339Y-95572758D01*
X182089697Y-95784990D01*
X181696371Y-96177630D01*
X181483243Y-96690900D01*
X181482758Y-97246661D01*
X175343471Y-97246661D01*
X175570132Y-97020000D01*
X176700000Y-97020000D01*
X176888826Y-96982440D01*
X177300000Y-96982440D01*
X177535317Y-96938162D01*
X177751441Y-96799090D01*
X177799134Y-96729289D01*
X177835910Y-96786441D01*
X178048110Y-96931431D01*
X178300000Y-96982440D01*
X179500000Y-96982440D01*
X179735317Y-96938162D01*
X179951441Y-96799090D01*
X180096431Y-96586890D01*
X180147440Y-96335000D01*
X180147440Y-95435000D01*
X180103162Y-95199683D01*
X179964090Y-94983559D01*
X179751890Y-94838569D01*
X179500000Y-94787560D01*
X178727362Y-94787560D01*
X178462391Y-94522589D01*
X178215829Y-94357842D01*
X177924990Y-94299990D01*
X175591434Y-94299990D01*
X178337401Y-91554023D01*
X178502148Y-91307462D01*
X178560000Y-91016622D01*
X178560000Y-80683542D01*
X189250320Y-80683542D01*
X189250320Y-82287938D01*
X189393783Y-83009174D01*
X189802330Y-83620608D01*
X190413764Y-84029155D01*
X191135000Y-84172618D01*
X191856236Y-84029155D01*
X192467670Y-83620608D01*
X192876217Y-83009174D01*
X193019680Y-82287938D01*
X193019680Y-80683542D01*
X192876217Y-79962306D01*
X192467670Y-79350872D01*
X191856236Y-78942325D01*
X191135000Y-78798862D01*
X190413764Y-78942325D01*
X189802330Y-79350872D01*
X189393783Y-79962306D01*
X189250320Y-80683542D01*
X178560000Y-80683542D01*
X178560000Y-63315502D01*
X181671661Y-60203841D01*
X181694990Y-60260303D01*
X182087630Y-60653629D01*
X182600900Y-60866757D01*
X183156661Y-60867242D01*
X183670303Y-60655010D01*
X184063629Y-60262370D01*
X184276757Y-59749100D01*
X184277242Y-59193339D01*
X184065988Y-58682062D01*
X189250320Y-58682062D01*
X189250320Y-60286458D01*
X189393783Y-61007694D01*
X189802330Y-61619128D01*
X190413764Y-62027675D01*
X191135000Y-62171138D01*
X191856236Y-62027675D01*
X192467670Y-61619128D01*
X192876217Y-61007694D01*
X193019680Y-60286458D01*
X193019680Y-58682062D01*
X192876217Y-57960826D01*
X192467670Y-57349392D01*
X191856236Y-56940845D01*
X191135000Y-56797382D01*
X190413764Y-56940845D01*
X189802330Y-57349392D01*
X189393783Y-57960826D01*
X189250320Y-58682062D01*
X184065988Y-58682062D01*
X184065010Y-58679697D01*
X183672370Y-58286371D01*
X183613554Y-58261948D01*
X185614501Y-56261001D01*
X185779248Y-56014439D01*
X185799161Y-55914329D01*
X186064928Y-55736749D01*
X186347100Y-55314450D01*
X186629272Y-55736749D01*
X187082491Y-56039581D01*
X187617100Y-56145921D01*
X188151709Y-56039581D01*
X188604928Y-55736749D01*
X188887100Y-55314450D01*
X189169272Y-55736749D01*
X189622491Y-56039581D01*
X190157100Y-56145921D01*
X190691709Y-56039581D01*
X191144928Y-55736749D01*
X191447760Y-55283530D01*
X191554100Y-54748921D01*
X191554100Y-53658279D01*
X192824100Y-53658279D01*
X192824100Y-54748921D01*
X192930440Y-55283530D01*
X193233272Y-55736749D01*
X193686491Y-56039581D01*
X194221100Y-56145921D01*
X194755709Y-56039581D01*
X195208928Y-55736749D01*
X195491100Y-55314450D01*
X195773272Y-55736749D01*
X196226491Y-56039581D01*
X196761100Y-56145921D01*
X197295709Y-56039581D01*
X197748928Y-55736749D01*
X198031100Y-55314450D01*
X198313272Y-55736749D01*
X198766491Y-56039581D01*
X199301100Y-56145921D01*
X199835709Y-56039581D01*
X200288928Y-55736749D01*
X200571100Y-55314450D01*
X200853272Y-55736749D01*
X201306491Y-56039581D01*
X201841100Y-56145921D01*
X202375709Y-56039581D01*
X202828928Y-55736749D01*
X203111100Y-55314450D01*
X203393272Y-55736749D01*
X203846491Y-56039581D01*
X204381100Y-56145921D01*
X204915709Y-56039581D01*
X205368928Y-55736749D01*
X205651100Y-55314450D01*
X205933272Y-55736749D01*
X206386491Y-56039581D01*
X206921100Y-56145921D01*
X207455709Y-56039581D01*
X207908928Y-55736749D01*
X208191100Y-55314450D01*
X208473272Y-55736749D01*
X208926491Y-56039581D01*
X209461100Y-56145921D01*
X209995709Y-56039581D01*
X210448928Y-55736749D01*
X210731100Y-55314450D01*
X211013272Y-55736749D01*
X211466491Y-56039581D01*
X212001100Y-56145921D01*
X212535709Y-56039581D01*
X212988928Y-55736749D01*
X213291760Y-55283530D01*
X213398100Y-54748921D01*
X213398100Y-53658279D01*
X213291760Y-53123670D01*
X212988928Y-52670451D01*
X212535709Y-52367619D01*
X212001100Y-52261279D01*
X211466491Y-52367619D01*
X211013272Y-52670451D01*
X210731100Y-53092750D01*
X210448928Y-52670451D01*
X209995709Y-52367619D01*
X209461100Y-52261279D01*
X208926491Y-52367619D01*
X208473272Y-52670451D01*
X208191100Y-53092750D01*
X207908928Y-52670451D01*
X207455709Y-52367619D01*
X206921100Y-52261279D01*
X206386491Y-52367619D01*
X205933272Y-52670451D01*
X205651100Y-53092750D01*
X205368928Y-52670451D01*
X204915709Y-52367619D01*
X204381100Y-52261279D01*
X203846491Y-52367619D01*
X203393272Y-52670451D01*
X203111100Y-53092750D01*
X202828928Y-52670451D01*
X202375709Y-52367619D01*
X201841100Y-52261279D01*
X201306491Y-52367619D01*
X200853272Y-52670451D01*
X200571100Y-53092750D01*
X200288928Y-52670451D01*
X199835709Y-52367619D01*
X199301100Y-52261279D01*
X198766491Y-52367619D01*
X198313272Y-52670451D01*
X198031100Y-53092750D01*
X197748928Y-52670451D01*
X197295709Y-52367619D01*
X196761100Y-52261279D01*
X196226491Y-52367619D01*
X195773272Y-52670451D01*
X195491100Y-53092750D01*
X195208928Y-52670451D01*
X194755709Y-52367619D01*
X194221100Y-52261279D01*
X193686491Y-52367619D01*
X193233272Y-52670451D01*
X192930440Y-53123670D01*
X192824100Y-53658279D01*
X191554100Y-53658279D01*
X191447760Y-53123670D01*
X191144928Y-52670451D01*
X190691709Y-52367619D01*
X190157100Y-52261279D01*
X189622491Y-52367619D01*
X189169272Y-52670451D01*
X188887100Y-53092750D01*
X188604928Y-52670451D01*
X188151709Y-52367619D01*
X187617100Y-52261279D01*
X187082491Y-52367619D01*
X186629272Y-52670451D01*
X186347100Y-53092750D01*
X186064928Y-52670451D01*
X185611709Y-52367619D01*
X185077100Y-52261279D01*
X184542491Y-52367619D01*
X184089272Y-52670451D01*
X183807100Y-53092750D01*
X183524928Y-52670451D01*
X183071709Y-52367619D01*
X182537100Y-52261279D01*
X182002491Y-52367619D01*
X181549272Y-52670451D01*
X181267100Y-53092750D01*
X180984928Y-52670451D01*
X180531709Y-52367619D01*
X179997100Y-52261279D01*
X179462491Y-52367619D01*
X179009272Y-52670451D01*
X178727100Y-53092750D01*
X178444928Y-52670451D01*
X177991709Y-52367619D01*
X177457100Y-52261279D01*
X176922491Y-52367619D01*
X176469272Y-52670451D01*
X176177770Y-53106713D01*
X176159159Y-53043659D01*
X175815126Y-52617970D01*
X175334377Y-52356340D01*
X175260170Y-52341380D01*
X175044100Y-52463880D01*
X175044100Y-54076600D01*
X175064100Y-54076600D01*
X175064100Y-54330600D01*
X175044100Y-54330600D01*
X175044100Y-55943320D01*
X175260170Y-56065820D01*
X175334377Y-56050860D01*
X175815126Y-55789230D01*
X176159159Y-55363541D01*
X176177770Y-55300487D01*
X176469272Y-55736749D01*
X176922491Y-56039581D01*
X177457100Y-56145921D01*
X177991709Y-56039581D01*
X178444928Y-55736749D01*
X178727100Y-55314450D01*
X179009272Y-55736749D01*
X179462491Y-56039581D01*
X179997100Y-56145921D01*
X180531709Y-56039581D01*
X180984928Y-55736749D01*
X181267100Y-55314450D01*
X181549272Y-55736749D01*
X181777100Y-55888979D01*
X181777100Y-56523097D01*
X179707638Y-58592560D01*
X178935000Y-58592560D01*
X178699683Y-58636838D01*
X178483559Y-58775910D01*
X178435866Y-58845711D01*
X178399090Y-58788559D01*
X178186890Y-58643569D01*
X177935000Y-58592560D01*
X176735000Y-58592560D01*
X176499683Y-58636838D01*
X176283559Y-58775910D01*
X176178274Y-58930000D01*
X175796090Y-58930000D01*
X175505251Y-58987852D01*
X175258689Y-59152599D01*
X174318739Y-60092549D01*
X174225220Y-60232510D01*
X173955710Y-60232510D01*
X173720393Y-60276788D01*
X173504269Y-60415860D01*
X173359279Y-60628060D01*
X173308270Y-60879950D01*
X173308270Y-61518202D01*
X173218380Y-61378509D01*
X173006180Y-61233519D01*
X172754290Y-61182510D01*
X172210000Y-61182510D01*
X172210000Y-60757334D01*
X172285317Y-60743162D01*
X172501441Y-60604090D01*
X172646431Y-60391890D01*
X172697440Y-60140000D01*
X172697440Y-59240000D01*
X172653162Y-59004683D01*
X172514090Y-58788559D01*
X172301890Y-58643569D01*
X172050000Y-58592560D01*
X170850000Y-58592560D01*
X170614683Y-58636838D01*
X170398559Y-58775910D01*
X170350866Y-58845711D01*
X170314090Y-58788559D01*
X170101890Y-58643569D01*
X169850000Y-58592560D01*
X169438826Y-58592560D01*
X169250000Y-58555000D01*
X169100000Y-58555000D01*
X168911172Y-58592560D01*
X168650000Y-58592560D01*
X168414683Y-58636838D01*
X168198559Y-58775910D01*
X168053569Y-58988110D01*
X168017210Y-59167657D01*
X167775703Y-59409164D01*
X167761362Y-59122632D01*
X167602397Y-58738857D01*
X167360213Y-58669392D01*
X166559605Y-59470000D01*
X166573748Y-59484143D01*
X166394143Y-59663748D01*
X166380000Y-59649605D01*
X165579392Y-60450213D01*
X165648857Y-60692397D01*
X166172302Y-60879144D01*
X166312753Y-60872114D01*
X159852434Y-67332434D01*
X159790000Y-67425873D01*
X159790000Y-64630880D01*
X160128000Y-64735000D01*
X160528000Y-64735000D01*
X160528000Y-63627000D01*
X160782000Y-63627000D01*
X160782000Y-64735000D01*
X161182000Y-64735000D01*
X161644947Y-64592390D01*
X162018080Y-64283474D01*
X162244592Y-63855281D01*
X162248462Y-63817609D01*
X162123731Y-63627000D01*
X160782000Y-63627000D01*
X160528000Y-63627000D01*
X160508000Y-63627000D01*
X160508000Y-63373000D01*
X160528000Y-63373000D01*
X160528000Y-63353000D01*
X160782000Y-63353000D01*
X160782000Y-63373000D01*
X162123731Y-63373000D01*
X162248462Y-63182391D01*
X162244592Y-63144719D01*
X162018080Y-62716526D01*
X161762845Y-62505218D01*
X161960309Y-62373277D01*
X162228023Y-61972614D01*
X162322032Y-61500000D01*
X162228023Y-61027386D01*
X161960309Y-60626723D01*
X161559646Y-60359009D01*
X161087032Y-60265000D01*
X160222968Y-60265000D01*
X159750354Y-60359009D01*
X159349691Y-60626723D01*
X159081977Y-61027386D01*
X159071919Y-61077949D01*
X157852434Y-62297434D01*
X157606397Y-62665654D01*
X157520000Y-63100000D01*
X154990000Y-63100000D01*
X154990000Y-59262302D01*
X164970856Y-59262302D01*
X164998638Y-59817368D01*
X165157603Y-60201143D01*
X165399787Y-60270608D01*
X166200395Y-59470000D01*
X165399787Y-58669392D01*
X165157603Y-58738857D01*
X164970856Y-59262302D01*
X154990000Y-59262302D01*
X154990000Y-58489787D01*
X165579392Y-58489787D01*
X166380000Y-59290395D01*
X167180608Y-58489787D01*
X167111143Y-58247603D01*
X166587698Y-58060856D01*
X166032632Y-58088638D01*
X165648857Y-58247603D01*
X165579392Y-58489787D01*
X154990000Y-58489787D01*
X154990000Y-53658279D01*
X170980100Y-53658279D01*
X170980100Y-54748921D01*
X171086440Y-55283530D01*
X171389272Y-55736749D01*
X171842491Y-56039581D01*
X172377100Y-56145921D01*
X172911709Y-56039581D01*
X173364928Y-55736749D01*
X173656430Y-55300487D01*
X173675041Y-55363541D01*
X174019074Y-55789230D01*
X174499823Y-56050860D01*
X174574030Y-56065820D01*
X174790100Y-55943320D01*
X174790100Y-54330600D01*
X174770100Y-54330600D01*
X174770100Y-54076600D01*
X174790100Y-54076600D01*
X174790100Y-52463880D01*
X174574030Y-52341380D01*
X174499823Y-52356340D01*
X174019074Y-52617970D01*
X173675041Y-53043659D01*
X173656430Y-53106713D01*
X173364928Y-52670451D01*
X172911709Y-52367619D01*
X172377100Y-52261279D01*
X171842491Y-52367619D01*
X171389272Y-52670451D01*
X171086440Y-53123670D01*
X170980100Y-53658279D01*
X154990000Y-53658279D01*
X154990000Y-52120000D01*
X213076264Y-52120000D01*
X213945000Y-52988736D01*
G36*
X165870000Y-83290132D02*
X165870000Y-88570266D01*
X165747126Y-88692926D01*
X165520628Y-89238393D01*
X165520112Y-89829016D01*
X165745658Y-90374877D01*
X166162926Y-90792874D01*
X166708393Y-91019372D01*
X167299016Y-91019888D01*
X167844877Y-90794342D01*
X168262874Y-90377074D01*
X168489372Y-89831607D01*
X168489888Y-89240984D01*
X168264342Y-88695123D01*
X168140000Y-88570564D01*
X168140000Y-88550750D01*
X169608500Y-88550750D01*
X169608500Y-89915310D01*
X169705173Y-90148699D01*
X169883802Y-90327327D01*
X170117191Y-90424000D01*
X170390769Y-90424000D01*
X170318430Y-90598641D01*
X170318430Y-90839250D01*
X170477180Y-90998000D01*
X171726860Y-90998000D01*
X171726860Y-90978000D01*
X171980860Y-90978000D01*
X171980860Y-90998000D01*
X173230540Y-90998000D01*
X173389290Y-90839250D01*
X173389290Y-90598641D01*
X173292617Y-90365252D01*
X173113989Y-90186623D01*
X172880600Y-90089950D01*
X172457162Y-90089950D01*
X172529500Y-89915310D01*
X172529500Y-88550750D01*
X172370750Y-88392000D01*
X171196000Y-88392000D01*
X171196000Y-88412000D01*
X170942000Y-88412000D01*
X170942000Y-88392000D01*
X169767250Y-88392000D01*
X169608500Y-88550750D01*
X168140000Y-88550750D01*
X168140000Y-86614690D01*
X169608500Y-86614690D01*
X169608500Y-87979250D01*
X169767250Y-88138000D01*
X170942000Y-88138000D01*
X170942000Y-86264750D01*
X171196000Y-86264750D01*
X171196000Y-88138000D01*
X172370750Y-88138000D01*
X172529500Y-87979250D01*
X172529500Y-86614690D01*
X172432827Y-86381301D01*
X172254198Y-86202673D01*
X172020809Y-86106000D01*
X171354750Y-86106000D01*
X171196000Y-86264750D01*
X170942000Y-86264750D01*
X170783250Y-86106000D01*
X170117191Y-86106000D01*
X169883802Y-86202673D01*
X169705173Y-86381301D01*
X169608500Y-86614690D01*
X168140000Y-86614690D01*
X168140000Y-84687132D01*
X169659560Y-83167572D01*
X169659560Y-84963000D01*
X169703838Y-85198317D01*
X169842910Y-85414441D01*
X170055110Y-85559431D01*
X170307000Y-85610440D01*
X176403000Y-85610440D01*
X176638317Y-85566162D01*
X176854441Y-85427090D01*
X176999431Y-85214890D01*
X177040000Y-85014554D01*
X177040000Y-86459587D01*
X176930590Y-86289559D01*
X176718390Y-86144569D01*
X176466500Y-86093560D01*
X174815500Y-86093560D01*
X174580183Y-86137838D01*
X174364059Y-86276910D01*
X174219069Y-86489110D01*
X174168060Y-86741000D01*
X174168060Y-89789000D01*
X174212338Y-90024317D01*
X174351410Y-90240441D01*
X174563610Y-90385431D01*
X174815500Y-90436440D01*
X174881000Y-90436440D01*
X174881000Y-90975338D01*
X174828828Y-91027510D01*
X173955710Y-91027510D01*
X173720393Y-91071788D01*
X173504269Y-91210860D01*
X173376458Y-91397918D01*
X173230540Y-91252000D01*
X171980860Y-91252000D01*
X171980860Y-91272000D01*
X171726860Y-91272000D01*
X171726860Y-91252000D01*
X170477180Y-91252000D01*
X170318430Y-91410750D01*
X170318430Y-91651359D01*
X170319298Y-91653455D01*
X170156028Y-91762548D01*
X167617598Y-94300978D01*
X167452851Y-94547540D01*
X167394999Y-94838379D01*
X167394999Y-96179370D01*
X167360213Y-96169392D01*
X166559605Y-96970000D01*
X166573748Y-96984143D01*
X166394143Y-97163748D01*
X166380000Y-97149605D01*
X166365858Y-97163748D01*
X166186253Y-96984143D01*
X166200395Y-96970000D01*
X165399787Y-96169392D01*
X165157603Y-96238857D01*
X164970856Y-96762302D01*
X164997619Y-97297001D01*
X163243642Y-97297001D01*
X161936428Y-95989787D01*
X165579392Y-95989787D01*
X166380000Y-96790395D01*
X167180608Y-95989787D01*
X167111143Y-95747603D01*
X166587698Y-95560856D01*
X166032632Y-95588638D01*
X165648857Y-95747603D01*
X165579392Y-95989787D01*
X161936428Y-95989787D01*
X161239063Y-95292422D01*
X161644947Y-95167390D01*
X162018080Y-94858474D01*
X162244592Y-94430281D01*
X162248462Y-94392609D01*
X162123731Y-94202000D01*
X160782000Y-94202000D01*
X160782000Y-94222000D01*
X160528000Y-94222000D01*
X160528000Y-94202000D01*
X160508000Y-94202000D01*
X160508000Y-93948000D01*
X160528000Y-93948000D01*
X160528000Y-93928000D01*
X160782000Y-93928000D01*
X160782000Y-93948000D01*
X162123731Y-93948000D01*
X162248462Y-93757391D01*
X162244592Y-93719719D01*
X162018080Y-93291526D01*
X161762845Y-93080218D01*
X161960309Y-92948277D01*
X162228023Y-92547614D01*
X162322032Y-92075000D01*
X162228023Y-91602386D01*
X161960309Y-91201723D01*
X161559646Y-90934009D01*
X161087032Y-90840000D01*
X160222968Y-90840000D01*
X160089990Y-90866451D01*
X160089990Y-83678549D01*
X160222968Y-83705000D01*
X161087032Y-83705000D01*
X161559646Y-83610991D01*
X161960309Y-83343277D01*
X162228023Y-82942614D01*
X162322032Y-82470000D01*
X162228023Y-81997386D01*
X161960309Y-81596723D01*
X161770654Y-81470000D01*
X161960309Y-81343277D01*
X162228023Y-80942614D01*
X162322032Y-80470000D01*
X162228023Y-79997386D01*
X161965840Y-79605000D01*
X162184868Y-79605000D01*
X165870000Y-83290132D01*
X165870000Y-83290132D01*
G37*
X165870000Y-83290132D02*
X165870000Y-88570266D01*
X165747126Y-88692926D01*
X165520628Y-89238393D01*
X165520112Y-89829016D01*
X165745658Y-90374877D01*
X166162926Y-90792874D01*
X166708393Y-91019372D01*
X167299016Y-91019888D01*
X167844877Y-90794342D01*
X168262874Y-90377074D01*
X168489372Y-89831607D01*
X168489888Y-89240984D01*
X168264342Y-88695123D01*
X168140000Y-88570564D01*
X168140000Y-88550750D01*
X169608500Y-88550750D01*
X169608500Y-89915310D01*
X169705173Y-90148699D01*
X169883802Y-90327327D01*
X170117191Y-90424000D01*
X170390769Y-90424000D01*
X170318430Y-90598641D01*
X170318430Y-90839250D01*
X170477180Y-90998000D01*
X171726860Y-90998000D01*
X171726860Y-90978000D01*
X171980860Y-90978000D01*
X171980860Y-90998000D01*
X173230540Y-90998000D01*
X173389290Y-90839250D01*
X173389290Y-90598641D01*
X173292617Y-90365252D01*
X173113989Y-90186623D01*
X172880600Y-90089950D01*
X172457162Y-90089950D01*
X172529500Y-89915310D01*
X172529500Y-88550750D01*
X172370750Y-88392000D01*
X171196000Y-88392000D01*
X171196000Y-88412000D01*
X170942000Y-88412000D01*
X170942000Y-88392000D01*
X169767250Y-88392000D01*
X169608500Y-88550750D01*
X168140000Y-88550750D01*
X168140000Y-86614690D01*
X169608500Y-86614690D01*
X169608500Y-87979250D01*
X169767250Y-88138000D01*
X170942000Y-88138000D01*
X170942000Y-86264750D01*
X171196000Y-86264750D01*
X171196000Y-88138000D01*
X172370750Y-88138000D01*
X172529500Y-87979250D01*
X172529500Y-86614690D01*
X172432827Y-86381301D01*
X172254198Y-86202673D01*
X172020809Y-86106000D01*
X171354750Y-86106000D01*
X171196000Y-86264750D01*
X170942000Y-86264750D01*
X170783250Y-86106000D01*
X170117191Y-86106000D01*
X169883802Y-86202673D01*
X169705173Y-86381301D01*
X169608500Y-86614690D01*
X168140000Y-86614690D01*
X168140000Y-84687132D01*
X169659560Y-83167572D01*
X169659560Y-84963000D01*
X169703838Y-85198317D01*
X169842910Y-85414441D01*
X170055110Y-85559431D01*
X170307000Y-85610440D01*
X176403000Y-85610440D01*
X176638317Y-85566162D01*
X176854441Y-85427090D01*
X176999431Y-85214890D01*
X177040000Y-85014554D01*
X177040000Y-86459587D01*
X176930590Y-86289559D01*
X176718390Y-86144569D01*
X176466500Y-86093560D01*
X174815500Y-86093560D01*
X174580183Y-86137838D01*
X174364059Y-86276910D01*
X174219069Y-86489110D01*
X174168060Y-86741000D01*
X174168060Y-89789000D01*
X174212338Y-90024317D01*
X174351410Y-90240441D01*
X174563610Y-90385431D01*
X174815500Y-90436440D01*
X174881000Y-90436440D01*
X174881000Y-90975338D01*
X174828828Y-91027510D01*
X173955710Y-91027510D01*
X173720393Y-91071788D01*
X173504269Y-91210860D01*
X173376458Y-91397918D01*
X173230540Y-91252000D01*
X171980860Y-91252000D01*
X171980860Y-91272000D01*
X171726860Y-91272000D01*
X171726860Y-91252000D01*
X170477180Y-91252000D01*
X170318430Y-91410750D01*
X170318430Y-91651359D01*
X170319298Y-91653455D01*
X170156028Y-91762548D01*
X167617598Y-94300978D01*
X167452851Y-94547540D01*
X167394999Y-94838379D01*
X167394999Y-96179370D01*
X167360213Y-96169392D01*
X166559605Y-96970000D01*
X166573748Y-96984143D01*
X166394143Y-97163748D01*
X166380000Y-97149605D01*
X166365858Y-97163748D01*
X166186253Y-96984143D01*
X166200395Y-96970000D01*
X165399787Y-96169392D01*
X165157603Y-96238857D01*
X164970856Y-96762302D01*
X164997619Y-97297001D01*
X163243642Y-97297001D01*
X161936428Y-95989787D01*
X165579392Y-95989787D01*
X166380000Y-96790395D01*
X167180608Y-95989787D01*
X167111143Y-95747603D01*
X166587698Y-95560856D01*
X166032632Y-95588638D01*
X165648857Y-95747603D01*
X165579392Y-95989787D01*
X161936428Y-95989787D01*
X161239063Y-95292422D01*
X161644947Y-95167390D01*
X162018080Y-94858474D01*
X162244592Y-94430281D01*
X162248462Y-94392609D01*
X162123731Y-94202000D01*
X160782000Y-94202000D01*
X160782000Y-94222000D01*
X160528000Y-94222000D01*
X160528000Y-94202000D01*
X160508000Y-94202000D01*
X160508000Y-93948000D01*
X160528000Y-93948000D01*
X160528000Y-93928000D01*
X160782000Y-93928000D01*
X160782000Y-93948000D01*
X162123731Y-93948000D01*
X162248462Y-93757391D01*
X162244592Y-93719719D01*
X162018080Y-93291526D01*
X161762845Y-93080218D01*
X161960309Y-92948277D01*
X162228023Y-92547614D01*
X162322032Y-92075000D01*
X162228023Y-91602386D01*
X161960309Y-91201723D01*
X161559646Y-90934009D01*
X161087032Y-90840000D01*
X160222968Y-90840000D01*
X160089990Y-90866451D01*
X160089990Y-83678549D01*
X160222968Y-83705000D01*
X161087032Y-83705000D01*
X161559646Y-83610991D01*
X161960309Y-83343277D01*
X162228023Y-82942614D01*
X162322032Y-82470000D01*
X162228023Y-81997386D01*
X161960309Y-81596723D01*
X161770654Y-81470000D01*
X161960309Y-81343277D01*
X162228023Y-80942614D01*
X162322032Y-80470000D01*
X162228023Y-79997386D01*
X161965840Y-79605000D01*
X162184868Y-79605000D01*
X165870000Y-83290132D01*
G36*
X178470910Y-60591441D02*
X178683110Y-60736431D01*
X178935000Y-60787440D01*
X178938458Y-60787440D01*
X177262599Y-62463299D01*
X177097852Y-62709861D01*
X177040000Y-63000700D01*
X177040000Y-64241216D01*
X177004827Y-64156301D01*
X176826198Y-63977673D01*
X176592809Y-63881000D01*
X176319231Y-63881000D01*
X176391570Y-63706359D01*
X176391570Y-63465750D01*
X176232820Y-63307000D01*
X174983140Y-63307000D01*
X174983140Y-63327000D01*
X174729140Y-63327000D01*
X174729140Y-63307000D01*
X173479460Y-63307000D01*
X173320710Y-63465750D01*
X173320710Y-63706359D01*
X173417383Y-63939748D01*
X173596011Y-64118377D01*
X173829400Y-64215050D01*
X174252838Y-64215050D01*
X174180500Y-64389690D01*
X174180500Y-65754250D01*
X174339250Y-65913000D01*
X175514000Y-65913000D01*
X175514000Y-65893000D01*
X175768000Y-65893000D01*
X175768000Y-65913000D01*
X175788000Y-65913000D01*
X175788000Y-66167000D01*
X175768000Y-66167000D01*
X175768000Y-68040250D01*
X175926750Y-68199000D01*
X176592809Y-68199000D01*
X176826198Y-68102327D01*
X177004827Y-67923699D01*
X177040000Y-67838784D01*
X177040000Y-69286516D01*
X177006162Y-69106683D01*
X176867090Y-68890559D01*
X176654890Y-68745569D01*
X176403000Y-68694560D01*
X170307000Y-68694560D01*
X170071683Y-68738838D01*
X169855559Y-68877910D01*
X169710569Y-69090110D01*
X169659560Y-69342000D01*
X169659560Y-71137428D01*
X168140000Y-69617868D01*
X168140000Y-65734734D01*
X168262874Y-65612074D01*
X168489372Y-65066607D01*
X168489888Y-64475984D01*
X168264342Y-63930123D01*
X167847074Y-63512126D01*
X167301607Y-63285628D01*
X167109672Y-63285460D01*
X169607693Y-60787440D01*
X169850000Y-60787440D01*
X170085317Y-60743162D01*
X170301441Y-60604090D01*
X170349134Y-60534289D01*
X170385910Y-60591441D01*
X170598110Y-60736431D01*
X170690000Y-60755039D01*
X170690000Y-61244878D01*
X170501989Y-61365860D01*
X170356999Y-61578060D01*
X170305990Y-61829950D01*
X170305990Y-62630050D01*
X170350268Y-62865367D01*
X170489340Y-63081491D01*
X170701540Y-63226481D01*
X170953430Y-63277490D01*
X171093860Y-63277490D01*
X171093860Y-63868560D01*
X170243500Y-63868560D01*
X170008183Y-63912838D01*
X169792059Y-64051910D01*
X169647069Y-64264110D01*
X169596060Y-64516000D01*
X169596060Y-67564000D01*
X169640338Y-67799317D01*
X169779410Y-68015441D01*
X169991610Y-68160431D01*
X170243500Y-68211440D01*
X171894500Y-68211440D01*
X172129817Y-68167162D01*
X172345941Y-68028090D01*
X172490931Y-67815890D01*
X172541940Y-67564000D01*
X172541940Y-66325750D01*
X174180500Y-66325750D01*
X174180500Y-67690310D01*
X174277173Y-67923699D01*
X174455802Y-68102327D01*
X174689191Y-68199000D01*
X175355250Y-68199000D01*
X175514000Y-68040250D01*
X175514000Y-66167000D01*
X174339250Y-66167000D01*
X174180500Y-66325750D01*
X172541940Y-66325750D01*
X172541940Y-65567033D01*
X172556008Y-65545979D01*
X172613860Y-65255140D01*
X172613860Y-63277490D01*
X172754290Y-63277490D01*
X172989607Y-63233212D01*
X173205731Y-63094140D01*
X173333542Y-62907082D01*
X173479460Y-63053000D01*
X174729140Y-63053000D01*
X174729140Y-63033000D01*
X174983140Y-63033000D01*
X174983140Y-63053000D01*
X176232820Y-63053000D01*
X176391570Y-62894250D01*
X176391570Y-62653641D01*
X176294897Y-62420252D01*
X176116269Y-62241623D01*
X176079918Y-62226566D01*
X176208011Y-62144140D01*
X176353001Y-61931940D01*
X176404010Y-61680050D01*
X176404010Y-60879950D01*
X176361351Y-60653237D01*
X176483110Y-60736431D01*
X176735000Y-60787440D01*
X177935000Y-60787440D01*
X178170317Y-60743162D01*
X178386441Y-60604090D01*
X178434134Y-60534289D01*
X178470910Y-60591441D01*
X178470910Y-60591441D01*
G37*
X178470910Y-60591441D02*
X178683110Y-60736431D01*
X178935000Y-60787440D01*
X178938458Y-60787440D01*
X177262599Y-62463299D01*
X177097852Y-62709861D01*
X177040000Y-63000700D01*
X177040000Y-64241216D01*
X177004827Y-64156301D01*
X176826198Y-63977673D01*
X176592809Y-63881000D01*
X176319231Y-63881000D01*
X176391570Y-63706359D01*
X176391570Y-63465750D01*
X176232820Y-63307000D01*
X174983140Y-63307000D01*
X174983140Y-63327000D01*
X174729140Y-63327000D01*
X174729140Y-63307000D01*
X173479460Y-63307000D01*
X173320710Y-63465750D01*
X173320710Y-63706359D01*
X173417383Y-63939748D01*
X173596011Y-64118377D01*
X173829400Y-64215050D01*
X174252838Y-64215050D01*
X174180500Y-64389690D01*
X174180500Y-65754250D01*
X174339250Y-65913000D01*
X175514000Y-65913000D01*
X175514000Y-65893000D01*
X175768000Y-65893000D01*
X175768000Y-65913000D01*
X175788000Y-65913000D01*
X175788000Y-66167000D01*
X175768000Y-66167000D01*
X175768000Y-68040250D01*
X175926750Y-68199000D01*
X176592809Y-68199000D01*
X176826198Y-68102327D01*
X177004827Y-67923699D01*
X177040000Y-67838784D01*
X177040000Y-69286516D01*
X177006162Y-69106683D01*
X176867090Y-68890559D01*
X176654890Y-68745569D01*
X176403000Y-68694560D01*
X170307000Y-68694560D01*
X170071683Y-68738838D01*
X169855559Y-68877910D01*
X169710569Y-69090110D01*
X169659560Y-69342000D01*
X169659560Y-71137428D01*
X168140000Y-69617868D01*
X168140000Y-65734734D01*
X168262874Y-65612074D01*
X168489372Y-65066607D01*
X168489888Y-64475984D01*
X168264342Y-63930123D01*
X167847074Y-63512126D01*
X167301607Y-63285628D01*
X167109672Y-63285460D01*
X169607693Y-60787440D01*
X169850000Y-60787440D01*
X170085317Y-60743162D01*
X170301441Y-60604090D01*
X170349134Y-60534289D01*
X170385910Y-60591441D01*
X170598110Y-60736431D01*
X170690000Y-60755039D01*
X170690000Y-61244878D01*
X170501989Y-61365860D01*
X170356999Y-61578060D01*
X170305990Y-61829950D01*
X170305990Y-62630050D01*
X170350268Y-62865367D01*
X170489340Y-63081491D01*
X170701540Y-63226481D01*
X170953430Y-63277490D01*
X171093860Y-63277490D01*
X171093860Y-63868560D01*
X170243500Y-63868560D01*
X170008183Y-63912838D01*
X169792059Y-64051910D01*
X169647069Y-64264110D01*
X169596060Y-64516000D01*
X169596060Y-67564000D01*
X169640338Y-67799317D01*
X169779410Y-68015441D01*
X169991610Y-68160431D01*
X170243500Y-68211440D01*
X171894500Y-68211440D01*
X172129817Y-68167162D01*
X172345941Y-68028090D01*
X172490931Y-67815890D01*
X172541940Y-67564000D01*
X172541940Y-66325750D01*
X174180500Y-66325750D01*
X174180500Y-67690310D01*
X174277173Y-67923699D01*
X174455802Y-68102327D01*
X174689191Y-68199000D01*
X175355250Y-68199000D01*
X175514000Y-68040250D01*
X175514000Y-66167000D01*
X174339250Y-66167000D01*
X174180500Y-66325750D01*
X172541940Y-66325750D01*
X172541940Y-65567033D01*
X172556008Y-65545979D01*
X172613860Y-65255140D01*
X172613860Y-63277490D01*
X172754290Y-63277490D01*
X172989607Y-63233212D01*
X173205731Y-63094140D01*
X173333542Y-62907082D01*
X173479460Y-63053000D01*
X174729140Y-63053000D01*
X174729140Y-63033000D01*
X174983140Y-63033000D01*
X174983140Y-63053000D01*
X176232820Y-63053000D01*
X176391570Y-62894250D01*
X176391570Y-62653641D01*
X176294897Y-62420252D01*
X176116269Y-62241623D01*
X176079918Y-62226566D01*
X176208011Y-62144140D01*
X176353001Y-61931940D01*
X176404010Y-61680050D01*
X176404010Y-60879950D01*
X176361351Y-60653237D01*
X176483110Y-60736431D01*
X176735000Y-60787440D01*
X177935000Y-60787440D01*
X178170317Y-60743162D01*
X178386441Y-60604090D01*
X178434134Y-60534289D01*
X178470910Y-60591441D01*
M02*
