M48
INCH,TZ
T1C0.016
T2C0.030
T3C0.031
T4C0.032
T5C0.059
%
G90
G05
T1
X67500Y-46250
X68500Y-45250
X70500Y-44827
X72000Y-47000
X75750Y-49750
X76500Y-47000
X78000Y-48000
X78500Y-49750
X81250Y-47000
T2
X68500Y-54500
X68500Y-60996
X83264Y-54500
X83264Y-60996
T3
X66500Y-45281
X66500Y-46069
X66500Y-46856
X66500Y-47644
X66500Y-48431
X66500Y-49219
X66500Y-51963
X66500Y-52750
X66500Y-55500
X66500Y-56287
X66500Y-58813
X66500Y-59600
X66500Y-60388
X66500Y-61175
X66500Y-61963
X66500Y-62750
T4
X66900Y-43750
X67900Y-43750
X68900Y-43750
X69900Y-43750
X70500Y-62750
X70900Y-43750
X71500Y-62750
X71900Y-43750
X72500Y-62750
X72900Y-43750
X73500Y-62750
X73900Y-43750
X74500Y-62750
X75500Y-43750
X75500Y-62750
X76500Y-43750
X77500Y-43750
X77500Y-62750
X78500Y-43750
X78500Y-62750
X79500Y-43750
X79500Y-62750
X80500Y-43750
X80500Y-62750
X81500Y-43750
X81500Y-62750
X82500Y-43750
X82500Y-62750
T5
X71250Y-51500
X79912Y-51500
T0
M30
