G04 #@! TF.FileFunction,Soldermask,Bot*
%FSLAX46Y46*%
G04 Gerber Fmt 4.6, Leading zero omitted, Abs format (unit mm)*
G04 Created by KiCad (PCBNEW 4.0.1-stable) date Friday, 06 May 2016 'pmt' 19:48:24*
%MOMM*%
G01*
G04 APERTURE LIST*
%ADD10C,0.100000*%
%ADD11O,1.924000X2.940000*%
%ADD12O,4.400500X2.899360*%
%ADD13O,2.400000X1.600000*%
%ADD14C,1.924000*%
%ADD15R,0.700000X3.400000*%
G04 APERTURE END LIST*
D10*
D11*
X209550000Y-159385000D03*
X207010000Y-159385000D03*
X204470000Y-159385000D03*
X196850000Y-159385000D03*
X199390000Y-159385000D03*
X201930000Y-159385000D03*
X191770000Y-159385000D03*
X189230000Y-159385000D03*
X186690000Y-159385000D03*
X181610000Y-159385000D03*
X179070000Y-159385000D03*
X209550000Y-111125000D03*
X207010000Y-111125000D03*
X204470000Y-111125000D03*
X201930000Y-111125000D03*
X199390000Y-111125000D03*
X196850000Y-111125000D03*
X194310000Y-111125000D03*
X191770000Y-111125000D03*
X187706000Y-111125000D03*
X185166000Y-111125000D03*
X182626000Y-111125000D03*
X180086000Y-111125000D03*
X177546000Y-111125000D03*
X175006000Y-111125000D03*
X172466000Y-111125000D03*
X169926000Y-111125000D03*
X184150000Y-159385000D03*
D12*
X202976480Y-130810000D03*
X180975000Y-130810000D03*
D13*
X168910000Y-140970000D03*
X168910000Y-142970000D03*
X168910000Y-131985000D03*
X168910000Y-133985000D03*
X168910000Y-115015000D03*
X168910000Y-117015000D03*
X168910000Y-119015000D03*
X168910000Y-121015000D03*
X168910000Y-123015000D03*
X168910000Y-125015000D03*
X168910000Y-149385000D03*
X168910000Y-151385000D03*
X168910000Y-153385000D03*
X168910000Y-155385000D03*
X168910000Y-157385000D03*
X168910000Y-159385000D03*
D14*
X173990000Y-138430000D03*
X211490000Y-138430000D03*
X211490000Y-154930000D03*
X173990000Y-154930000D03*
D15*
X173855000Y-121915000D03*
X173355000Y-121915000D03*
X172855000Y-121915000D03*
X172855000Y-118115000D03*
X173355000Y-118115000D03*
X173855000Y-118115000D03*
X174490000Y-150490000D03*
X173990000Y-150490000D03*
X173490000Y-150490000D03*
X173490000Y-146690000D03*
X173990000Y-146690000D03*
X174490000Y-146690000D03*
M02*
