G04 #@! TF.FileFunction,Soldermask,Top*
%FSLAX46Y46*%
G04 Gerber Fmt 4.6, Leading zero omitted, Abs format (unit mm)*
G04 Created by KiCad (PCBNEW 4.0.1-stable) date Friday, 17 June 2016 'pmt' 14:47:11*
%MOMM*%
G01*
G04 APERTURE LIST*
%ADD10C,0.100000*%
%ADD11R,1.220000X0.910000*%
%ADD12C,1.699260*%
%ADD13R,1.699260X1.699260*%
%ADD14O,2.499360X4.000500*%
%ADD15O,2.000000X1.200000*%
%ADD16R,0.900000X1.200000*%
%ADD17O,1.524000X2.540000*%
%ADD18C,1.524000*%
%ADD19R,1.500000X0.800000*%
%ADD20R,1.200000X0.900000*%
%ADD21R,0.800000X1.500000*%
G04 APERTURE END LIST*
D10*
D11*
X200660000Y-78470000D03*
X200660000Y-75200000D03*
X213995000Y-78470000D03*
X213995000Y-75200000D03*
D12*
X167005000Y-64770000D03*
D13*
X167005000Y-74930000D03*
D12*
X167005000Y-89535000D03*
D13*
X167005000Y-79375000D03*
D14*
X191135000Y-81485740D03*
X191135000Y-59484260D03*
D15*
X160655000Y-61500000D03*
X160655000Y-63500000D03*
X160655000Y-92075000D03*
X160655000Y-94075000D03*
X160655000Y-72470000D03*
X160655000Y-74470000D03*
X160655000Y-76470000D03*
X160655000Y-78470000D03*
X160655000Y-80470000D03*
X160655000Y-82470000D03*
D16*
X205105000Y-78570000D03*
X205105000Y-76370000D03*
X209550000Y-78570000D03*
X209550000Y-76370000D03*
X205105000Y-83650000D03*
X205105000Y-81450000D03*
X209550000Y-83650000D03*
X209550000Y-81450000D03*
D17*
X212001100Y-102463600D03*
X209461100Y-102463600D03*
X206921100Y-102463600D03*
X199301100Y-102463600D03*
X201841100Y-102463600D03*
X204381100Y-102463600D03*
X194221100Y-102463600D03*
X191681100Y-102463600D03*
X189141100Y-102463600D03*
X184061100Y-102463600D03*
X181521100Y-102463600D03*
X212001100Y-54203600D03*
X209461100Y-54203600D03*
X206921100Y-54203600D03*
X204381100Y-54203600D03*
X201841100Y-54203600D03*
X199301100Y-54203600D03*
X196761100Y-54203600D03*
X194221100Y-54203600D03*
X190157100Y-54203600D03*
X187617100Y-54203600D03*
X185077100Y-54203600D03*
X182537100Y-54203600D03*
X179997100Y-54203600D03*
X177457100Y-54203600D03*
X174917100Y-54203600D03*
X172377100Y-54203600D03*
X186601100Y-102463600D03*
D18*
X182880000Y-59470000D03*
X182880000Y-96970000D03*
X166380000Y-96970000D03*
X166380000Y-59470000D03*
D19*
X158780000Y-67945000D03*
X156180000Y-67945000D03*
X158780000Y-87630000D03*
X156180000Y-87630000D03*
D20*
X163025000Y-67945000D03*
X160825000Y-67945000D03*
X163025000Y-87630000D03*
X160825000Y-87630000D03*
D21*
X212090000Y-61625000D03*
X212090000Y-59025000D03*
X210185000Y-61625000D03*
X210185000Y-59025000D03*
X208280000Y-61625000D03*
X208280000Y-59025000D03*
X206375000Y-61625000D03*
X206375000Y-59025000D03*
X204470000Y-61625000D03*
X204470000Y-59025000D03*
X202565000Y-61625000D03*
X202565000Y-59025000D03*
X200660000Y-61625000D03*
X200660000Y-59025000D03*
X198755000Y-61625000D03*
X198755000Y-59025000D03*
D16*
X212090000Y-65700000D03*
X212090000Y-63500000D03*
X210185000Y-65700000D03*
X210185000Y-63500000D03*
X208280000Y-65700000D03*
X208280000Y-63500000D03*
X206375000Y-65700000D03*
X206375000Y-63500000D03*
X204470000Y-65700000D03*
X204470000Y-63500000D03*
X202565000Y-65700000D03*
X202565000Y-63500000D03*
X200660000Y-65700000D03*
X200660000Y-63500000D03*
X198755000Y-65700000D03*
X198755000Y-63500000D03*
M02*
