G04 #@! TF.FileFunction,Copper,L1,Top,Signal*
%FSLAX46Y46*%
G04 Gerber Fmt 4.6, Leading zero omitted, Abs format (unit mm)*
G04 Created by KiCad (PCBNEW 4.0.1-stable) date Friday, 06 May 2016 'pmt' 19:48:24*
%MOMM*%
G01*
G04 APERTURE LIST*
%ADD10C,0.100000*%
%ADD11O,1.524000X2.540000*%
%ADD12R,1.220000X0.910000*%
%ADD13O,4.000500X2.499360*%
%ADD14O,2.000000X1.200000*%
%ADD15R,0.900000X1.200000*%
%ADD16C,1.524000*%
%ADD17C,1.000000*%
%ADD18C,0.600000*%
%ADD19C,0.250000*%
%ADD20C,1.000000*%
G04 APERTURE END LIST*
D10*
D11*
X209550000Y-159385000D03*
X207010000Y-159385000D03*
X204470000Y-159385000D03*
X196850000Y-159385000D03*
X199390000Y-159385000D03*
X201930000Y-159385000D03*
X191770000Y-159385000D03*
X189230000Y-159385000D03*
X186690000Y-159385000D03*
X181610000Y-159385000D03*
X179070000Y-159385000D03*
X209550000Y-111125000D03*
X207010000Y-111125000D03*
X204470000Y-111125000D03*
X201930000Y-111125000D03*
X199390000Y-111125000D03*
X196850000Y-111125000D03*
X194310000Y-111125000D03*
X191770000Y-111125000D03*
X187706000Y-111125000D03*
X185166000Y-111125000D03*
X182626000Y-111125000D03*
X180086000Y-111125000D03*
X177546000Y-111125000D03*
X175006000Y-111125000D03*
X172466000Y-111125000D03*
X169926000Y-111125000D03*
X184150000Y-159385000D03*
D12*
X180975000Y-114935000D03*
X180975000Y-118205000D03*
X180975000Y-123920000D03*
X180975000Y-120650000D03*
X204470000Y-114935000D03*
X204470000Y-118205000D03*
X204470000Y-123920000D03*
X204470000Y-120650000D03*
D13*
X202976480Y-130810000D03*
X180975000Y-130810000D03*
D14*
X168910000Y-140970000D03*
X168910000Y-142970000D03*
X168910000Y-131985000D03*
X168910000Y-133985000D03*
X168910000Y-115015000D03*
X168910000Y-117015000D03*
X168910000Y-119015000D03*
X168910000Y-121015000D03*
X168910000Y-123015000D03*
X168910000Y-125015000D03*
X168910000Y-149385000D03*
X168910000Y-151385000D03*
X168910000Y-153385000D03*
X168910000Y-155385000D03*
X168910000Y-157385000D03*
X168910000Y-159385000D03*
D15*
X184150000Y-115910000D03*
X184150000Y-118110000D03*
X184150000Y-122850000D03*
X184150000Y-120650000D03*
X207645000Y-115910000D03*
X207645000Y-118110000D03*
X207645000Y-122850000D03*
X207645000Y-120650000D03*
X177800000Y-118110000D03*
X177800000Y-115910000D03*
X177800000Y-120650000D03*
X177800000Y-122850000D03*
X201295000Y-118110000D03*
X201295000Y-115910000D03*
X201295000Y-120650000D03*
X201295000Y-122850000D03*
D16*
X173990000Y-138430000D03*
X211490000Y-138430000D03*
X211490000Y-154930000D03*
X173990000Y-154930000D03*
D17*
X182880000Y-119380000D03*
D18*
X206375000Y-119380000D03*
D17*
X171450000Y-117475000D03*
D18*
X198120000Y-121920000D03*
X199390000Y-126365000D03*
X194310000Y-119380000D03*
X192405000Y-126365000D03*
X173990000Y-114935000D03*
X179070000Y-113859980D03*
D19*
X177800000Y-115910000D02*
X177800000Y-115060000D01*
X177800000Y-115060000D02*
X177925000Y-114935000D01*
X177925000Y-114935000D02*
X180115000Y-114935000D01*
X180115000Y-114935000D02*
X180975000Y-114935000D01*
X184150000Y-115910000D02*
X184150000Y-115760000D01*
X184150000Y-115760000D02*
X183325000Y-114935000D01*
X183325000Y-114935000D02*
X181835000Y-114935000D01*
X181835000Y-114935000D02*
X180975000Y-114935000D01*
X185166000Y-111125000D02*
X185166000Y-115594000D01*
X184850000Y-115910000D02*
X184150000Y-115910000D01*
X185166000Y-115594000D02*
X184850000Y-115910000D01*
X185166000Y-112645000D02*
X185166000Y-111125000D01*
X180805000Y-115105000D02*
X180975000Y-114935000D01*
D20*
X184150000Y-120650000D02*
X182880000Y-119380000D01*
X184150000Y-118110000D02*
X184150000Y-120650000D01*
X180975000Y-120650000D02*
X184150000Y-120650000D01*
X180975000Y-118205000D02*
X180975000Y-120650000D01*
X184150000Y-118110000D02*
X181070000Y-118110000D01*
X181070000Y-118110000D02*
X180975000Y-118205000D01*
X207645000Y-118110000D02*
X206375000Y-119380000D01*
X207645000Y-120650000D02*
X207645000Y-118110000D01*
X204470000Y-120650000D02*
X207645000Y-120650000D01*
X204470000Y-118205000D02*
X204470000Y-120650000D01*
X207645000Y-118110000D02*
X204565000Y-118110000D01*
X204565000Y-118110000D02*
X204470000Y-118205000D01*
X172466000Y-111125000D02*
X172466000Y-116459000D01*
X172466000Y-116459000D02*
X171450000Y-117475000D01*
D19*
X177800000Y-122850000D02*
X177800000Y-123700000D01*
X177800000Y-123700000D02*
X178020000Y-123920000D01*
X178020000Y-123920000D02*
X180115000Y-123920000D01*
X180115000Y-123920000D02*
X180975000Y-123920000D01*
X184150000Y-122850000D02*
X184150000Y-123700000D01*
X184150000Y-123700000D02*
X183930000Y-123920000D01*
X183930000Y-123920000D02*
X181835000Y-123920000D01*
X181835000Y-123920000D02*
X180975000Y-123920000D01*
X187706000Y-111125000D02*
X187706000Y-119994000D01*
X187706000Y-119994000D02*
X184850000Y-122850000D01*
X184850000Y-122850000D02*
X184150000Y-122850000D01*
X204470000Y-114935000D02*
X206820000Y-114935000D01*
X206820000Y-114935000D02*
X207645000Y-115760000D01*
X207645000Y-115760000D02*
X207645000Y-115910000D01*
X204470000Y-114935000D02*
X202120000Y-114935000D01*
X202120000Y-114935000D02*
X201295000Y-115760000D01*
X201295000Y-115760000D02*
X201295000Y-115910000D01*
X196850000Y-111125000D02*
X196850000Y-111633000D01*
X196850000Y-111633000D02*
X201127000Y-115910000D01*
X201127000Y-115910000D02*
X201295000Y-115910000D01*
X201295000Y-122850000D02*
X201295000Y-123700000D01*
X201295000Y-123700000D02*
X201515000Y-123920000D01*
X201515000Y-123920000D02*
X203610000Y-123920000D01*
X203610000Y-123920000D02*
X204470000Y-123920000D01*
X207645000Y-122850000D02*
X207645000Y-123000000D01*
X207645000Y-123000000D02*
X206725000Y-123920000D01*
X206725000Y-123920000D02*
X205330000Y-123920000D01*
X205330000Y-123920000D02*
X204470000Y-123920000D01*
X209550000Y-114935000D02*
X209550000Y-120795000D01*
X209550000Y-120795000D02*
X207645000Y-122700000D01*
X207645000Y-122700000D02*
X207645000Y-122850000D01*
X208280000Y-113665000D02*
X209550000Y-114935000D01*
X201422000Y-113665000D02*
X208280000Y-113665000D01*
X199390000Y-111125000D02*
X199390000Y-111633000D01*
X199390000Y-111633000D02*
X201422000Y-113665000D01*
D20*
X166910000Y-119015000D02*
X166640000Y-119015000D01*
X166370000Y-115555000D02*
X166910000Y-115015000D01*
X166640000Y-119015000D02*
X166370000Y-118745000D01*
X166370000Y-118745000D02*
X166370000Y-115555000D01*
X166910000Y-115015000D02*
X168910000Y-115015000D01*
X168910000Y-119015000D02*
X166910000Y-119015000D01*
X166370000Y-136830000D02*
X168910000Y-139370000D01*
X166910000Y-119015000D02*
X166370000Y-119555000D01*
X166370000Y-119555000D02*
X166370000Y-136830000D01*
X168910000Y-139370000D02*
X168910000Y-140970000D01*
X166370000Y-150495000D02*
X166370000Y-152845000D01*
X166370000Y-152845000D02*
X166910000Y-153385000D01*
X166910000Y-153385000D02*
X168910000Y-153385000D01*
X167480000Y-149385000D02*
X166370000Y-150495000D01*
X168910000Y-149385000D02*
X167480000Y-149385000D01*
X168910000Y-140970000D02*
X166910000Y-140970000D01*
X166910000Y-140970000D02*
X166370000Y-141510000D01*
X166370000Y-141510000D02*
X166370000Y-147955000D01*
X166370000Y-147955000D02*
X167800000Y-149385000D01*
X167800000Y-149385000D02*
X168910000Y-149385000D01*
X168510000Y-115015000D02*
X168910000Y-115015000D01*
X180975000Y-130810000D02*
X177974750Y-130810000D01*
X177974750Y-130810000D02*
X168910000Y-139874750D01*
X168910000Y-139874750D02*
X168910000Y-140970000D01*
X211490000Y-138430000D02*
X211490000Y-141427000D01*
X211490000Y-141427000D02*
X193532000Y-159385000D01*
X193532000Y-159385000D02*
X191770000Y-159385000D01*
X211490000Y-138430000D02*
X211490000Y-130845000D01*
X211490000Y-130845000D02*
X208915000Y-128270000D01*
X208915000Y-128270000D02*
X174625000Y-128270000D01*
X174625000Y-128270000D02*
X170910000Y-131985000D01*
X170910000Y-131985000D02*
X168910000Y-131985000D01*
D19*
X168910000Y-123015000D02*
X173045000Y-123015000D01*
X173045000Y-123015000D02*
X177800000Y-118260000D01*
X177800000Y-118260000D02*
X177800000Y-118110000D01*
X168910000Y-125015000D02*
X173585000Y-125015000D01*
X173585000Y-125015000D02*
X177800000Y-120800000D01*
X177800000Y-120800000D02*
X177800000Y-120650000D01*
X201295000Y-118110000D02*
X201295000Y-118260000D01*
X201295000Y-118260000D02*
X198120000Y-121435000D01*
X198120000Y-121435000D02*
X198120000Y-121920000D01*
X201295000Y-120650000D02*
X201295000Y-120800000D01*
X201295000Y-120800000D02*
X199390000Y-122705000D01*
X199390000Y-122705000D02*
X199390000Y-123119998D01*
X199390000Y-123119998D02*
X199390000Y-126365000D01*
X194310000Y-114300000D02*
X194310000Y-119380000D01*
X194310000Y-111125000D02*
X194310000Y-114300000D01*
X191770000Y-111125000D02*
X191770000Y-125730000D01*
X191770000Y-125730000D02*
X192405000Y-126365000D01*
X175710010Y-114484990D02*
X175260000Y-114935000D01*
X175260000Y-114935000D02*
X173990000Y-114935000D01*
X182626000Y-111125000D02*
X182626000Y-111633000D01*
X182626000Y-111633000D02*
X179774010Y-114484990D01*
X179774010Y-114484990D02*
X175710010Y-114484990D01*
X180086000Y-112649000D02*
X179070000Y-113665000D01*
X179070000Y-113665000D02*
X179070000Y-113859980D01*
X180086000Y-111125000D02*
X180086000Y-112649000D01*
X180086000Y-111125000D02*
X180086000Y-111633000D01*
D20*
X202976480Y-130810000D02*
X202976480Y-133059680D01*
X202976480Y-133059680D02*
X197606160Y-138430000D01*
X197606160Y-138430000D02*
X175067630Y-138430000D01*
X175067630Y-138430000D02*
X173990000Y-138430000D01*
M02*
