G04 #@! TF.FileFunction,Legend,Top*
%FSLAX46Y46*%
G04 Gerber Fmt 4.6, Leading zero omitted, Abs format (unit mm)*
G04 Created by KiCad (PCBNEW 4.0.1-stable) date Friday, 06 May 2016 'pmt' 19:48:24*
%MOMM*%
G01*
G04 APERTURE LIST*
%ADD10C,0.100000*%
%ADD11C,0.300000*%
%ADD12C,0.381000*%
%ADD13C,0.150000*%
%ADD14C,0.304800*%
G04 APERTURE END LIST*
D10*
D11*
X163949286Y-145371429D02*
X164020715Y-145300000D01*
X164163572Y-145228571D01*
X164520715Y-145228571D01*
X164663572Y-145300000D01*
X164735001Y-145371429D01*
X164806429Y-145514286D01*
X164806429Y-145657143D01*
X164735001Y-145871429D01*
X163877858Y-146728571D01*
X164806429Y-146728571D01*
X165449286Y-145728571D02*
X165449286Y-146728571D01*
X165449286Y-145871429D02*
X165520714Y-145800000D01*
X165663572Y-145728571D01*
X165877857Y-145728571D01*
X166020714Y-145800000D01*
X166092143Y-145942857D01*
X166092143Y-146728571D01*
X167449286Y-146728571D02*
X167449286Y-145228571D01*
X167449286Y-146657143D02*
X167306429Y-146728571D01*
X167020715Y-146728571D01*
X166877857Y-146657143D01*
X166806429Y-146585714D01*
X166735000Y-146442857D01*
X166735000Y-146014286D01*
X166806429Y-145871429D01*
X166877857Y-145800000D01*
X167020715Y-145728571D01*
X167306429Y-145728571D01*
X167449286Y-145800000D01*
X163925714Y-138473571D02*
X163925714Y-136973571D01*
X164497142Y-136973571D01*
X164640000Y-137045000D01*
X164711428Y-137116429D01*
X164782857Y-137259286D01*
X164782857Y-137473571D01*
X164711428Y-137616429D01*
X164640000Y-137687857D01*
X164497142Y-137759286D01*
X163925714Y-137759286D01*
X165282857Y-136973571D02*
X165640000Y-138473571D01*
X165925714Y-137402143D01*
X166211428Y-138473571D01*
X166568571Y-136973571D01*
X167997143Y-138473571D02*
X167497143Y-137759286D01*
X167140000Y-138473571D02*
X167140000Y-136973571D01*
X167711428Y-136973571D01*
X167854286Y-137045000D01*
X167925714Y-137116429D01*
X167997143Y-137259286D01*
X167997143Y-137473571D01*
X167925714Y-137616429D01*
X167854286Y-137687857D01*
X167711428Y-137759286D01*
X167140000Y-137759286D01*
X169782857Y-138473571D02*
X169782857Y-136973571D01*
X170497143Y-138473571D02*
X170497143Y-136973571D01*
X171354286Y-138473571D01*
X171354286Y-136973571D01*
X163560714Y-129583571D02*
X163560714Y-128083571D01*
X164132142Y-128083571D01*
X164275000Y-128155000D01*
X164346428Y-128226429D01*
X164417857Y-128369286D01*
X164417857Y-128583571D01*
X164346428Y-128726429D01*
X164275000Y-128797857D01*
X164132142Y-128869286D01*
X163560714Y-128869286D01*
X164917857Y-128083571D02*
X165275000Y-129583571D01*
X165560714Y-128512143D01*
X165846428Y-129583571D01*
X166203571Y-128083571D01*
X167632143Y-129583571D02*
X167132143Y-128869286D01*
X166775000Y-129583571D02*
X166775000Y-128083571D01*
X167346428Y-128083571D01*
X167489286Y-128155000D01*
X167560714Y-128226429D01*
X167632143Y-128369286D01*
X167632143Y-128583571D01*
X167560714Y-128726429D01*
X167489286Y-128797857D01*
X167346428Y-128869286D01*
X166775000Y-128869286D01*
X169703571Y-128083571D02*
X169989285Y-128083571D01*
X170132143Y-128155000D01*
X170275000Y-128297857D01*
X170346428Y-128583571D01*
X170346428Y-129083571D01*
X170275000Y-129369286D01*
X170132143Y-129512143D01*
X169989285Y-129583571D01*
X169703571Y-129583571D01*
X169560714Y-129512143D01*
X169417857Y-129369286D01*
X169346428Y-129083571D01*
X169346428Y-128583571D01*
X169417857Y-128297857D01*
X169560714Y-128155000D01*
X169703571Y-128083571D01*
X170989286Y-128083571D02*
X170989286Y-129297857D01*
X171060714Y-129440714D01*
X171132143Y-129512143D01*
X171275000Y-129583571D01*
X171560714Y-129583571D01*
X171703572Y-129512143D01*
X171775000Y-129440714D01*
X171846429Y-129297857D01*
X171846429Y-128083571D01*
X172346429Y-128083571D02*
X173203572Y-128083571D01*
X172775001Y-129583571D02*
X172775001Y-128083571D01*
X163520714Y-111803571D02*
X163520714Y-110303571D01*
X164020714Y-111375000D01*
X164520714Y-110303571D01*
X164520714Y-111803571D01*
X165877857Y-111803571D02*
X165877857Y-111017857D01*
X165806428Y-110875000D01*
X165663571Y-110803571D01*
X165377857Y-110803571D01*
X165235000Y-110875000D01*
X165877857Y-111732143D02*
X165735000Y-111803571D01*
X165377857Y-111803571D01*
X165235000Y-111732143D01*
X165163571Y-111589286D01*
X165163571Y-111446429D01*
X165235000Y-111303571D01*
X165377857Y-111232143D01*
X165735000Y-111232143D01*
X165877857Y-111160714D01*
X166592143Y-111803571D02*
X166592143Y-110803571D01*
X166592143Y-110303571D02*
X166520714Y-110375000D01*
X166592143Y-110446429D01*
X166663571Y-110375000D01*
X166592143Y-110303571D01*
X166592143Y-110446429D01*
X167306429Y-110803571D02*
X167306429Y-111803571D01*
X167306429Y-110946429D02*
X167377857Y-110875000D01*
X167520715Y-110803571D01*
X167735000Y-110803571D01*
X167877857Y-110875000D01*
X167949286Y-111017857D01*
X167949286Y-111803571D01*
D12*
X212090000Y-121285000D02*
X212090000Y-109855000D01*
X212090000Y-109855000D02*
X210820000Y-108585000D01*
X210820000Y-108585000D02*
X162150000Y-108625000D01*
X212090000Y-161925000D02*
X162150000Y-161925000D01*
X162150000Y-161965000D02*
X162150000Y-108625000D01*
X212090000Y-121285000D02*
X214630000Y-123825000D01*
X214630000Y-123825000D02*
X214630000Y-156845000D01*
X214630000Y-156845000D02*
X212090000Y-159385000D01*
X212090000Y-159385000D02*
X212090000Y-161925000D01*
D13*
X180975000Y-116887500D02*
X180975000Y-117268500D01*
X180975000Y-115871500D02*
X180975000Y-116252500D01*
X180975000Y-116252500D02*
X181356000Y-116887500D01*
X181356000Y-116887500D02*
X180594000Y-116887500D01*
X180594000Y-116887500D02*
X180975000Y-116252500D01*
X181483000Y-116252500D02*
X180467000Y-116252500D01*
X180075000Y-114570000D02*
X180075000Y-118110000D01*
X181875000Y-114570000D02*
X181875000Y-118110000D01*
X180975000Y-121967500D02*
X180975000Y-121586500D01*
X180975000Y-122983500D02*
X180975000Y-122602500D01*
X180975000Y-122602500D02*
X180594000Y-121967500D01*
X180594000Y-121967500D02*
X181356000Y-121967500D01*
X181356000Y-121967500D02*
X180975000Y-122602500D01*
X180467000Y-122602500D02*
X181483000Y-122602500D01*
X181875000Y-124285000D02*
X181875000Y-120745000D01*
X180075000Y-124285000D02*
X180075000Y-120745000D01*
X204470000Y-116887500D02*
X204470000Y-117268500D01*
X204470000Y-115871500D02*
X204470000Y-116252500D01*
X204470000Y-116252500D02*
X204851000Y-116887500D01*
X204851000Y-116887500D02*
X204089000Y-116887500D01*
X204089000Y-116887500D02*
X204470000Y-116252500D01*
X204978000Y-116252500D02*
X203962000Y-116252500D01*
X203570000Y-114570000D02*
X203570000Y-118110000D01*
X205370000Y-114570000D02*
X205370000Y-118110000D01*
X204470000Y-121967500D02*
X204470000Y-121586500D01*
X204470000Y-122983500D02*
X204470000Y-122602500D01*
X204470000Y-122602500D02*
X204089000Y-121967500D01*
X204089000Y-121967500D02*
X204851000Y-121967500D01*
X204851000Y-121967500D02*
X204470000Y-122602500D01*
X203962000Y-122602500D02*
X204978000Y-122602500D01*
X205370000Y-124285000D02*
X205370000Y-120745000D01*
X203570000Y-124285000D02*
X203570000Y-120745000D01*
X185976260Y-128310640D02*
X185976260Y-125808740D01*
X185976260Y-135811260D02*
X185976260Y-133309360D01*
X197975220Y-135811260D02*
X197975220Y-133309360D01*
X197975220Y-125808740D02*
X197975220Y-128310640D01*
X187474860Y-130810000D02*
X196476620Y-130810000D01*
X187474860Y-128310640D02*
X187474860Y-133309360D01*
X196476620Y-128310640D02*
X196476620Y-133309360D01*
X201975720Y-128910080D02*
X201975720Y-128310640D01*
X181975760Y-132709920D02*
X181975760Y-133309360D01*
X181975760Y-133309360D02*
X201975720Y-133309360D01*
X201975720Y-133309360D02*
X201975720Y-132709920D01*
X201975720Y-128310640D02*
X181975760Y-128310640D01*
X181975760Y-128310640D02*
X181975760Y-128910080D01*
X203974700Y-128910080D02*
X203974700Y-125808740D01*
X179976780Y-132709920D02*
X179976780Y-135811260D01*
X179976780Y-135811260D02*
X203974700Y-135811260D01*
X203974700Y-135811260D02*
X203974700Y-132709920D01*
X203974700Y-125808740D02*
X179976780Y-125808740D01*
X179976780Y-125808740D02*
X179976780Y-128910080D01*
X167660000Y-144970000D02*
X170660000Y-144970000D01*
X167660000Y-138970000D02*
X170660000Y-138970000D01*
X167660000Y-138970000D02*
X162660000Y-138970000D01*
X162660000Y-138970000D02*
X162660000Y-144970000D01*
X162660000Y-144970000D02*
X167660000Y-144970000D01*
X170660000Y-139020000D02*
X170660000Y-144920000D01*
X167660000Y-135985000D02*
X170660000Y-135985000D01*
X167660000Y-129985000D02*
X170660000Y-129985000D01*
X167660000Y-129985000D02*
X162660000Y-129985000D01*
X162660000Y-129985000D02*
X162660000Y-135985000D01*
X162660000Y-135985000D02*
X167660000Y-135985000D01*
X170660000Y-130035000D02*
X170660000Y-135935000D01*
X162660000Y-113015000D02*
X170660000Y-113015000D01*
X162660000Y-127015000D02*
X162660000Y-113015000D01*
X170660000Y-127015000D02*
X162660000Y-127015000D01*
X170660000Y-113015000D02*
X170660000Y-127015000D01*
X162660000Y-147385000D02*
X170660000Y-147385000D01*
X162660000Y-161385000D02*
X162660000Y-147385000D01*
X170660000Y-161385000D02*
X162660000Y-161385000D01*
X170660000Y-147385000D02*
X170660000Y-161385000D01*
X183475000Y-117510000D02*
X183475000Y-116510000D01*
X184825000Y-116510000D02*
X184825000Y-117510000D01*
X184825000Y-121250000D02*
X184825000Y-122250000D01*
X183475000Y-122250000D02*
X183475000Y-121250000D01*
X206970000Y-117510000D02*
X206970000Y-116510000D01*
X208320000Y-116510000D02*
X208320000Y-117510000D01*
X208320000Y-121250000D02*
X208320000Y-122250000D01*
X206970000Y-122250000D02*
X206970000Y-121250000D01*
X178475000Y-116510000D02*
X178475000Y-117510000D01*
X177125000Y-117510000D02*
X177125000Y-116510000D01*
X177125000Y-122250000D02*
X177125000Y-121250000D01*
X178475000Y-121250000D02*
X178475000Y-122250000D01*
X201970000Y-116510000D02*
X201970000Y-117510000D01*
X200620000Y-117510000D02*
X200620000Y-116510000D01*
X200620000Y-122250000D02*
X200620000Y-121250000D01*
X201970000Y-121250000D02*
X201970000Y-122250000D01*
X172490000Y-156430000D02*
X172490000Y-136930000D01*
X212990000Y-156430000D02*
X172490000Y-156430000D01*
X212990000Y-136930000D02*
X212990000Y-156430000D01*
X172490000Y-136930000D02*
X212990000Y-136930000D01*
D14*
X144199429Y-105391857D02*
X144417143Y-105464429D01*
X144780000Y-105464429D01*
X144925143Y-105391857D01*
X144997714Y-105319286D01*
X145070286Y-105174143D01*
X145070286Y-105029000D01*
X144997714Y-104883857D01*
X144925143Y-104811286D01*
X144780000Y-104738714D01*
X144489714Y-104666143D01*
X144344572Y-104593571D01*
X144272000Y-104521000D01*
X144199429Y-104375857D01*
X144199429Y-104230714D01*
X144272000Y-104085571D01*
X144344572Y-104013000D01*
X144489714Y-103940429D01*
X144852572Y-103940429D01*
X145070286Y-104013000D01*
X145723429Y-105464429D02*
X145723429Y-103940429D01*
X145723429Y-104666143D02*
X146594286Y-104666143D01*
X146594286Y-105464429D02*
X146594286Y-103940429D01*
X147320000Y-105464429D02*
X147320000Y-103940429D01*
X148045714Y-104666143D02*
X148553714Y-104666143D01*
X148771428Y-105464429D02*
X148045714Y-105464429D01*
X148045714Y-103940429D01*
X148771428Y-103940429D01*
X150150285Y-105464429D02*
X149424571Y-105464429D01*
X149424571Y-103940429D01*
X150658285Y-105464429D02*
X150658285Y-103940429D01*
X151021142Y-103940429D01*
X151238857Y-104013000D01*
X151383999Y-104158143D01*
X151456571Y-104303286D01*
X151529142Y-104593571D01*
X151529142Y-104811286D01*
X151456571Y-105101571D01*
X151383999Y-105246714D01*
X151238857Y-105391857D01*
X151021142Y-105464429D01*
X150658285Y-105464429D01*
X152980571Y-105464429D02*
X152109714Y-105464429D01*
X152545142Y-105464429D02*
X152545142Y-103940429D01*
X152399999Y-104158143D01*
X152254857Y-104303286D01*
X152109714Y-104375857D01*
D13*
X183332381Y-115038095D02*
X182332381Y-115038095D01*
X182332381Y-114800000D01*
X182380000Y-114657142D01*
X182475238Y-114561904D01*
X182570476Y-114514285D01*
X182760952Y-114466666D01*
X182903810Y-114466666D01*
X183094286Y-114514285D01*
X183189524Y-114561904D01*
X183284762Y-114657142D01*
X183332381Y-114800000D01*
X183332381Y-115038095D01*
X183332381Y-113514285D02*
X183332381Y-114085714D01*
X183332381Y-113800000D02*
X182332381Y-113800000D01*
X182475238Y-113895238D01*
X182570476Y-113990476D01*
X182618095Y-114085714D01*
X183332381Y-125198095D02*
X182332381Y-125198095D01*
X182332381Y-124960000D01*
X182380000Y-124817142D01*
X182475238Y-124721904D01*
X182570476Y-124674285D01*
X182760952Y-124626666D01*
X182903810Y-124626666D01*
X183094286Y-124674285D01*
X183189524Y-124721904D01*
X183284762Y-124817142D01*
X183332381Y-124960000D01*
X183332381Y-125198095D01*
X182427619Y-124245714D02*
X182380000Y-124198095D01*
X182332381Y-124102857D01*
X182332381Y-123864761D01*
X182380000Y-123769523D01*
X182427619Y-123721904D01*
X182522857Y-123674285D01*
X182618095Y-123674285D01*
X182760952Y-123721904D01*
X183332381Y-124293333D01*
X183332381Y-123674285D01*
X206827381Y-115038095D02*
X205827381Y-115038095D01*
X205827381Y-114800000D01*
X205875000Y-114657142D01*
X205970238Y-114561904D01*
X206065476Y-114514285D01*
X206255952Y-114466666D01*
X206398810Y-114466666D01*
X206589286Y-114514285D01*
X206684524Y-114561904D01*
X206779762Y-114657142D01*
X206827381Y-114800000D01*
X206827381Y-115038095D01*
X205827381Y-114133333D02*
X205827381Y-113514285D01*
X206208333Y-113847619D01*
X206208333Y-113704761D01*
X206255952Y-113609523D01*
X206303571Y-113561904D01*
X206398810Y-113514285D01*
X206636905Y-113514285D01*
X206732143Y-113561904D01*
X206779762Y-113609523D01*
X206827381Y-113704761D01*
X206827381Y-113990476D01*
X206779762Y-114085714D01*
X206732143Y-114133333D01*
X206827381Y-125198095D02*
X205827381Y-125198095D01*
X205827381Y-124960000D01*
X205875000Y-124817142D01*
X205970238Y-124721904D01*
X206065476Y-124674285D01*
X206255952Y-124626666D01*
X206398810Y-124626666D01*
X206589286Y-124674285D01*
X206684524Y-124721904D01*
X206779762Y-124817142D01*
X206827381Y-124960000D01*
X206827381Y-125198095D01*
X206160714Y-123769523D02*
X206827381Y-123769523D01*
X205779762Y-124007619D02*
X206494048Y-124245714D01*
X206494048Y-123626666D01*
X191642407Y-123118571D02*
X191309073Y-123118571D01*
X191309073Y-123642381D02*
X191309073Y-122642381D01*
X191785264Y-122642381D01*
X192690026Y-123642381D02*
X192118597Y-123642381D01*
X192404311Y-123642381D02*
X192404311Y-122642381D01*
X192309073Y-122785238D01*
X192213835Y-122880476D01*
X192118597Y-122928095D01*
X172202857Y-142855714D02*
X171002857Y-142855714D01*
X171002857Y-142398571D01*
X171060000Y-142284285D01*
X171117143Y-142227142D01*
X171231429Y-142169999D01*
X171402857Y-142169999D01*
X171517143Y-142227142D01*
X171574286Y-142284285D01*
X171631429Y-142398571D01*
X171631429Y-142855714D01*
X172202857Y-141027142D02*
X172202857Y-141712857D01*
X172202857Y-141369999D02*
X171002857Y-141369999D01*
X171174286Y-141484285D01*
X171288571Y-141598571D01*
X171345714Y-141712857D01*
X172202857Y-133870714D02*
X171002857Y-133870714D01*
X171002857Y-133413571D01*
X171060000Y-133299285D01*
X171117143Y-133242142D01*
X171231429Y-133184999D01*
X171402857Y-133184999D01*
X171517143Y-133242142D01*
X171574286Y-133299285D01*
X171631429Y-133413571D01*
X171631429Y-133870714D01*
X171117143Y-132727857D02*
X171060000Y-132670714D01*
X171002857Y-132556428D01*
X171002857Y-132270714D01*
X171060000Y-132156428D01*
X171117143Y-132099285D01*
X171231429Y-132042142D01*
X171345714Y-132042142D01*
X171517143Y-132099285D01*
X172202857Y-132784999D01*
X172202857Y-132042142D01*
X172202857Y-120900714D02*
X171002857Y-120900714D01*
X171002857Y-120443571D01*
X171060000Y-120329285D01*
X171117143Y-120272142D01*
X171231429Y-120214999D01*
X171402857Y-120214999D01*
X171517143Y-120272142D01*
X171574286Y-120329285D01*
X171631429Y-120443571D01*
X171631429Y-120900714D01*
X171002857Y-119814999D02*
X171002857Y-119072142D01*
X171460000Y-119472142D01*
X171460000Y-119300714D01*
X171517143Y-119186428D01*
X171574286Y-119129285D01*
X171688571Y-119072142D01*
X171974286Y-119072142D01*
X172088571Y-119129285D01*
X172145714Y-119186428D01*
X172202857Y-119300714D01*
X172202857Y-119643571D01*
X172145714Y-119757857D01*
X172088571Y-119814999D01*
X172202857Y-155270714D02*
X171002857Y-155270714D01*
X171002857Y-154813571D01*
X171060000Y-154699285D01*
X171117143Y-154642142D01*
X171231429Y-154584999D01*
X171402857Y-154584999D01*
X171517143Y-154642142D01*
X171574286Y-154699285D01*
X171631429Y-154813571D01*
X171631429Y-155270714D01*
X171402857Y-153556428D02*
X172202857Y-153556428D01*
X170945714Y-153842142D02*
X171802857Y-154127857D01*
X171802857Y-153384999D01*
X186502381Y-117176666D02*
X186026190Y-117510000D01*
X186502381Y-117748095D02*
X185502381Y-117748095D01*
X185502381Y-117367142D01*
X185550000Y-117271904D01*
X185597619Y-117224285D01*
X185692857Y-117176666D01*
X185835714Y-117176666D01*
X185930952Y-117224285D01*
X185978571Y-117271904D01*
X186026190Y-117367142D01*
X186026190Y-117748095D01*
X186502381Y-116224285D02*
X186502381Y-116795714D01*
X186502381Y-116510000D02*
X185502381Y-116510000D01*
X185645238Y-116605238D01*
X185740476Y-116700476D01*
X185788095Y-116795714D01*
X186507381Y-121451666D02*
X186031190Y-121785000D01*
X186507381Y-122023095D02*
X185507381Y-122023095D01*
X185507381Y-121642142D01*
X185555000Y-121546904D01*
X185602619Y-121499285D01*
X185697857Y-121451666D01*
X185840714Y-121451666D01*
X185935952Y-121499285D01*
X185983571Y-121546904D01*
X186031190Y-121642142D01*
X186031190Y-122023095D01*
X185602619Y-121070714D02*
X185555000Y-121023095D01*
X185507381Y-120927857D01*
X185507381Y-120689761D01*
X185555000Y-120594523D01*
X185602619Y-120546904D01*
X185697857Y-120499285D01*
X185793095Y-120499285D01*
X185935952Y-120546904D01*
X186507381Y-121118333D01*
X186507381Y-120499285D01*
X209997381Y-117176666D02*
X209521190Y-117510000D01*
X209997381Y-117748095D02*
X208997381Y-117748095D01*
X208997381Y-117367142D01*
X209045000Y-117271904D01*
X209092619Y-117224285D01*
X209187857Y-117176666D01*
X209330714Y-117176666D01*
X209425952Y-117224285D01*
X209473571Y-117271904D01*
X209521190Y-117367142D01*
X209521190Y-117748095D01*
X208997381Y-116843333D02*
X208997381Y-116224285D01*
X209378333Y-116557619D01*
X209378333Y-116414761D01*
X209425952Y-116319523D01*
X209473571Y-116271904D01*
X209568810Y-116224285D01*
X209806905Y-116224285D01*
X209902143Y-116271904D01*
X209949762Y-116319523D01*
X209997381Y-116414761D01*
X209997381Y-116700476D01*
X209949762Y-116795714D01*
X209902143Y-116843333D01*
X210002381Y-121916666D02*
X209526190Y-122250000D01*
X210002381Y-122488095D02*
X209002381Y-122488095D01*
X209002381Y-122107142D01*
X209050000Y-122011904D01*
X209097619Y-121964285D01*
X209192857Y-121916666D01*
X209335714Y-121916666D01*
X209430952Y-121964285D01*
X209478571Y-122011904D01*
X209526190Y-122107142D01*
X209526190Y-122488095D01*
X209335714Y-121059523D02*
X210002381Y-121059523D01*
X208954762Y-121297619D02*
X209669048Y-121535714D01*
X209669048Y-120916666D01*
X176352381Y-117176666D02*
X175876190Y-117510000D01*
X176352381Y-117748095D02*
X175352381Y-117748095D01*
X175352381Y-117367142D01*
X175400000Y-117271904D01*
X175447619Y-117224285D01*
X175542857Y-117176666D01*
X175685714Y-117176666D01*
X175780952Y-117224285D01*
X175828571Y-117271904D01*
X175876190Y-117367142D01*
X175876190Y-117748095D01*
X175352381Y-116271904D02*
X175352381Y-116748095D01*
X175828571Y-116795714D01*
X175780952Y-116748095D01*
X175733333Y-116652857D01*
X175733333Y-116414761D01*
X175780952Y-116319523D01*
X175828571Y-116271904D01*
X175923810Y-116224285D01*
X176161905Y-116224285D01*
X176257143Y-116271904D01*
X176304762Y-116319523D01*
X176352381Y-116414761D01*
X176352381Y-116652857D01*
X176304762Y-116748095D01*
X176257143Y-116795714D01*
X176347381Y-121916666D02*
X175871190Y-122250000D01*
X176347381Y-122488095D02*
X175347381Y-122488095D01*
X175347381Y-122107142D01*
X175395000Y-122011904D01*
X175442619Y-121964285D01*
X175537857Y-121916666D01*
X175680714Y-121916666D01*
X175775952Y-121964285D01*
X175823571Y-122011904D01*
X175871190Y-122107142D01*
X175871190Y-122488095D01*
X175347381Y-121059523D02*
X175347381Y-121250000D01*
X175395000Y-121345238D01*
X175442619Y-121392857D01*
X175585476Y-121488095D01*
X175775952Y-121535714D01*
X176156905Y-121535714D01*
X176252143Y-121488095D01*
X176299762Y-121440476D01*
X176347381Y-121345238D01*
X176347381Y-121154761D01*
X176299762Y-121059523D01*
X176252143Y-121011904D01*
X176156905Y-120964285D01*
X175918810Y-120964285D01*
X175823571Y-121011904D01*
X175775952Y-121059523D01*
X175728333Y-121154761D01*
X175728333Y-121345238D01*
X175775952Y-121440476D01*
X175823571Y-121488095D01*
X175918810Y-121535714D01*
X199847381Y-117176666D02*
X199371190Y-117510000D01*
X199847381Y-117748095D02*
X198847381Y-117748095D01*
X198847381Y-117367142D01*
X198895000Y-117271904D01*
X198942619Y-117224285D01*
X199037857Y-117176666D01*
X199180714Y-117176666D01*
X199275952Y-117224285D01*
X199323571Y-117271904D01*
X199371190Y-117367142D01*
X199371190Y-117748095D01*
X198847381Y-116843333D02*
X198847381Y-116176666D01*
X199847381Y-116605238D01*
X199842381Y-122086666D02*
X199366190Y-122420000D01*
X199842381Y-122658095D02*
X198842381Y-122658095D01*
X198842381Y-122277142D01*
X198890000Y-122181904D01*
X198937619Y-122134285D01*
X199032857Y-122086666D01*
X199175714Y-122086666D01*
X199270952Y-122134285D01*
X199318571Y-122181904D01*
X199366190Y-122277142D01*
X199366190Y-122658095D01*
X199270952Y-121515238D02*
X199223333Y-121610476D01*
X199175714Y-121658095D01*
X199080476Y-121705714D01*
X199032857Y-121705714D01*
X198937619Y-121658095D01*
X198890000Y-121610476D01*
X198842381Y-121515238D01*
X198842381Y-121324761D01*
X198890000Y-121229523D01*
X198937619Y-121181904D01*
X199032857Y-121134285D01*
X199080476Y-121134285D01*
X199175714Y-121181904D01*
X199223333Y-121229523D01*
X199270952Y-121324761D01*
X199270952Y-121515238D01*
X199318571Y-121610476D01*
X199366190Y-121658095D01*
X199461429Y-121705714D01*
X199651905Y-121705714D01*
X199747143Y-121658095D01*
X199794762Y-121610476D01*
X199842381Y-121515238D01*
X199842381Y-121324761D01*
X199794762Y-121229523D01*
X199747143Y-121181904D01*
X199651905Y-121134285D01*
X199461429Y-121134285D01*
X199366190Y-121181904D01*
X199318571Y-121229523D01*
X199270952Y-121324761D01*
X191228095Y-157382381D02*
X191228095Y-158191905D01*
X191275714Y-158287143D01*
X191323333Y-158334762D01*
X191418571Y-158382381D01*
X191609048Y-158382381D01*
X191704286Y-158334762D01*
X191751905Y-158287143D01*
X191799524Y-158191905D01*
X191799524Y-157382381D01*
X192799524Y-158382381D02*
X192228095Y-158382381D01*
X192513809Y-158382381D02*
X192513809Y-157382381D01*
X192418571Y-157525238D01*
X192323333Y-157620476D01*
X192228095Y-157668095D01*
M02*
