G04 #@! TF.FileFunction,Legend,Top*
%FSLAX46Y46*%
G04 Gerber Fmt 4.6, Leading zero omitted, Abs format (unit mm)*
G04 Created by KiCad (PCBNEW 4.0.1-stable) date Friday, 17 June 2016 'pmt' 14:47:11*
%MOMM*%
G01*
G04 APERTURE LIST*
%ADD10C,0.100000*%
%ADD11C,0.200000*%
%ADD12C,0.150000*%
%ADD13C,0.381000*%
%ADD14C,0.250000*%
%ADD15C,0.304800*%
G04 APERTURE END LIST*
D10*
D11*
X197933571Y-57649999D02*
X197933571Y-56649999D01*
X199433571Y-57292856D01*
X199838571Y-56864285D02*
X199838571Y-57149999D01*
X199910000Y-57292856D01*
X199981429Y-57364285D01*
X200195714Y-57507142D01*
X200481429Y-57578571D01*
X201052857Y-57578571D01*
X201195714Y-57507142D01*
X201267143Y-57435714D01*
X201338571Y-57292856D01*
X201338571Y-57007142D01*
X201267143Y-56864285D01*
X201195714Y-56792856D01*
X201052857Y-56721428D01*
X200695714Y-56721428D01*
X200552857Y-56792856D01*
X200481429Y-56864285D01*
X200410000Y-57007142D01*
X200410000Y-57292856D01*
X200481429Y-57435714D01*
X200552857Y-57507142D01*
X200695714Y-57578571D01*
X201743571Y-56792856D02*
X201743571Y-57507142D01*
X202457857Y-57578571D01*
X202386429Y-57507142D01*
X202315000Y-57364285D01*
X202315000Y-57007142D01*
X202386429Y-56864285D01*
X202457857Y-56792856D01*
X202600714Y-56721428D01*
X202957857Y-56721428D01*
X203100714Y-56792856D01*
X203172143Y-56864285D01*
X203243571Y-57007142D01*
X203243571Y-57364285D01*
X203172143Y-57507142D01*
X203100714Y-57578571D01*
X204148571Y-56864285D02*
X205148571Y-56864285D01*
X203577143Y-57221428D02*
X204648571Y-57578571D01*
X204648571Y-56649999D01*
X205553571Y-57649999D02*
X205553571Y-56721428D01*
X206125000Y-57221428D01*
X206125000Y-57007142D01*
X206196429Y-56864285D01*
X206267857Y-56792856D01*
X206410714Y-56721428D01*
X206767857Y-56721428D01*
X206910714Y-56792856D01*
X206982143Y-56864285D01*
X207053571Y-57007142D01*
X207053571Y-57435714D01*
X206982143Y-57578571D01*
X206910714Y-57649999D01*
X207601429Y-57578571D02*
X207530000Y-57507142D01*
X207458571Y-57364285D01*
X207458571Y-57007142D01*
X207530000Y-56864285D01*
X207601429Y-56792856D01*
X207744286Y-56721428D01*
X207887143Y-56721428D01*
X208101429Y-56792856D01*
X208958571Y-57649999D01*
X208958571Y-56721428D01*
X210863571Y-56721428D02*
X210863571Y-57578571D01*
X210863571Y-57149999D02*
X209363571Y-57149999D01*
X209577857Y-57292856D01*
X209720714Y-57435714D01*
X209792143Y-57578571D01*
X211268571Y-57221428D02*
X211268571Y-57078571D01*
X211340000Y-56935714D01*
X211411429Y-56864285D01*
X211554286Y-56792856D01*
X211840000Y-56721428D01*
X212197143Y-56721428D01*
X212482857Y-56792856D01*
X212625714Y-56864285D01*
X212697143Y-56935714D01*
X212768571Y-57078571D01*
X212768571Y-57221428D01*
X212697143Y-57364285D01*
X212625714Y-57435714D01*
X212482857Y-57507142D01*
X212197143Y-57578571D01*
X211840000Y-57578571D01*
X211554286Y-57507142D01*
X211411429Y-57435714D01*
X211340000Y-57364285D01*
X211268571Y-57221428D01*
X197279287Y-90603571D02*
X197636430Y-91603571D01*
X197993572Y-90603571D01*
X199493572Y-90889286D02*
X199422144Y-90817857D01*
X199279287Y-90746429D01*
X199136429Y-90746429D01*
X198993572Y-90817857D01*
X198922144Y-90889286D01*
X198850715Y-91032143D01*
X198850715Y-91175000D01*
X198922144Y-91317857D01*
X198993572Y-91389286D01*
X199136429Y-91460714D01*
X199279287Y-91460714D01*
X199422144Y-91389286D01*
X199493572Y-91317857D01*
X199493572Y-90746429D02*
X199493572Y-91317857D01*
X199565001Y-91389286D01*
X199636429Y-91389286D01*
X199779287Y-91317857D01*
X199850715Y-91175000D01*
X199850715Y-90817857D01*
X199707858Y-90603571D01*
X199493572Y-90460714D01*
X199207858Y-90389286D01*
X198922144Y-90460714D01*
X198707858Y-90603571D01*
X198565001Y-90817857D01*
X198493572Y-91103571D01*
X198565001Y-91389286D01*
X198707858Y-91603571D01*
X198922144Y-91746429D01*
X199207858Y-91817857D01*
X199493572Y-91746429D01*
X199707858Y-91603571D01*
X200493572Y-90603571D02*
X200493572Y-91603571D01*
X200493572Y-90746429D02*
X200565000Y-90675000D01*
X200707858Y-90603571D01*
X200922143Y-90603571D01*
X201065000Y-90675000D01*
X201136429Y-90817857D01*
X201136429Y-91603571D01*
X202493572Y-91532143D02*
X202350715Y-91603571D01*
X202065001Y-91603571D01*
X201922143Y-91532143D01*
X201850715Y-91460714D01*
X201779286Y-91317857D01*
X201779286Y-90889286D01*
X201850715Y-90746429D01*
X201922143Y-90675000D01*
X202065001Y-90603571D01*
X202350715Y-90603571D01*
X202493572Y-90675000D01*
X203707857Y-91532143D02*
X203565000Y-91603571D01*
X203279286Y-91603571D01*
X203136429Y-91532143D01*
X203065000Y-91389286D01*
X203065000Y-90817857D01*
X203136429Y-90675000D01*
X203279286Y-90603571D01*
X203565000Y-90603571D01*
X203707857Y-90675000D01*
X203779286Y-90817857D01*
X203779286Y-90960714D01*
X203065000Y-91103571D01*
X204422143Y-91460714D02*
X204493571Y-91532143D01*
X204422143Y-91603571D01*
X204350714Y-91532143D01*
X204422143Y-91460714D01*
X204422143Y-91603571D01*
X205136429Y-91603571D02*
X205136429Y-90603571D01*
X205136429Y-90746429D02*
X205207857Y-90675000D01*
X205350715Y-90603571D01*
X205565000Y-90603571D01*
X205707857Y-90675000D01*
X205779286Y-90817857D01*
X205779286Y-91603571D01*
X205779286Y-90817857D02*
X205850715Y-90675000D01*
X205993572Y-90603571D01*
X206207857Y-90603571D01*
X206350715Y-90675000D01*
X206422143Y-90817857D01*
X206422143Y-91603571D01*
X207707857Y-91532143D02*
X207565000Y-91603571D01*
X207279286Y-91603571D01*
X207136429Y-91532143D01*
X207065000Y-91389286D01*
X207065000Y-90817857D01*
X207136429Y-90675000D01*
X207279286Y-90603571D01*
X207565000Y-90603571D01*
X207707857Y-90675000D01*
X207779286Y-90817857D01*
X207779286Y-90960714D01*
X207065000Y-91103571D01*
X192172144Y-92403571D02*
X193029287Y-92403571D01*
X192600716Y-93903571D02*
X192600716Y-92403571D01*
X193529287Y-93903571D02*
X193529287Y-92903571D01*
X193529287Y-93189286D02*
X193600715Y-93046429D01*
X193672144Y-92975000D01*
X193815001Y-92903571D01*
X193957858Y-92903571D01*
X195100715Y-93903571D02*
X195100715Y-93117857D01*
X195029286Y-92975000D01*
X194886429Y-92903571D01*
X194600715Y-92903571D01*
X194457858Y-92975000D01*
X195100715Y-93832143D02*
X194957858Y-93903571D01*
X194600715Y-93903571D01*
X194457858Y-93832143D01*
X194386429Y-93689286D01*
X194386429Y-93546429D01*
X194457858Y-93403571D01*
X194600715Y-93332143D01*
X194957858Y-93332143D01*
X195100715Y-93260714D01*
X196457858Y-93832143D02*
X196315001Y-93903571D01*
X196029287Y-93903571D01*
X195886429Y-93832143D01*
X195815001Y-93760714D01*
X195743572Y-93617857D01*
X195743572Y-93189286D01*
X195815001Y-93046429D01*
X195886429Y-92975000D01*
X196029287Y-92903571D01*
X196315001Y-92903571D01*
X196457858Y-92975000D01*
X197100715Y-93903571D02*
X197100715Y-92403571D01*
X197243572Y-93332143D02*
X197672143Y-93903571D01*
X197672143Y-92903571D02*
X197100715Y-93475000D01*
X198886429Y-93832143D02*
X198743572Y-93903571D01*
X198457858Y-93903571D01*
X198315001Y-93832143D01*
X198243572Y-93689286D01*
X198243572Y-93117857D01*
X198315001Y-92975000D01*
X198457858Y-92903571D01*
X198743572Y-92903571D01*
X198886429Y-92975000D01*
X198957858Y-93117857D01*
X198957858Y-93260714D01*
X198243572Y-93403571D01*
X199600715Y-93903571D02*
X199600715Y-92903571D01*
X199600715Y-93189286D02*
X199672143Y-93046429D01*
X199743572Y-92975000D01*
X199886429Y-92903571D01*
X200029286Y-92903571D01*
X200457857Y-93832143D02*
X200672143Y-93903571D01*
X201029286Y-93903571D01*
X201172143Y-93832143D01*
X201243572Y-93760714D01*
X201315000Y-93617857D01*
X201315000Y-93475000D01*
X201243572Y-93332143D01*
X201172143Y-93260714D01*
X201029286Y-93189286D01*
X200743572Y-93117857D01*
X200600714Y-93046429D01*
X200529286Y-92975000D01*
X200457857Y-92832143D01*
X200457857Y-92689286D01*
X200529286Y-92546429D01*
X200600714Y-92475000D01*
X200743572Y-92403571D01*
X201100714Y-92403571D01*
X201315000Y-92475000D01*
X201957857Y-93903571D02*
X201957857Y-92403571D01*
X202600714Y-93903571D02*
X202600714Y-93117857D01*
X202529285Y-92975000D01*
X202386428Y-92903571D01*
X202172143Y-92903571D01*
X202029285Y-92975000D01*
X201957857Y-93046429D01*
X203315000Y-93903571D02*
X203315000Y-92903571D01*
X203315000Y-92403571D02*
X203243571Y-92475000D01*
X203315000Y-92546429D01*
X203386428Y-92475000D01*
X203315000Y-92403571D01*
X203315000Y-92546429D01*
X204600714Y-93832143D02*
X204457857Y-93903571D01*
X204172143Y-93903571D01*
X204029286Y-93832143D01*
X203957857Y-93689286D01*
X203957857Y-93117857D01*
X204029286Y-92975000D01*
X204172143Y-92903571D01*
X204457857Y-92903571D01*
X204600714Y-92975000D01*
X204672143Y-93117857D01*
X204672143Y-93260714D01*
X203957857Y-93403571D01*
X205529286Y-93903571D02*
X205386428Y-93832143D01*
X205315000Y-93689286D01*
X205315000Y-92403571D01*
X206743571Y-93903571D02*
X206743571Y-92403571D01*
X206743571Y-93832143D02*
X206600714Y-93903571D01*
X206315000Y-93903571D01*
X206172142Y-93832143D01*
X206100714Y-93760714D01*
X206029285Y-93617857D01*
X206029285Y-93189286D01*
X206100714Y-93046429D01*
X206172142Y-92975000D01*
X206315000Y-92903571D01*
X206600714Y-92903571D01*
X206743571Y-92975000D01*
X208386428Y-92403571D02*
X208886428Y-93903571D01*
X209386428Y-92403571D01*
X210672142Y-93903571D02*
X209814999Y-93903571D01*
X210243571Y-93903571D02*
X210243571Y-92403571D01*
X210100714Y-92617857D01*
X209957856Y-92760714D01*
X209814999Y-92832143D01*
X211314999Y-93760714D02*
X211386427Y-93832143D01*
X211314999Y-93903571D01*
X211243570Y-93832143D01*
X211314999Y-93760714D01*
X211314999Y-93903571D01*
X212814999Y-93903571D02*
X211957856Y-93903571D01*
X212386428Y-93903571D02*
X212386428Y-92403571D01*
X212243571Y-92617857D01*
X212100713Y-92760714D01*
X211957856Y-92832143D01*
D12*
X200660000Y-76517500D02*
X200660000Y-76136500D01*
X200660000Y-77533500D02*
X200660000Y-77152500D01*
X200660000Y-77152500D02*
X200279000Y-76517500D01*
X200279000Y-76517500D02*
X201041000Y-76517500D01*
X201041000Y-76517500D02*
X200660000Y-77152500D01*
X200152000Y-77152500D02*
X201168000Y-77152500D01*
X201560000Y-78835000D02*
X201560000Y-75295000D01*
X199760000Y-78835000D02*
X199760000Y-75295000D01*
X213995000Y-76517500D02*
X213995000Y-76136500D01*
X213995000Y-77533500D02*
X213995000Y-77152500D01*
X213995000Y-77152500D02*
X213614000Y-76517500D01*
X213614000Y-76517500D02*
X214376000Y-76517500D01*
X214376000Y-76517500D02*
X213995000Y-77152500D01*
X213487000Y-77152500D02*
X214503000Y-77152500D01*
X214895000Y-78835000D02*
X214895000Y-75295000D01*
X213095000Y-78835000D02*
X213095000Y-75295000D01*
X193634360Y-64485520D02*
X196136260Y-64485520D01*
X186133740Y-64485520D02*
X188635640Y-64485520D01*
X186133740Y-76484480D02*
X188635640Y-76484480D01*
X196136260Y-76484480D02*
X193634360Y-76484480D01*
X191135000Y-65984120D02*
X191135000Y-74985880D01*
X193634360Y-65984120D02*
X188635640Y-65984120D01*
X193634360Y-74985880D02*
X188635640Y-74985880D01*
X193034920Y-80484980D02*
X193634360Y-80484980D01*
X189235080Y-60485020D02*
X188635640Y-60485020D01*
X188635640Y-60485020D02*
X188635640Y-80484980D01*
X188635640Y-80484980D02*
X189235080Y-80484980D01*
X193634360Y-80484980D02*
X193634360Y-60485020D01*
X193634360Y-60485020D02*
X193034920Y-60485020D01*
X193034920Y-82483960D02*
X196136260Y-82483960D01*
X189235080Y-58486040D02*
X186133740Y-58486040D01*
X186133740Y-58486040D02*
X186133740Y-82483960D01*
X186133740Y-82483960D02*
X189235080Y-82483960D01*
X196136260Y-82483960D02*
X196136260Y-58486040D01*
X196136260Y-58486040D02*
X193034920Y-58486040D01*
X159405000Y-65500000D02*
X162405000Y-65500000D01*
X159405000Y-59500000D02*
X162405000Y-59500000D01*
X159405000Y-59500000D02*
X154405000Y-59500000D01*
X154405000Y-59500000D02*
X154405000Y-65500000D01*
X154405000Y-65500000D02*
X159405000Y-65500000D01*
X162405000Y-59550000D02*
X162405000Y-65450000D01*
X159405000Y-96075000D02*
X162405000Y-96075000D01*
X159405000Y-90075000D02*
X162405000Y-90075000D01*
X159405000Y-90075000D02*
X154405000Y-90075000D01*
X154405000Y-90075000D02*
X154405000Y-96075000D01*
X154405000Y-96075000D02*
X159405000Y-96075000D01*
X162405000Y-90125000D02*
X162405000Y-96025000D01*
X154405000Y-70470000D02*
X162405000Y-70470000D01*
X154405000Y-84470000D02*
X154405000Y-70470000D01*
X162405000Y-84470000D02*
X154405000Y-84470000D01*
X162405000Y-70470000D02*
X162405000Y-84470000D01*
X205780000Y-76970000D02*
X205780000Y-77970000D01*
X204430000Y-77970000D02*
X204430000Y-76970000D01*
X210225000Y-76970000D02*
X210225000Y-77970000D01*
X208875000Y-77970000D02*
X208875000Y-76970000D01*
X205780000Y-82050000D02*
X205780000Y-83050000D01*
X204430000Y-83050000D02*
X204430000Y-82050000D01*
X210225000Y-82050000D02*
X210225000Y-83050000D01*
X208875000Y-83050000D02*
X208875000Y-82050000D01*
D13*
X214541100Y-64363600D02*
X214541100Y-52933600D01*
X214541100Y-52933600D02*
X213271100Y-51663600D01*
X213271100Y-51663600D02*
X154601100Y-51703600D01*
X214541100Y-105003600D02*
X154601100Y-105003600D01*
X214541100Y-64363600D02*
X217081100Y-66903600D01*
X217081100Y-66903600D02*
X217081100Y-99923600D01*
X217081100Y-99923600D02*
X214541100Y-102463600D01*
X214541100Y-102463600D02*
X214541100Y-105003600D01*
D12*
X164880000Y-57970000D02*
X184380000Y-57970000D01*
X164880000Y-98470000D02*
X164880000Y-57970000D01*
X184380000Y-98470000D02*
X164880000Y-98470000D01*
X184380000Y-57970000D02*
X184380000Y-98470000D01*
D14*
X157180000Y-70145000D02*
X157380000Y-70345000D01*
X157480000Y-70045000D02*
X157680000Y-70245000D01*
X158880000Y-69445000D02*
X156080000Y-69445000D01*
X157980000Y-69445000D02*
X158880000Y-69445000D01*
X157980000Y-69945000D02*
X157980000Y-68945000D01*
X157980000Y-69445000D02*
X156980000Y-69945000D01*
X156980000Y-68945000D02*
X157980000Y-69445000D01*
X156980000Y-69945000D02*
X156980000Y-68945000D01*
X158280000Y-67345000D02*
X156680000Y-67345000D01*
X158280000Y-68545000D02*
X156680000Y-68545000D01*
X157180000Y-89830000D02*
X157380000Y-90030000D01*
X157480000Y-89730000D02*
X157680000Y-89930000D01*
X158880000Y-89130000D02*
X156080000Y-89130000D01*
X157980000Y-89130000D02*
X158880000Y-89130000D01*
X157980000Y-89630000D02*
X157980000Y-88630000D01*
X157980000Y-89130000D02*
X156980000Y-89630000D01*
X156980000Y-88630000D02*
X157980000Y-89130000D01*
X156980000Y-89630000D02*
X156980000Y-88630000D01*
X158280000Y-87030000D02*
X156680000Y-87030000D01*
X158280000Y-88230000D02*
X156680000Y-88230000D01*
D12*
X161425000Y-67270000D02*
X162425000Y-67270000D01*
X162425000Y-68620000D02*
X161425000Y-68620000D01*
X161425000Y-86955000D02*
X162425000Y-86955000D01*
X162425000Y-88305000D02*
X161425000Y-88305000D01*
D14*
X209890000Y-60025000D02*
X209690000Y-60225000D01*
X209990000Y-60325000D02*
X209790000Y-60525000D01*
X210590000Y-61725000D02*
X210590000Y-58925000D01*
X210590000Y-60825000D02*
X210590000Y-61725000D01*
X210090000Y-60825000D02*
X211090000Y-60825000D01*
X210590000Y-60825000D02*
X210090000Y-59825000D01*
X211090000Y-59825000D02*
X210590000Y-60825000D01*
X210090000Y-59825000D02*
X211090000Y-59825000D01*
X212690000Y-61125000D02*
X212690000Y-59525000D01*
X211490000Y-61125000D02*
X211490000Y-59525000D01*
X207985000Y-60025000D02*
X207785000Y-60225000D01*
X208085000Y-60325000D02*
X207885000Y-60525000D01*
X208685000Y-61725000D02*
X208685000Y-58925000D01*
X208685000Y-60825000D02*
X208685000Y-61725000D01*
X208185000Y-60825000D02*
X209185000Y-60825000D01*
X208685000Y-60825000D02*
X208185000Y-59825000D01*
X209185000Y-59825000D02*
X208685000Y-60825000D01*
X208185000Y-59825000D02*
X209185000Y-59825000D01*
X210785000Y-61125000D02*
X210785000Y-59525000D01*
X209585000Y-61125000D02*
X209585000Y-59525000D01*
X206080000Y-60025000D02*
X205880000Y-60225000D01*
X206180000Y-60325000D02*
X205980000Y-60525000D01*
X206780000Y-61725000D02*
X206780000Y-58925000D01*
X206780000Y-60825000D02*
X206780000Y-61725000D01*
X206280000Y-60825000D02*
X207280000Y-60825000D01*
X206780000Y-60825000D02*
X206280000Y-59825000D01*
X207280000Y-59825000D02*
X206780000Y-60825000D01*
X206280000Y-59825000D02*
X207280000Y-59825000D01*
X208880000Y-61125000D02*
X208880000Y-59525000D01*
X207680000Y-61125000D02*
X207680000Y-59525000D01*
X204175000Y-60025000D02*
X203975000Y-60225000D01*
X204275000Y-60325000D02*
X204075000Y-60525000D01*
X204875000Y-61725000D02*
X204875000Y-58925000D01*
X204875000Y-60825000D02*
X204875000Y-61725000D01*
X204375000Y-60825000D02*
X205375000Y-60825000D01*
X204875000Y-60825000D02*
X204375000Y-59825000D01*
X205375000Y-59825000D02*
X204875000Y-60825000D01*
X204375000Y-59825000D02*
X205375000Y-59825000D01*
X206975000Y-61125000D02*
X206975000Y-59525000D01*
X205775000Y-61125000D02*
X205775000Y-59525000D01*
X202270000Y-60025000D02*
X202070000Y-60225000D01*
X202370000Y-60325000D02*
X202170000Y-60525000D01*
X202970000Y-61725000D02*
X202970000Y-58925000D01*
X202970000Y-60825000D02*
X202970000Y-61725000D01*
X202470000Y-60825000D02*
X203470000Y-60825000D01*
X202970000Y-60825000D02*
X202470000Y-59825000D01*
X203470000Y-59825000D02*
X202970000Y-60825000D01*
X202470000Y-59825000D02*
X203470000Y-59825000D01*
X205070000Y-61125000D02*
X205070000Y-59525000D01*
X203870000Y-61125000D02*
X203870000Y-59525000D01*
X200365000Y-60025000D02*
X200165000Y-60225000D01*
X200465000Y-60325000D02*
X200265000Y-60525000D01*
X201065000Y-61725000D02*
X201065000Y-58925000D01*
X201065000Y-60825000D02*
X201065000Y-61725000D01*
X200565000Y-60825000D02*
X201565000Y-60825000D01*
X201065000Y-60825000D02*
X200565000Y-59825000D01*
X201565000Y-59825000D02*
X201065000Y-60825000D01*
X200565000Y-59825000D02*
X201565000Y-59825000D01*
X203165000Y-61125000D02*
X203165000Y-59525000D01*
X201965000Y-61125000D02*
X201965000Y-59525000D01*
X198460000Y-60025000D02*
X198260000Y-60225000D01*
X198560000Y-60325000D02*
X198360000Y-60525000D01*
X199160000Y-61725000D02*
X199160000Y-58925000D01*
X199160000Y-60825000D02*
X199160000Y-61725000D01*
X198660000Y-60825000D02*
X199660000Y-60825000D01*
X199160000Y-60825000D02*
X198660000Y-59825000D01*
X199660000Y-59825000D02*
X199160000Y-60825000D01*
X198660000Y-59825000D02*
X199660000Y-59825000D01*
X201260000Y-61125000D02*
X201260000Y-59525000D01*
X200060000Y-61125000D02*
X200060000Y-59525000D01*
X196555000Y-60025000D02*
X196355000Y-60225000D01*
X196655000Y-60325000D02*
X196455000Y-60525000D01*
X197255000Y-61725000D02*
X197255000Y-58925000D01*
X197255000Y-60825000D02*
X197255000Y-61725000D01*
X196755000Y-60825000D02*
X197755000Y-60825000D01*
X197255000Y-60825000D02*
X196755000Y-59825000D01*
X197755000Y-59825000D02*
X197255000Y-60825000D01*
X196755000Y-59825000D02*
X197755000Y-59825000D01*
X199355000Y-61125000D02*
X199355000Y-59525000D01*
X198155000Y-61125000D02*
X198155000Y-59525000D01*
D12*
X212765000Y-64100000D02*
X212765000Y-65100000D01*
X211415000Y-65100000D02*
X211415000Y-64100000D01*
X210860000Y-64100000D02*
X210860000Y-65100000D01*
X209510000Y-65100000D02*
X209510000Y-64100000D01*
X208955000Y-64100000D02*
X208955000Y-65100000D01*
X207605000Y-65100000D02*
X207605000Y-64100000D01*
X207050000Y-64100000D02*
X207050000Y-65100000D01*
X205700000Y-65100000D02*
X205700000Y-64100000D01*
X205145000Y-64100000D02*
X205145000Y-65100000D01*
X203795000Y-65100000D02*
X203795000Y-64100000D01*
X203240000Y-64100000D02*
X203240000Y-65100000D01*
X201890000Y-65100000D02*
X201890000Y-64100000D01*
X201335000Y-64100000D02*
X201335000Y-65100000D01*
X199985000Y-65100000D02*
X199985000Y-64100000D01*
X199430000Y-64100000D02*
X199430000Y-65100000D01*
X198080000Y-65100000D02*
X198080000Y-64100000D01*
X199112381Y-77573095D02*
X198112381Y-77573095D01*
X198112381Y-77335000D01*
X198160000Y-77192142D01*
X198255238Y-77096904D01*
X198350476Y-77049285D01*
X198540952Y-77001666D01*
X198683810Y-77001666D01*
X198874286Y-77049285D01*
X198969524Y-77096904D01*
X199064762Y-77192142D01*
X199112381Y-77335000D01*
X199112381Y-77573095D01*
X199112381Y-76049285D02*
X199112381Y-76620714D01*
X199112381Y-76335000D02*
X198112381Y-76335000D01*
X198255238Y-76430238D01*
X198350476Y-76525476D01*
X198398095Y-76620714D01*
X212447381Y-77573095D02*
X211447381Y-77573095D01*
X211447381Y-77335000D01*
X211495000Y-77192142D01*
X211590238Y-77096904D01*
X211685476Y-77049285D01*
X211875952Y-77001666D01*
X212018810Y-77001666D01*
X212209286Y-77049285D01*
X212304524Y-77096904D01*
X212399762Y-77192142D01*
X212447381Y-77335000D01*
X212447381Y-77573095D01*
X211542619Y-76620714D02*
X211495000Y-76573095D01*
X211447381Y-76477857D01*
X211447381Y-76239761D01*
X211495000Y-76144523D01*
X211542619Y-76096904D01*
X211637857Y-76049285D01*
X211733095Y-76049285D01*
X211875952Y-76096904D01*
X212447381Y-76668333D01*
X212447381Y-76049285D01*
X197413571Y-72088333D02*
X197413571Y-72421667D01*
X197937381Y-72421667D02*
X196937381Y-72421667D01*
X196937381Y-71945476D01*
X197937381Y-71040714D02*
X197937381Y-71612143D01*
X197937381Y-71326429D02*
X196937381Y-71326429D01*
X197080238Y-71421667D01*
X197175476Y-71516905D01*
X197223095Y-71612143D01*
X163947857Y-63385714D02*
X162747857Y-63385714D01*
X162747857Y-62928571D01*
X162805000Y-62814285D01*
X162862143Y-62757142D01*
X162976429Y-62699999D01*
X163147857Y-62699999D01*
X163262143Y-62757142D01*
X163319286Y-62814285D01*
X163376429Y-62928571D01*
X163376429Y-63385714D01*
X163947857Y-61557142D02*
X163947857Y-62242857D01*
X163947857Y-61899999D02*
X162747857Y-61899999D01*
X162919286Y-62014285D01*
X163033571Y-62128571D01*
X163090714Y-62242857D01*
X163947857Y-93960714D02*
X162747857Y-93960714D01*
X162747857Y-93503571D01*
X162805000Y-93389285D01*
X162862143Y-93332142D01*
X162976429Y-93274999D01*
X163147857Y-93274999D01*
X163262143Y-93332142D01*
X163319286Y-93389285D01*
X163376429Y-93503571D01*
X163376429Y-93960714D01*
X162862143Y-92817857D02*
X162805000Y-92760714D01*
X162747857Y-92646428D01*
X162747857Y-92360714D01*
X162805000Y-92246428D01*
X162862143Y-92189285D01*
X162976429Y-92132142D01*
X163090714Y-92132142D01*
X163262143Y-92189285D01*
X163947857Y-92874999D01*
X163947857Y-92132142D01*
X163947857Y-78355714D02*
X162747857Y-78355714D01*
X162747857Y-77898571D01*
X162805000Y-77784285D01*
X162862143Y-77727142D01*
X162976429Y-77669999D01*
X163147857Y-77669999D01*
X163262143Y-77727142D01*
X163319286Y-77784285D01*
X163376429Y-77898571D01*
X163376429Y-78355714D01*
X162747857Y-77269999D02*
X162747857Y-76527142D01*
X163205000Y-76927142D01*
X163205000Y-76755714D01*
X163262143Y-76641428D01*
X163319286Y-76584285D01*
X163433571Y-76527142D01*
X163719286Y-76527142D01*
X163833571Y-76584285D01*
X163890714Y-76641428D01*
X163947857Y-76755714D01*
X163947857Y-77098571D01*
X163890714Y-77212857D01*
X163833571Y-77269999D01*
X203657381Y-77636666D02*
X203181190Y-77970000D01*
X203657381Y-78208095D02*
X202657381Y-78208095D01*
X202657381Y-77827142D01*
X202705000Y-77731904D01*
X202752619Y-77684285D01*
X202847857Y-77636666D01*
X202990714Y-77636666D01*
X203085952Y-77684285D01*
X203133571Y-77731904D01*
X203181190Y-77827142D01*
X203181190Y-78208095D01*
X202657381Y-76731904D02*
X202657381Y-77208095D01*
X203133571Y-77255714D01*
X203085952Y-77208095D01*
X203038333Y-77112857D01*
X203038333Y-76874761D01*
X203085952Y-76779523D01*
X203133571Y-76731904D01*
X203228810Y-76684285D01*
X203466905Y-76684285D01*
X203562143Y-76731904D01*
X203609762Y-76779523D01*
X203657381Y-76874761D01*
X203657381Y-77112857D01*
X203609762Y-77208095D01*
X203562143Y-77255714D01*
X208102381Y-77636666D02*
X207626190Y-77970000D01*
X208102381Y-78208095D02*
X207102381Y-78208095D01*
X207102381Y-77827142D01*
X207150000Y-77731904D01*
X207197619Y-77684285D01*
X207292857Y-77636666D01*
X207435714Y-77636666D01*
X207530952Y-77684285D01*
X207578571Y-77731904D01*
X207626190Y-77827142D01*
X207626190Y-78208095D01*
X207102381Y-76779523D02*
X207102381Y-76970000D01*
X207150000Y-77065238D01*
X207197619Y-77112857D01*
X207340476Y-77208095D01*
X207530952Y-77255714D01*
X207911905Y-77255714D01*
X208007143Y-77208095D01*
X208054762Y-77160476D01*
X208102381Y-77065238D01*
X208102381Y-76874761D01*
X208054762Y-76779523D01*
X208007143Y-76731904D01*
X207911905Y-76684285D01*
X207673810Y-76684285D01*
X207578571Y-76731904D01*
X207530952Y-76779523D01*
X207483333Y-76874761D01*
X207483333Y-77065238D01*
X207530952Y-77160476D01*
X207578571Y-77208095D01*
X207673810Y-77255714D01*
X203657381Y-82716666D02*
X203181190Y-83050000D01*
X203657381Y-83288095D02*
X202657381Y-83288095D01*
X202657381Y-82907142D01*
X202705000Y-82811904D01*
X202752619Y-82764285D01*
X202847857Y-82716666D01*
X202990714Y-82716666D01*
X203085952Y-82764285D01*
X203133571Y-82811904D01*
X203181190Y-82907142D01*
X203181190Y-83288095D01*
X202657381Y-82383333D02*
X202657381Y-81716666D01*
X203657381Y-82145238D01*
X208102381Y-82716666D02*
X207626190Y-83050000D01*
X208102381Y-83288095D02*
X207102381Y-83288095D01*
X207102381Y-82907142D01*
X207150000Y-82811904D01*
X207197619Y-82764285D01*
X207292857Y-82716666D01*
X207435714Y-82716666D01*
X207530952Y-82764285D01*
X207578571Y-82811904D01*
X207626190Y-82907142D01*
X207626190Y-83288095D01*
X207530952Y-82145238D02*
X207483333Y-82240476D01*
X207435714Y-82288095D01*
X207340476Y-82335714D01*
X207292857Y-82335714D01*
X207197619Y-82288095D01*
X207150000Y-82240476D01*
X207102381Y-82145238D01*
X207102381Y-81954761D01*
X207150000Y-81859523D01*
X207197619Y-81811904D01*
X207292857Y-81764285D01*
X207340476Y-81764285D01*
X207435714Y-81811904D01*
X207483333Y-81859523D01*
X207530952Y-81954761D01*
X207530952Y-82145238D01*
X207578571Y-82240476D01*
X207626190Y-82288095D01*
X207721429Y-82335714D01*
X207911905Y-82335714D01*
X208007143Y-82288095D01*
X208054762Y-82240476D01*
X208102381Y-82145238D01*
X208102381Y-81954761D01*
X208054762Y-81859523D01*
X208007143Y-81811904D01*
X207911905Y-81764285D01*
X207721429Y-81764285D01*
X207626190Y-81811904D01*
X207578571Y-81859523D01*
X207530952Y-81954761D01*
D15*
X146650529Y-48470457D02*
X146868243Y-48543029D01*
X147231100Y-48543029D01*
X147376243Y-48470457D01*
X147448814Y-48397886D01*
X147521386Y-48252743D01*
X147521386Y-48107600D01*
X147448814Y-47962457D01*
X147376243Y-47889886D01*
X147231100Y-47817314D01*
X146940814Y-47744743D01*
X146795672Y-47672171D01*
X146723100Y-47599600D01*
X146650529Y-47454457D01*
X146650529Y-47309314D01*
X146723100Y-47164171D01*
X146795672Y-47091600D01*
X146940814Y-47019029D01*
X147303672Y-47019029D01*
X147521386Y-47091600D01*
X148174529Y-48543029D02*
X148174529Y-47019029D01*
X148174529Y-47744743D02*
X149045386Y-47744743D01*
X149045386Y-48543029D02*
X149045386Y-47019029D01*
X149771100Y-48543029D02*
X149771100Y-47019029D01*
X150496814Y-47744743D02*
X151004814Y-47744743D01*
X151222528Y-48543029D02*
X150496814Y-48543029D01*
X150496814Y-47019029D01*
X151222528Y-47019029D01*
X152601385Y-48543029D02*
X151875671Y-48543029D01*
X151875671Y-47019029D01*
X153109385Y-48543029D02*
X153109385Y-47019029D01*
X153472242Y-47019029D01*
X153689957Y-47091600D01*
X153835099Y-47236743D01*
X153907671Y-47381886D01*
X153980242Y-47672171D01*
X153980242Y-47889886D01*
X153907671Y-48180171D01*
X153835099Y-48325314D01*
X153689957Y-48470457D01*
X153472242Y-48543029D01*
X153109385Y-48543029D01*
X155431671Y-48543029D02*
X154560814Y-48543029D01*
X154996242Y-48543029D02*
X154996242Y-47019029D01*
X154851099Y-47236743D01*
X154705957Y-47381886D01*
X154560814Y-47454457D01*
D12*
X162832381Y-78231905D02*
X163641905Y-78231905D01*
X163737143Y-78184286D01*
X163784762Y-78136667D01*
X163832381Y-78041429D01*
X163832381Y-77850952D01*
X163784762Y-77755714D01*
X163737143Y-77708095D01*
X163641905Y-77660476D01*
X162832381Y-77660476D01*
X163832381Y-76660476D02*
X163832381Y-77231905D01*
X163832381Y-76946191D02*
X162832381Y-76946191D01*
X162975238Y-77041429D01*
X163070476Y-77136667D01*
X163118095Y-77231905D01*
X156741905Y-66497381D02*
X156741905Y-65497381D01*
X156980000Y-65497381D01*
X157122858Y-65545000D01*
X157218096Y-65640238D01*
X157265715Y-65735476D01*
X157313334Y-65925952D01*
X157313334Y-66068810D01*
X157265715Y-66259286D01*
X157218096Y-66354524D01*
X157122858Y-66449762D01*
X156980000Y-66497381D01*
X156741905Y-66497381D01*
X158218096Y-65497381D02*
X157741905Y-65497381D01*
X157694286Y-65973571D01*
X157741905Y-65925952D01*
X157837143Y-65878333D01*
X158075239Y-65878333D01*
X158170477Y-65925952D01*
X158218096Y-65973571D01*
X158265715Y-66068810D01*
X158265715Y-66306905D01*
X158218096Y-66402143D01*
X158170477Y-66449762D01*
X158075239Y-66497381D01*
X157837143Y-66497381D01*
X157741905Y-66449762D01*
X157694286Y-66402143D01*
X156741905Y-86182381D02*
X156741905Y-85182381D01*
X156980000Y-85182381D01*
X157122858Y-85230000D01*
X157218096Y-85325238D01*
X157265715Y-85420476D01*
X157313334Y-85610952D01*
X157313334Y-85753810D01*
X157265715Y-85944286D01*
X157218096Y-86039524D01*
X157122858Y-86134762D01*
X156980000Y-86182381D01*
X156741905Y-86182381D01*
X158170477Y-85182381D02*
X157980000Y-85182381D01*
X157884762Y-85230000D01*
X157837143Y-85277619D01*
X157741905Y-85420476D01*
X157694286Y-85610952D01*
X157694286Y-85991905D01*
X157741905Y-86087143D01*
X157789524Y-86134762D01*
X157884762Y-86182381D01*
X158075239Y-86182381D01*
X158170477Y-86134762D01*
X158218096Y-86087143D01*
X158265715Y-85991905D01*
X158265715Y-85753810D01*
X158218096Y-85658571D01*
X158170477Y-85610952D01*
X158075239Y-85563333D01*
X157884762Y-85563333D01*
X157789524Y-85610952D01*
X157741905Y-85658571D01*
X157694286Y-85753810D01*
X161758334Y-70297381D02*
X161425000Y-69821190D01*
X161186905Y-70297381D02*
X161186905Y-69297381D01*
X161567858Y-69297381D01*
X161663096Y-69345000D01*
X161710715Y-69392619D01*
X161758334Y-69487857D01*
X161758334Y-69630714D01*
X161710715Y-69725952D01*
X161663096Y-69773571D01*
X161567858Y-69821190D01*
X161186905Y-69821190D01*
X162234524Y-70297381D02*
X162425000Y-70297381D01*
X162520239Y-70249762D01*
X162567858Y-70202143D01*
X162663096Y-70059286D01*
X162710715Y-69868810D01*
X162710715Y-69487857D01*
X162663096Y-69392619D01*
X162615477Y-69345000D01*
X162520239Y-69297381D01*
X162329762Y-69297381D01*
X162234524Y-69345000D01*
X162186905Y-69392619D01*
X162139286Y-69487857D01*
X162139286Y-69725952D01*
X162186905Y-69821190D01*
X162234524Y-69868810D01*
X162329762Y-69916429D01*
X162520239Y-69916429D01*
X162615477Y-69868810D01*
X162663096Y-69821190D01*
X162710715Y-69725952D01*
X161282143Y-89982381D02*
X160948809Y-89506190D01*
X160710714Y-89982381D02*
X160710714Y-88982381D01*
X161091667Y-88982381D01*
X161186905Y-89030000D01*
X161234524Y-89077619D01*
X161282143Y-89172857D01*
X161282143Y-89315714D01*
X161234524Y-89410952D01*
X161186905Y-89458571D01*
X161091667Y-89506190D01*
X160710714Y-89506190D01*
X162234524Y-89982381D02*
X161663095Y-89982381D01*
X161948809Y-89982381D02*
X161948809Y-88982381D01*
X161853571Y-89125238D01*
X161758333Y-89220476D01*
X161663095Y-89268095D01*
X162853571Y-88982381D02*
X162948810Y-88982381D01*
X163044048Y-89030000D01*
X163091667Y-89077619D01*
X163139286Y-89172857D01*
X163186905Y-89363333D01*
X163186905Y-89601429D01*
X163139286Y-89791905D01*
X163091667Y-89887143D01*
X163044048Y-89934762D01*
X162948810Y-89982381D01*
X162853571Y-89982381D01*
X162758333Y-89934762D01*
X162710714Y-89887143D01*
X162663095Y-89791905D01*
X162615476Y-89601429D01*
X162615476Y-89363333D01*
X162663095Y-89172857D01*
X162710714Y-89077619D01*
X162758333Y-89030000D01*
X162853571Y-88982381D01*
X212542381Y-68587857D02*
X212066190Y-68921191D01*
X212542381Y-69159286D02*
X211542381Y-69159286D01*
X211542381Y-68778333D01*
X211590000Y-68683095D01*
X211637619Y-68635476D01*
X211732857Y-68587857D01*
X211875714Y-68587857D01*
X211970952Y-68635476D01*
X212018571Y-68683095D01*
X212066190Y-68778333D01*
X212066190Y-69159286D01*
X212542381Y-67635476D02*
X212542381Y-68206905D01*
X212542381Y-67921191D02*
X211542381Y-67921191D01*
X211685238Y-68016429D01*
X211780476Y-68111667D01*
X211828095Y-68206905D01*
X212542381Y-66683095D02*
X212542381Y-67254524D01*
X212542381Y-66968810D02*
X211542381Y-66968810D01*
X211685238Y-67064048D01*
X211780476Y-67159286D01*
X211828095Y-67254524D01*
X210637381Y-68587857D02*
X210161190Y-68921191D01*
X210637381Y-69159286D02*
X209637381Y-69159286D01*
X209637381Y-68778333D01*
X209685000Y-68683095D01*
X209732619Y-68635476D01*
X209827857Y-68587857D01*
X209970714Y-68587857D01*
X210065952Y-68635476D01*
X210113571Y-68683095D01*
X210161190Y-68778333D01*
X210161190Y-69159286D01*
X210637381Y-67635476D02*
X210637381Y-68206905D01*
X210637381Y-67921191D02*
X209637381Y-67921191D01*
X209780238Y-68016429D01*
X209875476Y-68111667D01*
X209923095Y-68206905D01*
X209732619Y-67254524D02*
X209685000Y-67206905D01*
X209637381Y-67111667D01*
X209637381Y-66873571D01*
X209685000Y-66778333D01*
X209732619Y-66730714D01*
X209827857Y-66683095D01*
X209923095Y-66683095D01*
X210065952Y-66730714D01*
X210637381Y-67302143D01*
X210637381Y-66683095D01*
X208732381Y-68587857D02*
X208256190Y-68921191D01*
X208732381Y-69159286D02*
X207732381Y-69159286D01*
X207732381Y-68778333D01*
X207780000Y-68683095D01*
X207827619Y-68635476D01*
X207922857Y-68587857D01*
X208065714Y-68587857D01*
X208160952Y-68635476D01*
X208208571Y-68683095D01*
X208256190Y-68778333D01*
X208256190Y-69159286D01*
X208732381Y-67635476D02*
X208732381Y-68206905D01*
X208732381Y-67921191D02*
X207732381Y-67921191D01*
X207875238Y-68016429D01*
X207970476Y-68111667D01*
X208018095Y-68206905D01*
X207732381Y-67302143D02*
X207732381Y-66683095D01*
X208113333Y-67016429D01*
X208113333Y-66873571D01*
X208160952Y-66778333D01*
X208208571Y-66730714D01*
X208303810Y-66683095D01*
X208541905Y-66683095D01*
X208637143Y-66730714D01*
X208684762Y-66778333D01*
X208732381Y-66873571D01*
X208732381Y-67159286D01*
X208684762Y-67254524D01*
X208637143Y-67302143D01*
X206827381Y-68587857D02*
X206351190Y-68921191D01*
X206827381Y-69159286D02*
X205827381Y-69159286D01*
X205827381Y-68778333D01*
X205875000Y-68683095D01*
X205922619Y-68635476D01*
X206017857Y-68587857D01*
X206160714Y-68587857D01*
X206255952Y-68635476D01*
X206303571Y-68683095D01*
X206351190Y-68778333D01*
X206351190Y-69159286D01*
X206827381Y-67635476D02*
X206827381Y-68206905D01*
X206827381Y-67921191D02*
X205827381Y-67921191D01*
X205970238Y-68016429D01*
X206065476Y-68111667D01*
X206113095Y-68206905D01*
X206160714Y-66778333D02*
X206827381Y-66778333D01*
X205779762Y-67016429D02*
X206494048Y-67254524D01*
X206494048Y-66635476D01*
X204922381Y-68587857D02*
X204446190Y-68921191D01*
X204922381Y-69159286D02*
X203922381Y-69159286D01*
X203922381Y-68778333D01*
X203970000Y-68683095D01*
X204017619Y-68635476D01*
X204112857Y-68587857D01*
X204255714Y-68587857D01*
X204350952Y-68635476D01*
X204398571Y-68683095D01*
X204446190Y-68778333D01*
X204446190Y-69159286D01*
X204922381Y-67635476D02*
X204922381Y-68206905D01*
X204922381Y-67921191D02*
X203922381Y-67921191D01*
X204065238Y-68016429D01*
X204160476Y-68111667D01*
X204208095Y-68206905D01*
X203922381Y-66730714D02*
X203922381Y-67206905D01*
X204398571Y-67254524D01*
X204350952Y-67206905D01*
X204303333Y-67111667D01*
X204303333Y-66873571D01*
X204350952Y-66778333D01*
X204398571Y-66730714D01*
X204493810Y-66683095D01*
X204731905Y-66683095D01*
X204827143Y-66730714D01*
X204874762Y-66778333D01*
X204922381Y-66873571D01*
X204922381Y-67111667D01*
X204874762Y-67206905D01*
X204827143Y-67254524D01*
X203017381Y-68587857D02*
X202541190Y-68921191D01*
X203017381Y-69159286D02*
X202017381Y-69159286D01*
X202017381Y-68778333D01*
X202065000Y-68683095D01*
X202112619Y-68635476D01*
X202207857Y-68587857D01*
X202350714Y-68587857D01*
X202445952Y-68635476D01*
X202493571Y-68683095D01*
X202541190Y-68778333D01*
X202541190Y-69159286D01*
X203017381Y-67635476D02*
X203017381Y-68206905D01*
X203017381Y-67921191D02*
X202017381Y-67921191D01*
X202160238Y-68016429D01*
X202255476Y-68111667D01*
X202303095Y-68206905D01*
X202017381Y-66778333D02*
X202017381Y-66968810D01*
X202065000Y-67064048D01*
X202112619Y-67111667D01*
X202255476Y-67206905D01*
X202445952Y-67254524D01*
X202826905Y-67254524D01*
X202922143Y-67206905D01*
X202969762Y-67159286D01*
X203017381Y-67064048D01*
X203017381Y-66873571D01*
X202969762Y-66778333D01*
X202922143Y-66730714D01*
X202826905Y-66683095D01*
X202588810Y-66683095D01*
X202493571Y-66730714D01*
X202445952Y-66778333D01*
X202398333Y-66873571D01*
X202398333Y-67064048D01*
X202445952Y-67159286D01*
X202493571Y-67206905D01*
X202588810Y-67254524D01*
X201112381Y-68587857D02*
X200636190Y-68921191D01*
X201112381Y-69159286D02*
X200112381Y-69159286D01*
X200112381Y-68778333D01*
X200160000Y-68683095D01*
X200207619Y-68635476D01*
X200302857Y-68587857D01*
X200445714Y-68587857D01*
X200540952Y-68635476D01*
X200588571Y-68683095D01*
X200636190Y-68778333D01*
X200636190Y-69159286D01*
X201112381Y-67635476D02*
X201112381Y-68206905D01*
X201112381Y-67921191D02*
X200112381Y-67921191D01*
X200255238Y-68016429D01*
X200350476Y-68111667D01*
X200398095Y-68206905D01*
X200112381Y-67302143D02*
X200112381Y-66635476D01*
X201112381Y-67064048D01*
X199207381Y-68587857D02*
X198731190Y-68921191D01*
X199207381Y-69159286D02*
X198207381Y-69159286D01*
X198207381Y-68778333D01*
X198255000Y-68683095D01*
X198302619Y-68635476D01*
X198397857Y-68587857D01*
X198540714Y-68587857D01*
X198635952Y-68635476D01*
X198683571Y-68683095D01*
X198731190Y-68778333D01*
X198731190Y-69159286D01*
X199207381Y-67635476D02*
X199207381Y-68206905D01*
X199207381Y-67921191D02*
X198207381Y-67921191D01*
X198350238Y-68016429D01*
X198445476Y-68111667D01*
X198493095Y-68206905D01*
X198635952Y-67064048D02*
X198588333Y-67159286D01*
X198540714Y-67206905D01*
X198445476Y-67254524D01*
X198397857Y-67254524D01*
X198302619Y-67206905D01*
X198255000Y-67159286D01*
X198207381Y-67064048D01*
X198207381Y-66873571D01*
X198255000Y-66778333D01*
X198302619Y-66730714D01*
X198397857Y-66683095D01*
X198445476Y-66683095D01*
X198540714Y-66730714D01*
X198588333Y-66778333D01*
X198635952Y-66873571D01*
X198635952Y-67064048D01*
X198683571Y-67159286D01*
X198731190Y-67206905D01*
X198826429Y-67254524D01*
X199016905Y-67254524D01*
X199112143Y-67206905D01*
X199159762Y-67159286D01*
X199207381Y-67064048D01*
X199207381Y-66873571D01*
X199159762Y-66778333D01*
X199112143Y-66730714D01*
X199016905Y-66683095D01*
X198826429Y-66683095D01*
X198731190Y-66730714D01*
X198683571Y-66778333D01*
X198635952Y-66873571D01*
M02*
